<svg xmlns="http://www.w3.org/2000/svg" viewBox="0 0 150 150" fill="none">
  <path d="M79.7368 83.4211H127.5C129.664 83.4211 131.739 84.2805 133.268 85.8104C134.798 87.3404 135.658 89.4153 135.658 91.5789V139.342C135.658 141.506 134.798 143.581 133.268 145.111C131.739 146.641 129.664 147.5 127.5 147.5H10.6579C8.49429 147.5 6.4193 146.641 4.88939 145.111C3.35949 143.581 2.5 141.506 2.5 139.342V22.5C2.5 20.3364 3.35949 18.2614 4.88939 16.7315C6.41929 15.2016 8.49429 14.3421 10.6579 14.3421H58.421C60.5847 14.3421 62.6597 15.2016 64.1896 16.7315C65.7195 18.2614 66.5789 20.3364 66.5789 22.5V70.2632C66.5789 73.7528 67.9652 77.0996 70.4328 79.5672C72.9004 82.0348 76.2472 83.4211 79.7368 83.4211ZM89.2335 2.5H141.688C143.228 2.50435 144.704 3.1181 145.793 4.20723C146.883 5.29699 147.496 6.77398 147.5 8.31513V60.7638C147.496 62.305 146.883 63.782 145.793 64.8717C144.704 65.9608 143.228 66.5745 141.688 66.5789C141.687 66.5789 141.686 66.579 141.685 66.579H89.2362C89.2352 66.579 89.2342 66.5789 89.2333 66.5789C87.6932 66.5745 86.2174 65.9608 85.1283 64.8717C84.0392 63.7826 83.4255 62.3068 83.4211 60.7667C83.4211 60.7658 83.421 60.7648 83.421 60.7638V8.31512C83.421 8.31415 83.4211 8.31318 83.4211 8.31221C83.4255 6.77211 84.0392 5.29631 85.1283 4.20724C86.2174 3.1181 87.6933 2.50435 89.2335 2.5Z" stroke="currentColor" stroke-width="5"/>
</svg>