<svg xmlns="http://www.w3.org/2000/svg"  viewBox="0 0 160 151" fill="none">
  <path d="M156.436 150.451H2.64402C1.95194 150.437 1.29288 150.153 0.808321 149.658C0.323766 149.164 0.0523541 148.499 0.0523541 147.807C0.0523541 147.115 0.323766 146.45 0.808321 145.956C1.29288 145.462 1.95194 145.177 2.64402 145.163H7.10819V60.6989C5.10892 60.2973 3.30965 59.2176 2.0145 57.6425C0.719347 56.0674 0.00775535 54.0934 0 52.0542V34.7597C0.0105814 32.4129 0.95175 30.1661 2.61697 28.5125C4.28219 26.8589 6.53543 25.9334 8.88223 25.9392H17.1941C17.7615 21.6987 19.849 17.8083 23.0689 14.9912C26.2888 12.174 30.4219 10.6217 34.7002 10.6226H46.9856V5.28805H44.2022C43.5096 5.27491 42.8499 4.99056 42.3647 4.49614C41.8796 4.00172 41.6078 3.3367 41.6078 2.64402C41.6078 1.95135 41.8796 1.28632 42.3647 0.791903C42.8499 0.297483 43.5096 0.0131408 44.2022 0H55.0596C55.7521 0.0131408 56.4119 0.297483 56.897 0.791903C57.3821 1.28632 57.6539 1.95135 57.6539 2.64402C57.6539 3.3367 57.3821 4.00172 56.897 4.49614C56.4119 4.99056 55.7521 5.27491 55.0596 5.28805H52.2737V10.6226H76.8961V5.28805H74.1101C73.4175 5.27491 72.7578 4.99056 72.2727 4.49614C71.7875 4.00172 71.5157 3.3367 71.5157 2.64402C71.5157 1.95135 71.7875 1.28632 72.2727 0.791903C72.7578 0.297483 73.4175 0.0131408 74.1101 0H84.97C85.6626 0.0131408 86.3223 0.297483 86.8075 0.791903C87.2926 1.28632 87.5644 1.95135 87.5644 2.64402C87.5644 3.3367 87.2926 4.00172 86.8075 4.49614C86.3223 4.99056 85.6626 5.27491 84.97 5.28805H82.1842V10.6226H106.807V5.28805H104.021C103.328 5.27491 102.668 4.99056 102.183 4.49614C101.698 4.00172 101.426 3.3367 101.426 2.64402C101.426 1.95135 101.698 1.28632 102.183 0.791903C102.668 0.297483 103.328 0.0131408 104.021 0H114.878C115.571 0.0131408 116.23 0.297483 116.715 0.791903C117.201 1.28632 117.472 1.95135 117.472 2.64402C117.472 3.3367 117.201 4.00172 116.715 4.49614C116.23 4.99056 115.571 5.27491 114.878 5.28805H112.095V10.6226H124.383C128.659 10.6287 132.789 12.1835 136.008 14.9993C139.227 17.8152 141.317 21.7015 141.892 25.9394H150.198C152.545 25.9336 154.798 26.859 156.463 28.5127C158.128 30.1663 159.07 32.413 159.08 34.7598V52.0544C159.072 54.0936 158.361 56.0676 157.066 57.6427C155.77 59.2178 153.971 60.2975 151.972 60.6991V145.163H156.436C157.129 145.176 157.788 145.461 158.274 145.955C158.759 146.449 159.031 147.114 159.031 147.807C159.031 148.5 158.759 149.165 158.274 149.659C157.789 150.154 157.129 150.438 156.436 150.451ZM112.095 145.163H146.684V86.4963C144.021 88.3605 140.746 89.1355 137.53 88.6621C134.315 88.1887 131.402 86.5029 129.389 83.9503C128.197 85.4509 126.681 86.6629 124.955 87.496C123.229 88.329 121.337 88.7617 119.42 88.7617C117.503 88.7617 115.611 88.329 113.885 87.496C112.159 86.6629 110.643 85.4509 109.451 83.9503C108.258 85.4509 106.742 86.6629 105.015 87.496C103.289 88.3291 101.397 88.7617 99.48 88.7617C97.5631 88.7617 95.6709 88.3291 93.9446 87.496C92.2182 86.6629 90.7021 85.4509 89.5093 83.9503C88.3169 85.4509 86.801 86.6629 85.0749 87.496C83.3487 88.329 81.4567 88.7617 79.5401 88.7617C77.6234 88.7617 75.7314 88.329 74.0053 87.496C72.2791 86.6629 70.7633 85.4509 69.5708 83.9503C68.378 85.4509 66.8619 86.6629 65.1356 87.496C63.4092 88.3291 61.517 88.7617 59.6002 88.7617C57.6833 88.7617 55.7911 88.3291 54.0647 87.496C52.3384 86.6629 50.8223 85.4509 49.6295 83.9503C48.437 85.4509 46.9212 86.6629 45.195 87.496C43.4689 88.329 41.5769 88.7617 39.6602 88.7617C37.7435 88.7617 35.8516 88.329 34.1254 87.496C32.3992 86.6629 30.8834 85.4509 29.6909 83.9503C27.6784 86.5028 24.7656 88.1886 21.5498 88.662C18.334 89.1354 15.059 88.3605 12.3963 86.4963V145.163H46.9854V102.536H43.9775C43.2854 102.522 42.6264 102.238 42.1418 101.743C41.6573 101.249 41.3858 100.584 41.3858 99.8922C41.3858 99.1999 41.6573 98.5353 42.1418 98.041C42.6264 97.5466 43.2854 97.262 43.9775 97.2481H115.103C115.45 97.2479 115.794 97.3162 116.115 97.449C116.436 97.5818 116.727 97.7766 116.973 98.0221C117.218 98.2677 117.413 98.5592 117.546 98.8801C117.679 99.201 117.747 99.5449 117.747 99.8922C117.646 103.041 114.288 102.54 112.095 102.536V145.163ZM82.1842 145.163H106.807V102.536H82.1842V145.163ZM52.2737 145.163H76.8961V102.536H52.2737V145.163ZM132.033 76.2326C132.062 78.1567 132.846 79.9924 134.217 81.343C135.587 82.6936 137.434 83.4507 139.359 83.4507C141.283 83.4506 143.13 82.6935 144.501 81.3428C145.871 79.9921 146.656 78.1564 146.684 76.2323V60.8745H132.033L132.033 76.2326ZM112.095 76.2326C112.123 78.157 112.907 79.9932 114.277 81.3442C115.648 82.6952 117.495 83.4525 119.42 83.4525C121.345 83.4525 123.192 82.695 124.563 81.344C125.933 79.9929 126.717 78.1567 126.745 76.2323V60.8745H112.095L112.095 76.2326ZM92.1534 76.2326C92.1818 78.157 92.9662 79.9931 94.3371 81.3439C95.7081 82.6948 97.5555 83.452 99.4802 83.452C101.405 83.452 103.252 82.6946 104.623 81.3437C105.994 79.9928 106.778 78.1567 106.807 76.2323V60.8745H92.1534V76.2326ZM72.2148 76.2326C72.2432 78.1567 73.0275 79.9924 74.3982 81.343C75.7689 82.6936 77.6159 83.4507 79.5403 83.4507C81.4646 83.4506 83.3116 82.6935 84.6823 81.3428C86.0529 79.9921 86.8371 78.1564 86.8654 76.2323V60.8745H72.2148V76.2326ZM52.2736 76.2326C52.302 78.157 53.0864 79.9931 54.4573 81.3439C55.8283 82.6948 57.6757 83.452 59.6004 83.452C61.525 83.452 63.3724 82.6946 64.7433 81.3437C66.1142 79.9928 66.8985 78.1567 66.9268 76.2323V60.8745H52.2736V76.2326ZM32.335 76.2326C32.3629 78.157 33.1469 79.9932 34.5177 81.3442C35.8885 82.6952 37.7358 83.4525 39.6604 83.4525C41.5851 83.4525 43.4324 82.695 44.8031 81.344C46.1738 79.9929 46.9578 78.1567 46.9856 76.2323V60.8745H32.335L32.335 76.2326ZM12.3963 76.2326C12.4242 78.157 13.2083 79.9932 14.5791 81.3442C15.9498 82.6952 17.7972 83.4525 19.7218 83.4525C21.6464 83.4525 23.4937 82.695 24.8645 81.344C26.2352 79.9929 27.0191 78.1567 27.0469 76.2323V60.8745H12.3964L12.3963 76.2326ZM149.328 55.5865C149.859 55.6891 150.405 55.6759 150.93 55.5479C151.455 55.4198 151.947 55.1799 152.371 54.8446C152.794 54.5092 153.141 54.0862 153.386 53.6046C153.632 53.123 153.77 52.5941 153.792 52.0541V34.7596C153.783 33.8149 153.399 32.9124 152.726 32.2502C152.052 31.588 151.143 31.2201 150.198 31.2272H141.786C141.051 35.3168 138.907 39.02 135.727 41.6938C132.546 44.3677 128.53 45.8433 124.375 45.8645H34.7002C30.5347 45.8839 26.4979 44.4227 23.3099 41.7418C20.1218 39.0608 17.9899 35.3344 17.2946 31.2274H8.88223C7.9375 31.2203 7.02851 31.5882 6.35471 32.2504C5.6809 32.9126 5.29729 33.8151 5.28805 34.7598V52.0544C5.29729 52.9991 5.6809 53.9015 6.35471 54.5638C7.02851 55.226 7.9375 55.5939 8.88223 55.5868L149.328 55.5865ZM32.503 40.3885C33.226 40.5272 33.9615 40.5904 34.6975 40.577H124.38C127.633 40.5496 130.744 39.238 133.035 36.9278C135.325 34.6175 136.61 31.4957 136.61 28.2424C136.61 24.989 135.324 21.8675 133.033 19.5578C130.741 17.2481 127.63 15.9372 124.377 15.9107H34.7002C31.6391 15.9437 28.6993 17.1125 26.4511 19.1904C24.2029 21.2682 22.8066 24.107 22.5329 27.156C22.2592 30.2051 23.1276 33.2471 24.9698 35.6921C26.812 38.1371 29.4967 39.8108 32.503 40.3885ZM121.713 31.2274H37.3675C36.6754 31.2136 36.0163 30.9289 35.5318 30.4346C35.0472 29.9402 34.7758 29.2756 34.7758 28.5834C34.7758 27.8912 35.0472 27.2265 35.5318 26.7322C36.0163 26.2378 36.6754 25.9532 37.3675 25.9394H121.713C122.405 25.9532 123.064 26.2378 123.549 26.7322C124.033 27.2265 124.305 27.8912 124.305 28.5834C124.305 29.2756 124.033 29.9402 123.549 30.4346C123.064 30.9289 122.405 31.2136 121.713 31.2274Z" fill="currentColor"/>
</svg>