<svg xmlns="http://www.w3.org/2000/svg" width="240" height="150" viewBox="0 0 240 150" fill="none">
  <path d="M34.4824 110.487H14.8516V115.52H34.4824V110.487Z" fill="currentColor"/>
  <path d="M34.4824 103.691H14.8516V108.725H34.4824V103.691Z" fill="currentColor"/>
  <path d="M34.4824 96.896H14.8516V101.93H34.4824V96.896Z" fill="currentColor"/>
  <path d="M174.666 1.51001H110.488V47.3154H174.666V1.51001ZM169.633 6.54357V22.3993L154.28 9.81538L137.921 24.161L128.106 14.0939L115.522 26.1744V6.29189H169.633V6.54357ZM138.173 31.7114H116.78L127.602 21.1409L138.173 31.7114ZM145.471 31.7114L141.445 27.6845L154.532 16.359L169.633 28.9429V31.963H145.471V31.7114ZM115.522 42.2818V36.7449H169.633V42.2818H115.522Z" fill="currentColor"/>
  <path d="M225.755 144.966V101.678H214.178C214.43 97.3993 215.688 86.8289 222.232 80.5369C226.007 77.0134 231.292 75.5034 237.584 76.0067L238.087 70.9732C230.285 70.2181 223.742 72.2315 218.96 77.0134C217.45 78.5235 216.191 80.0336 215.185 81.7953C216.443 73.9933 218.708 66.1913 223.238 61.1577C226.258 57.6342 230.034 56.1242 234.815 56.1242V51.0906C228.775 51.0906 223.49 53.3557 219.463 57.8859C214.933 62.6678 212.416 69.7148 210.906 77.0134C210.151 61.6611 207.634 46.8121 200.587 41.2752L197.567 45.302C202.601 49.3289 205.369 60.6544 206.124 79.5302C202.349 67.198 194.799 55.1175 179.195 56.3758L179.698 61.4094C185.235 60.906 200.336 59.6477 205.369 101.174C205.369 101.426 205.369 101.426 205.369 101.678H197.819V145.218H171.393V139.681H176.426C183.725 139.681 189.765 134.396 189.765 128.104V100.419C189.765 94.8826 184.48 90.604 177.936 90.604H171.644C169.128 90.604 166.611 91.3591 164.849 92.3658V80.7886C164.849 71.4765 157.299 63.9262 147.735 63.9262H91.3591C82.047 63.9262 74.245 71.4765 74.245 80.7886V92.3658C72.2316 91.1074 69.9664 90.604 67.4497 90.604H61.1577C54.6141 90.604 49.3289 95.1342 49.3289 100.419V128.104C49.3289 134.396 55.3691 139.681 62.6678 139.681H67.7013V145.218H40.7718V4.99999C40.7718 2.23857 38.5332 0 35.7718 0H7.2651C4.50368 0 2.2651 2.23858 2.2651 5V144.966C1.01412 144.966 0 145.981 0 147.232V147.483C0 148.873 1.1268 150 2.51678 150H236.577C237.967 150 239.094 148.873 239.094 147.483C239.094 146.093 237.967 144.966 236.577 144.966H225.755ZM35.7383 144.463H34.7315V127.097H29.698V144.463H27.6846V127.097H22.651V144.463H20.6376V125.084H15.604V144.463H13.8423V127.097H8.80873V144.463H7.29866V121.812H35.7383V144.463ZM35.7383 116.779H13.0872V97.3993H8.05369V116.779H7.29866V92.8691H35.7383V116.779ZM35.7383 87.8356H34.7315V68.4564H29.698V87.8356H27.6846V66.6946H22.651V87.8356H20.6376V68.4564H15.604V87.8356H13.8423V68.4564H8.80873V87.8356H7.29866V64.1778H35.7383V87.8356ZM13.3389 59.1443L21.3926 40.7718V59.1443H13.3389ZM35.7383 59.1443H33.7248V39.0101H28.6913V59.1443H26.4262V39.0101H21.3926V40.5201L16.8624 38.5067L8.05369 58.8926L8.80873 59.1443H7.29866V35.2349H35.7383V59.1443ZM35.7383 30.2013H23.1544C24.1611 28.1879 28.1879 21.6443 33.4732 20.8893L32.7181 15.8557C29.1946 16.3591 26.1745 18.3725 23.9094 20.6376C24.4128 18.8758 25.4195 17.1141 26.6779 15.8557L23.1544 12.3322C21.1409 14.094 20.1342 16.6107 19.1275 19.1275C15.8557 13.3389 11.5772 10.0671 11.3255 9.81544L8.30537 13.8423C8.30537 13.8423 16.3591 20.3859 17.8691 30.2013H7.29866V6.29195H35.7383V30.2013ZM136.158 68.9597H147.735C154.279 68.9597 159.815 74.245 159.815 80.7886V100.168V107.466H136.158V68.9597ZM107.97 68.9597H131.124V107.718H107.97V68.9597ZM79.2785 100.168V80.7886C79.2785 74.245 84.5638 68.9597 91.3591 68.9597H102.936V107.718H79.2785V100.168ZM62.6678 134.396C58.1376 134.396 54.3624 131.376 54.3624 127.852V119.295V100.168C54.3624 97.651 57.6342 95.3859 61.1577 95.3859H67.4497C71.2248 95.3859 74.245 97.651 74.245 100.168V112.5H164.597V100.168C164.597 97.651 167.869 95.3859 171.393 95.3859H177.685C181.46 95.3859 184.48 97.651 184.48 100.168V127.852C184.48 131.376 180.705 134.396 176.175 134.396H62.6678ZM166.359 144.966H72.7349V139.43H166.107V144.966H166.359ZM220.721 144.715H202.349V106.711H220.721V144.715Z" fill="currentColor"/>
</svg>