<svg xmlns="http://www.w3.org/2000/svg" viewBox="0 0 197 150" fill="none">
  <path d="M196.884 147.415V147.378C196.884 145.95 195.728 144.793 194.299 144.793H184.373V76.3219H190.563C191.992 76.3219 193.148 75.1644 193.148 73.7369V58.8491C193.148 57.4216 191.992 56.2642 190.563 56.2642H184.373V29.9598H190.563C191.992 29.9598 193.148 28.8023 193.148 27.3748V12.4883C193.148 11.0607 191.992 9.90328 190.563 9.90328H85.5196V2.585C85.5196 1.15744 84.3634 0 82.9346 0H9.22421C7.79539 0 6.63921 1.15744 6.63921 2.585V144.793H2.585C1.15618 144.793 0 145.95 0 147.378V147.415C0 148.843 1.15618 150 2.585 150H194.299C195.728 150 196.884 148.843 196.884 147.415ZM85.5196 15.0733H187.978V24.7897H85.5196V15.0733ZM85.5196 29.9598H179.203V56.2642H167.997V41.7525C167.997 40.325 166.841 39.1675 165.412 39.1675H140.405C138.977 39.1675 137.82 40.325 137.82 41.7525V56.2642H126.615V41.7525C126.615 40.325 125.458 39.1675 124.03 39.1675H99.0227C97.5939 39.1675 96.4377 40.325 96.4377 41.7525V56.2642H85.5196V29.9598ZM162.827 44.3376V56.2642H142.99V44.3376H162.827ZM121.445 44.3376V56.2642H101.608V44.3376H121.445ZM85.5196 61.4342H187.978V71.1519H85.5196V61.4342ZM85.5196 76.3219H179.203V144.793H85.5196V76.3219ZM11.8092 5.17H80.3496V144.793H11.8092V5.17ZM191.714 144.83H5.17V149.963H191.714V144.83Z" fill="currentColor"/>
  <path d="M124.029 93.6912H99.0225C97.5937 93.6912 96.4375 94.8486 96.4375 96.2762V125.773C96.4375 127.2 97.5937 128.358 99.0225 128.358H124.029C125.458 128.358 126.614 127.2 126.614 125.773V96.2762C126.614 94.8486 125.458 93.6912 124.029 93.6912ZM121.444 123.188H101.608V98.8612H121.444V123.188Z" fill="currentColor"/>
  <path d="M165.414 93.6912H140.407C138.978 93.6912 137.822 94.8486 137.822 96.2762V125.773C137.822 127.2 138.978 128.358 140.407 128.358H165.414C166.843 128.358 167.999 127.2 167.999 125.773V96.2762C167.999 94.8486 166.843 93.6912 165.414 93.6912ZM162.829 123.188H142.992V98.8612H162.829V123.188Z" fill="currentColor"/>
  <path d="M40.4962 16.7307H27.5459C26.1171 16.7307 24.9609 17.8882 24.9609 19.3157V136.31C24.9609 137.737 26.1171 138.895 27.5459 138.895H40.4962C41.925 138.895 43.0812 137.737 43.0812 136.31V19.3157C43.0812 17.8882 41.925 16.7307 40.4962 16.7307ZM37.9112 133.725H30.1309V21.9007H37.9112V133.725Z" fill="currentColor"/>
  <path d="M64.6114 16.7307H51.6612C50.2324 16.7307 49.0762 17.8882 49.0762 19.3157V136.31C49.0762 137.737 50.2324 138.895 51.6612 138.895H64.6114C66.0402 138.895 67.1964 137.737 67.1964 136.31V19.3157C67.1964 17.8882 66.0402 16.7307 64.6114 16.7307ZM62.0264 133.725H54.2462V21.9007H62.0264V133.725Z" fill="currentColor"/>
</svg>