<svg xmlns="http://www.w3.org/2000/svg" viewBox="0 0 170 150" fill="none">
  <path d="M162.694 107.222H53.9959C52.4642 107.222 51.2109 105.969 51.2109 104.437V14.5376C51.2109 13.0058 52.4642 11.7526 53.9959 11.7526H162.694C164.226 11.7526 165.479 13.0058 165.479 14.5376V104.437C165.479 105.997 164.254 107.222 162.694 107.222ZM56.7809 101.652H159.909V17.3226H56.7809V101.652Z" fill="currentColor"/>
  <path d="M162.696 85.4993H100.869C99.3372 85.4993 98.084 84.2461 98.084 82.7143V36.2884C98.084 34.7567 99.3372 33.5034 100.869 33.5034H162.696C164.228 33.5034 165.481 34.7567 165.481 36.2884V82.7143C165.481 84.2461 164.256 85.4993 162.696 85.4993ZM103.654 79.9293H159.911V39.0734H103.654V79.9293Z" fill="currentColor"/>
  <path d="M131.787 85.4993C130.255 85.4993 129.002 84.2461 129.002 82.7143V36.2884C129.002 34.7567 130.255 33.5034 131.787 33.5034C133.319 33.5034 134.572 34.7567 134.572 36.2884V82.7143C134.572 84.2461 133.319 85.4993 131.787 85.4993Z" fill="currentColor"/>
  <path d="M162.696 62.2725H100.869C99.3372 62.2725 98.084 61.0193 98.084 59.4875C98.084 57.9558 99.3372 56.7025 100.869 56.7025H162.696C164.228 56.7025 165.481 57.9558 165.481 59.4875C165.481 61.0193 164.256 62.2725 162.696 62.2725Z" fill="currentColor"/>
  <path d="M13.703 150C12.1712 150 10.918 148.747 10.918 147.215V32.2503C10.918 30.7186 12.1712 29.4653 13.703 29.4653H54.0297C55.5615 29.4653 56.8147 30.7186 56.8147 32.2503C56.8147 33.7821 55.5615 35.0353 54.0297 35.0353H16.488V147.215C16.488 148.775 15.2347 150 13.703 150Z" fill="currentColor"/>
  <path d="M166.264 150H2.785C1.25325 150 0 148.747 0 147.215C0 145.683 1.25325 144.43 2.785 144.43H166.264C167.796 144.43 169.049 145.683 169.049 147.215C169.049 148.747 167.796 150 166.264 150Z" fill="currentColor"/>
  <path d="M141.474 131.313C139.943 131.313 138.689 130.059 138.689 128.528V104.465C138.689 102.934 139.943 101.68 141.474 101.68C143.006 101.68 144.259 102.934 144.259 104.465V128.528C144.259 130.059 143.006 131.313 141.474 131.313Z" fill="currentColor"/>
  <path d="M64.0819 107.222C62.5501 107.222 61.2969 105.969 61.2969 104.437V14.5376C61.2969 13.0058 62.5501 11.7526 64.0819 11.7526C65.6136 11.7526 66.8669 13.0058 66.8669 14.5376V104.437C66.8669 105.997 65.6415 107.222 64.0819 107.222Z" fill="currentColor"/>
  <path d="M74.16 107.222C72.6282 107.222 71.375 105.969 71.375 104.437V14.5376C71.375 13.0058 72.6282 11.7526 74.16 11.7526C75.6917 11.7526 76.945 13.0058 76.945 14.5376V104.437C76.945 105.997 75.7196 107.222 74.16 107.222Z" fill="currentColor"/>
  <path d="M30.8592 35.0353C29.3275 35.0353 28.0742 33.782 28.0742 32.2503V2.785C28.0742 1.25325 29.3275 0 30.8592 0H126.218C127.749 0 129.003 1.25325 129.003 2.785V14.5377C129.003 16.0694 127.749 17.3227 126.218 17.3227C124.686 17.3227 123.433 16.0694 123.433 14.5377V5.56999H33.6442V32.2503C33.6442 33.782 32.391 35.0353 30.8592 35.0353Z" fill="currentColor"/>
  <path d="M33.8385 150H13.703C12.1712 150 10.918 148.747 10.918 147.215V105.524C10.918 103.992 12.1712 102.739 13.703 102.739H33.8663C35.3981 102.739 36.6513 103.992 36.6513 105.524V147.215C36.6235 148.775 35.3981 150 33.8385 150ZM16.488 144.43H31.0813V108.309H16.488V144.43Z" fill="currentColor"/>
  <path d="M157.325 150C156.016 150 154.847 149.081 154.596 147.744C154.401 146.797 152.507 138.47 143.205 139.166C142.314 139.222 141.423 138.86 140.838 138.164C140.253 137.467 140.058 136.521 140.309 135.629C140.532 134.822 140.866 132.315 139.752 130.811C138.972 129.753 137.44 129.168 135.185 129.085C134.266 129.057 133.458 128.583 132.957 127.831C132.455 127.079 132.372 126.132 132.706 125.269C132.873 124.851 134.238 121.036 131.453 119.588C130.172 118.947 128.389 119.003 127.192 119.755C126.3 120.312 126.328 120.897 126.328 121.092C126.356 121.955 125.966 122.763 125.326 123.292C124.685 123.821 123.794 124.044 122.958 123.877C122.123 123.71 119.589 123.515 118.252 124.74C116.999 125.882 116.943 128.138 117.11 129.864C117.277 131.396 116.135 132.761 114.631 132.928C113.1 133.067 111.735 131.981 111.568 130.449C111.122 126.077 112.125 122.763 114.548 120.618C116.692 118.697 119.394 118.251 121.399 118.223C121.984 116.97 122.958 115.884 124.24 115.076C127.08 113.294 130.979 113.127 134.015 114.686C138.192 116.831 139 120.785 138.694 123.988C141.117 124.601 142.983 125.798 144.291 127.581C145.74 129.558 146.13 131.842 146.13 133.68C155.292 134.571 159.247 142.341 160.055 146.741C160.333 148.245 159.358 149.721 157.827 150C157.687 150 157.492 150 157.325 150Z" fill="currentColor"/>
  <path d="M100.592 150C99.2275 150 98.0299 148.997 97.835 147.605C97.7514 147.048 97.1666 142.091 100.23 138.331C101.26 137.05 103.071 135.546 106.023 134.905C107.61 130.616 112.261 125.213 122.343 126.829C123.847 127.079 124.905 128.5 124.654 130.004C124.404 131.508 123.011 132.566 121.48 132.315C112.373 130.867 111.092 137.105 110.98 137.83C110.785 139.111 109.699 140.085 108.418 140.169C106.636 140.28 105.382 140.809 104.575 141.812C103.266 143.4 103.266 145.962 103.377 146.825C103.572 148.329 102.514 149.749 100.982 149.944C100.843 150 100.704 150 100.592 150Z" fill="currentColor"/>
  <path d="M72.4064 150C70.9303 150 69.7049 148.858 69.6214 147.354C69.6214 147.104 69.3986 141.366 73.3811 137.189C75.637 134.85 78.7005 133.513 82.5159 133.179C83.2122 131.647 84.4933 129.614 86.777 128.11C89.4506 126.355 92.7647 125.743 96.608 126.3C97.917 124.935 100.256 123.097 103.571 122.679C107.664 122.206 111.953 123.988 116.242 128.082C117.356 129.14 117.384 130.895 116.326 132.009C115.267 133.123 113.513 133.151 112.399 132.092C109.447 129.28 106.634 127.915 104.295 128.166C101.621 128.472 100.061 130.783 100.061 130.811C99.4209 131.758 98.2512 132.259 97.1372 132.009C94.0458 131.34 91.595 131.591 89.8405 132.733C87.7796 134.098 87.2504 136.381 87.2504 136.381C86.9998 137.69 85.8579 138.637 84.5211 138.637C84.4376 138.637 84.3819 138.637 84.2983 138.637C81.2627 138.637 78.9511 139.417 77.4194 140.977C75.08 143.372 75.1635 147.02 75.1635 147.048C75.2192 148.58 74.0217 149.861 72.4899 149.944C72.4621 150 72.4342 150 72.4064 150Z" fill="currentColor"/>
</svg>