<svg xmlns="http://www.w3.org/2000/svg"  viewBox="0 0 150 150" fill="none">
  <path d="M144.91 131.32C144.97 130.883 145 130.442 145 130C145.005 127.791 144.276 125.644 142.93 123.893C141.583 122.143 139.693 120.889 137.557 120.328C135.421 119.766 133.159 119.929 131.126 120.791C129.092 121.653 127.402 123.165 126.32 125.09C124.685 124.88 123.024 125.079 121.484 125.669C119.945 126.259 118.576 127.221 117.5 128.47V22.65L120.148 22.5C120.785 22.4623 121.383 22.1824 121.821 21.7176C122.258 21.2528 122.501 20.6383 122.5 20V12.75L125.12 12.6222C126.502 12.5547 127.567 11.3789 127.498 9.99714C127.429 8.61756 126.255 7.55465 124.875 7.62211L115 8.105V2.5C115 1.83696 114.737 1.20107 114.268 0.732233C113.799 0.263392 113.163 0 112.5 0H37.5002C36.8372 0 36.2013 0.263392 35.7324 0.732233C35.2636 1.20107 35.0002 1.83696 35.0002 2.5V12L24.8777 12.5C24.2361 12.5315 23.6313 12.8087 23.1886 13.2742C22.746 13.7396 22.4994 14.3576 22.5002 15V123.455C21.171 121.913 19.4009 120.815 17.4286 120.31C15.4563 119.805 13.3765 119.916 11.4695 120.629C9.56248 121.342 7.91994 122.623 6.76322 124.299C5.60649 125.974 4.99119 127.964 5.00021 130C5.00007 130.442 5.03014 130.883 5.09021 131.32C3.16493 132.402 1.65296 134.092 0.791161 136.126C-0.0706357 138.159 -0.233576 140.421 0.327865 142.557C0.889305 144.693 2.14341 146.582 3.89372 147.929C5.64403 149.276 7.79167 150.004 10.0002 150H140C142.209 150.004 144.356 149.276 146.107 147.929C147.857 146.582 149.111 144.693 149.673 142.557C150.234 140.421 150.071 138.159 149.209 136.126C148.347 134.092 146.835 132.402 144.91 131.32ZM106.39 145H95.0002V127.5H100V122.5H50.0002V127.5H55.0002V145H43.6102C44.3989 143.675 44.8665 142.183 44.9755 140.645C45.0846 139.107 44.8322 137.564 44.2383 136.141C43.6445 134.718 42.7259 133.453 41.5559 132.448C40.3858 131.444 38.9969 130.727 37.5002 130.355V117.5H112.5V130.355C111.004 130.727 109.615 131.444 108.445 132.448C107.275 133.453 106.356 134.718 105.762 136.141C105.168 137.564 104.916 139.107 105.025 140.645C105.134 142.183 105.602 143.675 106.39 145ZM72.5002 127.5V135H67.5002V140H72.5002V145H60.0002V127.5H72.5002ZM77.5002 140H82.5002V135H77.5002V127.5H90.0002V145H77.5002V140ZM72.5002 72.5V90H57.5002V72.5H72.5002ZM57.5002 67.5V50H72.5002V67.5H57.5002ZM112.5 90H97.5002V72.5H112.5V90ZM92.5002 90H77.5002V72.5H92.5002V90ZM72.5002 95V112.5H57.5002V95H72.5002ZM77.5002 95H92.5002V112.5H77.5002V95ZM97.5002 95H112.5V112.5H97.5002V95ZM112.5 67.5H97.5002V50H112.5V67.5ZM92.5002 67.5H77.5002V50H92.5002V67.5ZM77.5002 45V25L92.5002 24.1175V45H77.5002ZM72.5002 45H57.5002V26.1825L72.5002 25.3V45ZM52.5002 45H37.5002V27.3575L52.5002 26.475V45ZM37.5002 50H52.5002V67.5H37.5002V50ZM37.5002 72.5H52.5002V90H37.5002V72.5ZM37.5002 95H52.5002V112.5H37.5002V95ZM112.5 45H97.5002V23.8275L112.5 22.945V45ZM40.0002 5H110V8.35L40.0002 11.765V5ZM117.5 13V17.6425L34.8527 22.5C34.2156 22.5377 33.6169 22.8176 33.1795 23.2824C32.7421 23.7472 32.4991 24.3617 32.5002 25V128.467C31.1788 126.957 29.4385 125.874 27.5002 125.355V17.38L117.5 13ZM10.0002 145C8.79027 145.002 7.62103 144.563 6.71052 143.766C5.8 142.97 5.21037 141.869 5.05156 140.669C4.89275 139.47 5.17561 138.254 5.8474 137.247C6.51918 136.241 7.53403 135.513 8.70271 135.2C9.04337 135.108 9.36058 134.944 9.63349 134.72C9.9064 134.496 10.1288 134.217 10.2861 133.901C10.4434 133.585 10.532 133.24 10.546 132.887C10.5601 132.534 10.4993 132.183 10.3677 131.855C10.1097 131.224 9.98397 130.547 9.99821 129.865C10.0124 129.184 10.1664 128.512 10.4505 127.893C10.7346 127.273 11.1429 126.718 11.65 126.263C12.1571 125.807 12.7523 125.461 13.3988 125.244C14.0452 125.028 14.7292 124.947 15.4083 125.005C16.0875 125.064 16.7474 125.261 17.3472 125.585C17.947 125.909 18.4739 126.353 18.8955 126.889C19.317 127.424 19.624 128.041 19.7977 128.7C19.8898 129.041 20.053 129.358 20.2767 129.631C20.5003 129.905 20.7793 130.127 21.0952 130.285C21.4101 130.445 21.7558 130.535 22.1087 130.549C22.4616 130.563 22.8134 130.501 23.1402 130.367C23.7938 130.112 24.4937 129.997 25.1947 130.029C25.8956 130.061 26.582 130.24 27.2095 130.554C27.837 130.868 28.3916 131.311 28.8374 131.853C29.2832 132.394 29.6104 133.024 29.7977 133.7C29.8898 134.041 30.053 134.358 30.2767 134.631C30.5003 134.905 30.7793 135.127 31.0952 135.285C31.4101 135.445 31.7558 135.535 32.1087 135.549C32.4616 135.563 32.8134 135.501 33.1402 135.367C33.8247 135.09 34.5622 134.967 35.2999 135.008C36.0375 135.049 36.7568 135.253 37.4061 135.605C38.0555 135.958 38.6187 136.449 39.0552 137.045C39.4918 137.641 39.7908 138.327 39.9309 139.052C40.0709 139.777 40.0485 140.525 39.8653 141.24C39.682 141.956 39.3424 142.622 38.8709 143.191C38.3994 143.76 37.8078 144.217 37.1385 144.53C36.4692 144.843 35.739 145.003 35.0002 145H10.0002ZM140 145H115C114.261 145.003 113.531 144.843 112.862 144.53C112.193 144.217 111.601 143.76 111.129 143.191C110.658 142.622 110.318 141.956 110.135 141.24C109.952 140.525 109.929 139.777 110.07 139.052C110.21 138.327 110.509 137.641 110.945 137.045C111.382 136.449 111.945 135.958 112.594 135.605C113.244 135.253 113.963 135.049 114.701 135.008C115.438 134.967 116.176 135.09 116.86 135.367C117.187 135.501 117.539 135.563 117.892 135.549C118.245 135.535 118.59 135.445 118.905 135.285C119.221 135.127 119.5 134.905 119.724 134.631C119.947 134.358 120.111 134.041 120.203 133.7C120.39 133.024 120.717 132.394 121.163 131.853C121.609 131.311 122.163 130.868 122.791 130.554C123.418 130.24 124.105 130.061 124.806 130.029C125.507 129.997 126.207 130.112 126.86 130.367C127.187 130.501 127.539 130.563 127.892 130.549C128.245 130.535 128.59 130.445 128.905 130.285C129.221 130.127 129.5 129.905 129.724 129.631C129.947 129.358 130.111 129.041 130.203 128.7C130.376 128.041 130.683 127.424 131.105 126.889C131.526 126.353 132.053 125.909 132.653 125.585C133.253 125.261 133.913 125.064 134.592 125.005C135.271 124.947 135.955 125.028 136.602 125.244C137.248 125.461 137.843 125.807 138.35 126.263C138.858 126.718 139.266 127.273 139.55 127.893C139.834 128.512 139.988 129.184 140.002 129.865C140.016 130.547 139.891 131.224 139.633 131.855C139.501 132.183 139.44 132.534 139.454 132.887C139.468 133.24 139.557 133.585 139.714 133.901C139.872 134.217 140.094 134.496 140.367 134.72C140.64 134.944 140.957 135.108 141.298 135.2C142.466 135.513 143.481 136.241 144.153 137.247C144.825 138.254 145.108 139.47 144.949 140.669C144.79 141.869 144.2 142.97 143.29 143.766C142.379 144.563 141.21 145.002 140 145Z" fill="currentColor"/>
</svg>