<svg xmlns="http://www.w3.org/2000/svg" viewBox="0 0 60 61" fill="none">
  <path d="M35.5441 11.2437L44.4503 5.47134L43.9044 16.0705L43.8759 16.6241L44.4295 16.5956L55.0287 16.0497L49.2563 24.9559L48.9549 25.4211L49.4485 25.6732L58.9006 30.5L49.4485 35.3268L48.9549 35.5789L49.2563 36.0441L55.0287 44.9503L44.4295 44.4044L43.8759 44.3759L43.9044 44.9295L44.4503 55.5287L35.5441 49.7563L35.0789 49.4549L34.8268 49.9485L30 59.4006L25.1732 49.9485L24.9211 49.4549L24.4559 49.7563L15.5497 55.5287L16.0956 44.9295L16.1241 44.3759L15.5705 44.4044L4.97134 44.9503L10.7437 36.0441L11.0451 35.5789L10.5515 35.3268L1.09939 30.5L10.5515 25.6732L11.0451 25.4211L10.7437 24.9559L4.97134 16.0497L15.5705 16.5956L16.1241 16.6241L16.0956 16.0705L15.5497 5.47134L24.4559 11.2437L24.9211 11.5451L25.1732 11.0515L30 1.59939L34.8268 11.0515L35.0789 11.5451L35.5441 11.2437Z" stroke="currentColor"/>
</svg>