<svg xmlns="http://www.w3.org/2000/svg"  viewBox="0 0 152 152" fill="none">
  <path d="M112.797 110.435H133.077C134.252 110.435 135.202 109.483 135.202 108.31V70.0188C135.202 68.8459 134.252 67.8938 133.077 67.8938H112.797C111.622 67.8938 110.672 68.8459 110.672 70.0188V108.31C110.672 109.485 111.622 110.435 112.797 110.435ZM114.922 72.1438H130.952V106.185H114.922V72.1438Z" fill="currentColor" stroke="currentColor" stroke-width="0.5"/>
  <path d="M18.5625 142.164H39.3113C40.4864 142.164 41.4363 141.212 41.4363 140.039V124.81C41.4363 123.637 40.4864 122.685 39.3113 122.685H18.5625C17.3874 122.685 16.4375 123.637 16.4375 124.81V140.039C16.4375 141.214 17.3876 142.164 18.5625 142.164ZM20.6875 126.937H37.1863V137.916H20.6875V126.937Z" fill="currentColor" stroke="currentColor" stroke-width="0.5"/>
  <path d="M46.4531 142.164H67.2038C68.3789 142.164 69.3288 141.212 69.3288 140.039V124.81C69.3288 123.637 68.3789 122.685 67.2038 122.685H46.4531C45.278 122.685 44.3281 123.637 44.3281 124.81V140.039C44.3281 141.214 45.2782 142.164 46.4531 142.164ZM48.5781 126.937H65.0788V137.916H48.5781V126.937Z" fill="currentColor" stroke="currentColor" stroke-width="0.5"/>
  <path d="M74.1543 142.164H94.9049C96.08 142.164 97.0299 141.212 97.0299 140.039V124.81C97.0299 123.637 96.08 122.685 94.9049 122.685H74.1543C72.9792 122.685 72.0293 123.637 72.0293 124.81V140.039C72.0293 141.214 72.9794 142.164 74.1543 142.164ZM76.2793 126.937H92.7799V137.916H76.2793V126.937Z" fill="currentColor" stroke="currentColor" stroke-width="0.5"/>
  <path d="M0.750003 15.4223C0.748002 16.5976 1.69834 17.5475 2.87313 17.5475H7.6425V39.7919V60.4225V115.724V149.125C7.6425 150.298 8.59239 151.25 9.7675 151.25H103.709H142.174H142.231C143.406 151.25 144.356 150.298 144.356 149.125V17.5475H149.125C150.3 17.5475 151.25 16.5954 151.25 15.4225V2.875C151.25 1.70209 150.3 0.75 149.125 0.75H2.875C1.69989 0.75 0.750003 1.70209 0.750003 2.875V15.4223ZM0.750003 15.4223C0.750003 15.4222 0.750003 15.4221 0.750004 15.422L1 15.4225H0.750003V15.4223ZM101.582 147H11.8925V117.851H101.584L101.582 147ZM101.582 113.601H11.8925V62.5475H101.584L101.582 113.601ZM101.582 58.2975H11.8925V41.9169H101.584L101.582 58.2975ZM140.048 147H105.832V115.726V62.5475H140.048V147ZM140.048 58.2975H105.832V41.9169H140.048V58.2975ZM140.104 37.6669H103.707H11.8925V17.5475H140.104V37.6669ZM4.99813 5H146.998V13.2975H142.229H9.7675H4.99813V5Z" fill="currentColor" stroke="currentColor" stroke-width="0.5"/>
  <path d="M113.141 118.049C114.393 118.049 115.394 117.001 115.394 115.726C115.394 114.451 114.393 113.402 113.141 113.402C111.889 113.402 110.889 114.451 110.889 115.726C110.889 117.001 111.889 118.049 113.141 118.049Z" fill="currentColor" stroke="currentColor" stroke-width="0.5"/>
  <path d="M28.7971 103.098L28.7972 103.098C29.6111 103.942 29.5877 105.287 28.7447 106.103C28.7445 106.103 28.7444 106.103 28.7443 106.103L28.5704 105.923C28.2086 106.276 27.7379 106.45 27.2692 106.45C26.7779 106.45 26.2867 106.259 25.9192 105.878L28.7971 103.098ZM28.7971 103.098L21.7041 95.7541C20.8901 94.9103 19.541 94.8867 18.699 95.703C17.8557 96.5189 17.8322 97.8637 18.6462 98.7075L18.6462 98.7076L25.7393 106.052L28.7971 103.098Z" fill="currentColor" stroke="currentColor" stroke-width="0.5"/>
  <path d="M37.6095 101.741L37.6096 101.741C38.4235 102.584 38.4 103.929 37.557 104.745M37.6095 101.741L37.3828 104.566M37.6095 101.741L23.3407 86.9656L23.3406 86.9655C22.5251 86.1223 21.176 86.0981 20.3356 86.9148C19.4924 87.7307 19.469 89.0755 20.2829 89.9191L20.283 89.9192L34.5517 104.694L37.6095 101.741ZM37.557 104.745C37.5569 104.745 37.5567 104.745 37.5566 104.745L37.3828 104.566M37.557 104.745C37.5571 104.745 37.5572 104.745 37.5572 104.745L37.3828 104.566M37.557 104.745C37.1461 105.145 36.612 105.342 36.0815 105.342C35.5256 105.342 34.9685 105.126 34.5517 104.694L34.7315 104.521C35.099 104.901 35.5903 105.092 36.0815 105.092C36.5503 105.092 37.0209 104.918 37.3828 104.566" fill="currentColor" stroke="currentColor" stroke-width="0.5"/>
</svg>