<svg width="202" height="125" viewBox="0 0 202 125" fill="none" xmlns="http://www.w3.org/2000/svg">
<path d="M0 0H12.4459C22.9416 0 26.9741 4.89564 26.9741 13.7559V15.9767C26.9741 24.5486 23.9964 27.0214 21.3469 28.1181C24.0511 29.1922 28.0949 31.447 28.0949 40.2392V44.8192C28.0949 55.0351 23.821 60.4189 13.2706 60.4189H0V0ZM11.3911 24.6008C16.6173 24.6008 18.1824 22.9909 18.1824 17.0008V14.6415C18.1824 9.62779 16.394 7.69315 11.9219 7.69315H9.02857V24.6008H11.3911ZM9.02857 52.8052H12.1497C17.5468 52.8052 18.8932 50.4278 18.8932 44.5807V40.557C18.8932 34.6646 17.3942 32.135 11.4389 32.135H9.03084V52.8052H9.02857Z" fill="#F0EFEF"/>
<path d="M30.8972 0H40.247V52.09H59.5799V60.4212H30.8972V0Z" fill="#F0EFEF"/>
<path d="M72.9006 0V60.4189H63.5508V0H72.9006Z" fill="#F0EFEF"/>
<path d="M77.3591 60.4189V0H88.1852C90.6024 8.52649 97.8357 38.3499 98.4782 41.5516H98.5807C98.1478 34.1219 98.1273 25.6181 98.1273 15.6906V0H106.757V60.4189H96.3412C94.4298 53.2003 86.3604 20.0639 85.7544 17.5253H85.6632C86.1052 24.8415 86.0687 33.0319 86.0687 43.895V60.4189H77.3591Z" fill="#F0EFEF"/>
<path d="M111.218 0H124.186C137.046 0 140.172 6.64181 140.172 17.8545V41.0225C140.172 50.2598 138.582 60.4189 124.167 60.4189H111.218V0ZM120.568 52.4873H123.566C129.71 52.4873 130.653 48.5431 130.653 42.2896V17.1211C130.653 11.5647 129.669 8.01332 123.507 8.01332H120.568V52.4896V52.4873Z" fill="#F0EFEF"/>
<path d="M167.308 32.8208H153.982V51.8515H171.372V60.4212H144.633V0H168.044V8.64911H153.982V24.2511H167.308V32.8208Z" fill="#F0EFEF"/>
<path d="M0 63.6955H12.4459C22.9416 63.6955 26.9741 68.5912 26.9741 77.4514V79.6722C26.9741 88.2441 23.9964 90.7169 21.3469 91.8137C24.0511 92.8877 28.0949 95.1425 28.0949 103.935V108.515C28.0949 118.731 23.821 124.114 13.2706 124.114H0V63.6955ZM11.3911 88.2963C16.6173 88.2963 18.1824 86.6864 18.1824 80.6963V78.337C18.1824 73.3233 16.394 71.3887 11.9219 71.3887H9.02857V88.2963H11.3911ZM9.02857 116.501H12.1497C17.5468 116.501 18.8932 114.123 18.8932 108.276V104.253C18.8932 98.3601 17.3942 95.8305 11.4389 95.8305H9.03084V116.501H9.02857Z" fill="#F0EFEF"/>
<path d="M40.247 63.6955V109.655C40.247 114.069 41.696 116.578 45.3138 116.578C48.9316 116.578 50.221 113.755 50.221 109.666V63.6978H59.5799V109.475C59.5799 119.008 55.2559 125 45.1429 125C35.0299 125 30.8972 119.805 30.8972 109.507V63.6978H40.247V63.6955Z" fill="#F0EFEF"/>
<path d="M72.9006 97.0953V124.114H63.5508V63.6955H76.5002C85.7246 63.6955 91.1696 67.3786 91.1696 78.2553V80.5555C91.1696 89.8404 87.3467 92.2019 84.9979 93.1602C88.5337 94.8133 90.8324 97.3542 90.8324 105.551V124.114H81.7628V106.151C81.7628 98.7847 80.4939 97.0953 75.0672 97.0953H72.8983H72.9006ZM72.9006 89.4022H75.0444C79.9904 89.4022 81.8107 87.5425 81.8107 80.9733V78.9002C81.8107 74.2293 80.8424 71.3864 75.5433 71.3864H72.9006V89.4022Z" fill="#F0EFEF"/>
<path d="M183.344 33.4021V60.4212H173.994V0H186.944C196.168 0 201.613 3.68308 201.613 14.5598V16.86C201.613 26.1449 197.79 28.5064 195.441 29.4647C198.977 31.1177 201.276 33.6586 201.276 41.8559V60.4189H192.206V42.4554C192.206 35.0892 190.937 33.3998 185.511 33.3998H183.342L183.344 33.4021ZM183.344 25.7089H185.488C190.434 25.7089 192.254 23.8492 192.254 17.2801V15.2069C192.254 10.5361 191.286 7.69315 185.987 7.69315H183.344V25.7089Z" fill="#F0EFEF"/>
<path d="M117.504 96.514H104.178V115.545H119.536L118.351 124.114H94.8262V63.6955H118.237V72.3446H104.176V87.9466H117.501V96.5163L117.504 96.514Z" fill="#F0EFEF"/>
<path d="M133.244 107.952L131.12 124.114H121.611L131.376 63.6955H144.585L154.723 124.114H144.951L142.566 107.952H133.241H133.244ZM141.463 99.3819C140.078 89.1206 138.752 79.3815 138.06 72.549H137.718C137.456 77.5264 135.636 90.4649 134.426 99.3819H141.463Z" fill="#F0EFEF"/>
<path d="M164.072 63.6955V109.655C164.072 114.069 165.521 116.578 169.139 116.578C172.757 116.578 174.046 113.755 174.046 109.666V63.6978H183.405V109.475C183.405 119.008 179.081 125 168.968 125C158.855 125 154.723 119.805 154.723 109.507V63.6978H164.072V63.6955Z" fill="#F0EFEF"/>
<path d="M201.613 115.683H193.154V124.114H201.613V115.683Z" fill="#F0EFEF"/>
</svg>
