<svg width="162" height="150" viewBox="0 0 162 150" fill="none" xmlns="http://www.w3.org/2000/svg">
<path d="M115.427 107.381C116.314 107.381 117.031 106.664 117.031 105.778V94.8587C117.031 93.9718 116.314 93.2549 115.427 93.2549C114.54 93.2549 113.823 93.9718 113.823 94.8587V105.778C113.823 106.664 114.542 107.381 115.427 107.381Z" fill="#5E5E5E"/>
<path d="M128.668 90.421C128.915 90.5638 129.193 90.636 129.47 90.636C129.748 90.636 130.025 90.5638 130.272 90.421L152.491 77.5936C152.989 77.3065 153.293 76.7773 153.293 76.2047V63.2265C153.293 62.654 152.989 62.1231 152.491 61.8376C151.996 61.5505 151.383 61.5505 150.888 61.8376L128.668 74.665C128.171 74.9521 127.866 75.4814 127.866 76.054L127.868 89.0321C127.866 89.6047 128.173 90.134 128.668 90.421ZM150.086 66.0044V75.2793L131.074 86.2559L131.072 76.981L150.086 66.0044Z" fill="#5E5E5E"/>
<path d="M160.901 105.361C160.909 105.293 160.94 105.234 160.94 105.165V100.116C160.986 99.9622 161.019 99.8066 161.019 99.6414L161.017 48.9412C161.017 48.3686 160.712 47.8378 160.215 47.5523C160.066 47.4657 159.907 47.4144 159.742 47.3807L78.0301 0.204087C77.9932 0.181634 77.9499 0.173614 77.9114 0.154368C77.8681 0.133519 77.8264 0.11748 77.7815 0.0998383C77.4222 -0.0332794 77.0341 -0.0332794 76.6764 0.0998383C76.6315 0.115877 76.5898 0.133519 76.5465 0.152765C76.508 0.172011 76.4647 0.18003 76.4278 0.202483L39.0298 21.7932C38.7603 21.9488 38.5534 22.1781 38.4155 22.446C38.2615 22.6946 38.1717 22.9833 38.1717 23.2864L38.1701 72.9922L1.43766 94.2012C1.31737 94.2702 1.20831 94.3568 1.11208 94.4514C1.11208 94.4514 1.10727 94.4546 1.10406 94.4578C0.97415 94.5877 0.87792 94.7433 0.80254 94.9069C0.781691 94.9486 0.765652 94.9919 0.74801 95.0352C0.682253 95.2116 0.635742 95.3961 0.635742 95.5901V100.992C0.635742 101.059 0.666215 101.117 0.674234 101.183C0.688669 101.295 0.703103 101.404 0.739991 101.51C0.773671 101.608 0.820182 101.691 0.871505 101.779C0.922827 101.869 0.972546 101.953 1.03991 102.031C1.11368 102.116 1.19869 102.182 1.2869 102.249C1.33982 102.289 1.37671 102.347 1.43605 102.381L83.5424 149.787C83.5793 149.809 83.6226 149.817 83.6595 149.835C83.7028 149.856 83.7477 149.872 83.7926 149.889C83.9706 149.955 84.1567 150 84.3443 150C84.532 150 84.7148 149.955 84.8944 149.889C84.9409 149.872 84.9859 149.856 85.0308 149.833C85.0676 149.816 85.1094 149.806 85.1446 149.787L160.136 106.554C160.194 106.52 160.229 106.466 160.282 106.427C160.374 106.358 160.459 106.291 160.534 106.203C160.602 106.126 160.65 106.044 160.701 105.957C160.754 105.867 160.802 105.782 160.836 105.681C160.873 105.576 160.887 105.47 160.901 105.361ZM3.8434 98.368L82.7421 143.918V145.62L3.8434 100.066V98.368ZM85.9498 143.92L122.289 122.94C122.426 122.905 122.557 122.85 122.682 122.778C122.817 122.7 122.934 122.602 123.04 122.491L157.732 102.466V104.238L85.9498 145.622V143.92ZM157.811 98.716L123.486 118.533L123.487 86.7017V86.6985V71.5488L157.809 51.7319L157.811 98.716ZM120.142 118.533L106.875 110.873L106.878 79.8919L120.142 87.5486V118.533ZM120.14 71.5343V83.8421L106.075 75.7219C105.579 75.4348 104.966 75.4348 104.471 75.7219C103.974 76.009 103.669 76.5383 103.669 77.1108L103.666 109.021L96.4003 104.827V64.8752C96.4003 64.3027 96.0956 63.7718 95.5984 63.4863L80.6764 54.8722L65.7576 46.2596L50.8388 37.6454C50.3432 37.3584 49.7305 37.3584 49.2349 37.6454C48.7377 37.9325 48.433 38.4618 48.433 39.0344V77.1349L41.3778 73.0612L41.3794 26.0642L120.14 71.5343ZM66.5595 50.4264L78.2706 57.1865V94.3584L66.7102 87.6849L66.5595 87.5983V50.4264ZM63.3518 85.7458L51.6407 78.9857V41.8122L63.3518 48.5739V85.7458ZM81.4783 96.2124V59.0389L93.1926 65.8006V102.973L83.605 97.4394L81.4783 96.2124ZM152.802 50.9059L78.832 8.19917V4.37083L156.117 48.9909L152.802 50.9059ZM77.2281 10.977L149.593 52.7583L121.93 68.7292L49.5653 26.9495L77.2281 10.977ZM75.6243 4.37083V8.19917L46.3577 25.0987L43.041 23.1837L75.6243 4.37083ZM39.6344 75.8518L118.535 121.404L84.3459 141.142L5.44723 95.5901L39.6344 75.8518Z" fill="#5E5E5E"/>
</svg>
