<svg width="156" height="120" viewBox="0 0 156 120" fill="none" xmlns="http://www.w3.org/2000/svg">
<path d="M37.3299 71.4513L23.2331 63.3111C22.7532 63.033 22.1599 63.033 21.6799 63.3111C21.1984 63.5891 20.9033 64.1016 20.9033 64.6561V79.02C20.9033 79.5745 21.1984 80.0886 21.6799 80.3651L35.7767 88.5038C36.0159 88.6421 36.2846 88.712 36.5533 88.712C36.822 88.712 37.0907 88.6421 37.3299 88.5038C37.8114 88.2258 38.1065 87.7132 38.1065 87.1588V72.7964C38.1065 72.2419 37.8114 71.7294 37.3299 71.4513ZM35.0001 77.2882L31.0596 75.0128V71.4187L35.0001 73.6941V77.2882ZM27.9533 69.6232V73.2173L24.0097 70.9403V67.3462L27.9533 69.6232ZM24.0097 74.5282L27.9533 76.8052V80.3993L24.0097 78.1223V74.5282ZM31.0596 82.1932V78.6007L35.0001 80.8761V84.4686L31.0596 82.1932Z" fill="#5E5E5E"/>
<path d="M155.318 58.2327C155.316 58.0494 155.274 57.877 155.212 57.7092C155.195 57.6657 155.179 57.6254 155.161 57.5834C155.086 57.4234 154.993 57.2743 154.869 57.1501C154.863 57.1439 154.853 57.1392 154.845 57.133C154.758 57.0476 154.662 56.9684 154.553 56.9047L144.069 50.7478V47.935V39.8382V28.2856C144.069 28.0976 144.024 27.9206 143.962 27.7497C143.945 27.7062 143.93 27.6658 143.911 27.6255C143.835 27.4655 143.743 27.3148 143.617 27.189C143.616 27.1875 143.614 27.1875 143.613 27.1859C143.518 27.0912 143.412 27.0088 143.294 26.9405L96.9766 0.197643C96.9409 0.175898 96.899 0.168132 96.8617 0.149494C96.8213 0.129302 96.7794 0.113771 96.7359 0.0966862C96.388 -0.0322287 96.0121 -0.0322287 95.6657 0.0966862C95.6223 0.112218 95.5803 0.129303 95.5399 0.147942C95.5027 0.16658 95.4607 0.174345 95.425 0.196089L13.7318 47.3603C13.6137 47.4287 13.5066 47.511 13.4134 47.6057C13.4118 47.6057 13.4103 47.6073 13.4087 47.6088C13.2829 47.7346 13.1897 47.8853 13.1152 48.0453C13.095 48.0857 13.081 48.126 13.0639 48.1695C13.0018 48.3404 12.9567 48.519 12.9567 48.7069V70.6955L0.776596 77.7268C0.660106 77.7936 0.554489 77.8774 0.461298 77.9691C0.459745 77.9706 0.456638 77.9722 0.453532 77.9753C0.327723 78.1011 0.234532 78.2517 0.161532 78.4102C0.14134 78.4506 0.125809 78.4925 0.108723 78.5344C0.0450426 78.7068 0 78.8839 0 79.0718V84.9243C0 84.9895 0.0295106 85.0454 0.0372766 85.1091C0.0512553 85.2178 0.0652341 85.3234 0.100957 85.4259C0.133574 85.5207 0.178617 85.6015 0.228319 85.6869C0.278021 85.7739 0.32617 85.8546 0.391404 85.9307C0.462851 86.013 0.54517 86.0767 0.630596 86.142C0.681851 86.1808 0.717575 86.2367 0.775043 86.2693L58.8458 119.793C58.8815 119.815 58.9234 119.823 58.9607 119.84C59.0011 119.86 59.0446 119.876 59.0881 119.893C59.2605 119.957 59.4407 120 59.6224 120C59.8041 120 59.9827 119.957 60.1567 119.893C60.2002 119.876 60.2436 119.86 60.2856 119.84C60.3213 119.821 60.3632 119.814 60.399 119.793L154.543 65.441C154.6 65.4084 154.636 65.3525 154.687 65.3137C154.774 65.2484 154.855 65.1847 154.926 65.1024C154.991 65.0263 155.04 64.944 155.089 64.8601C155.139 64.7731 155.186 64.6924 155.217 64.5976C155.252 64.4951 155.266 64.3895 155.28 64.2808C155.29 64.2171 155.319 64.1612 155.319 64.096V58.2435C155.319 58.2404 155.318 58.2373 155.318 58.2327ZM3.10638 81.7635L58.0692 113.494V115.76L3.10638 84.0281V81.7635ZM61.1756 113.492L152.213 60.9337V63.1982L61.1756 115.758V113.492ZM96.7204 74.7804V47.8216C98.4739 48.0872 100.29 48.2394 102.147 48.2394C103.357 48.2394 104.55 48.168 105.724 48.0546V75.032C102.736 75.355 99.6435 75.2727 96.7204 74.7804ZM55.1849 86.3128L55.188 76.9191L63.4215 72.1648V81.5569L55.1849 86.3128ZM66.5279 79.7646V70.374L74.7629 65.6181L74.7613 75.0102L66.5279 79.7646ZM77.0927 61.5813C76.6127 61.3033 76.0194 61.3033 75.5395 61.5813L52.8582 74.6779C52.3767 74.9559 52.0816 75.4684 52.0816 76.0229L52.0785 88.1083L44.4741 92.4992V66.0064L83.1905 43.6528V70.1441L77.8677 73.2179L77.8693 62.928C77.8693 62.3719 77.5726 61.8594 77.0927 61.5813ZM16.0616 77.8899V51.3971L41.3677 66.0064V92.4992L16.0616 77.8899ZM96.2 8.96541L134.536 31.0984L115.899 41.8589C112.243 43.9697 107.361 45.1315 102.149 45.1315C96.9953 45.1315 92.1804 43.9914 88.5925 41.9195C87.5534 41.3184 86.6215 40.621 85.8247 39.8475C85.6911 39.7186 85.5374 39.6208 85.3758 39.5493C85.3292 39.5291 85.278 39.5229 85.2298 39.5074C85.0963 39.4623 84.9627 39.4328 84.8229 39.4251C84.795 39.4235 84.7717 39.408 84.7421 39.408C84.7018 39.408 84.666 39.4282 84.6257 39.4313C84.5014 39.4406 84.3818 39.4654 84.2607 39.5043C84.1939 39.5276 84.1302 39.5462 84.0665 39.5773C84.0339 39.5928 83.9982 39.5975 83.9671 39.6145L42.9209 63.3178L22.4902 51.5213L96.2 8.96541ZM86.2969 44.139C86.5423 44.2974 86.783 44.4621 87.0393 44.6112C88.9684 45.7248 91.2003 46.5899 93.6155 47.2019V74.0706C91.8029 73.5518 90.0991 72.8684 88.5941 71.9986C87.7445 71.5062 86.9896 70.9362 86.2969 70.3274V44.139ZM108.831 47.615C111.081 47.1895 113.2 46.5433 115.121 45.7031V72.3419C113.231 73.3235 111.095 74.055 108.831 74.5319V47.615ZM118.227 44.1017L140.963 30.9741V38.9389L126.608 47.2267C126.127 47.5048 125.832 48.0173 125.832 48.5718V56.667C125.832 57.2215 126.127 57.7356 126.608 58.0121C126.848 58.1503 127.116 58.2202 127.385 58.2202C127.654 58.2202 127.922 58.1519 128.162 58.0121L140.963 50.622V57.4623L118.227 70.5899V44.1017ZM140.963 47.0373L128.938 53.9785V49.4695L140.963 42.5268V47.0373ZM137.641 29.3045L97.7532 6.27528V4.23439L139.41 28.2856L137.641 29.3045ZM94.6469 4.23283V6.27373L19.3838 49.7274L17.6132 48.7054L94.6469 4.23283ZM12.9552 74.2818V78.7845C12.9552 78.8497 12.9847 78.9056 12.9924 78.9693C13.0049 79.078 13.0204 79.1837 13.0561 79.2862C13.0887 79.3809 13.1353 79.4617 13.1835 79.5471C13.2332 79.6341 13.2813 79.7149 13.3466 79.791C13.418 79.8733 13.5003 79.937 13.5858 80.0022C13.637 80.041 13.6727 80.0969 13.7302 80.1296L42.1428 96.5328C42.1785 96.5546 42.2204 96.5623 42.2561 96.5794C42.2981 96.5996 42.3416 96.6151 42.3851 96.6322C42.5575 96.6959 42.7376 96.7394 42.9193 96.7394C43.1011 96.7394 43.2797 96.6959 43.4536 96.6322C43.4971 96.6151 43.5406 96.5996 43.5826 96.5794C43.6183 96.5608 43.6602 96.553 43.6959 96.5328L54.2763 90.4241C54.3198 90.4039 54.3664 90.3931 54.4083 90.3698L77.0911 77.2732C77.1331 77.2484 77.1657 77.2142 77.2045 77.1847L84.5433 72.9476C85.3044 73.5829 86.1385 74.1653 87.0378 74.6856C92.4258 77.7951 100.007 78.8761 106.97 77.9582C107.072 77.9799 107.169 78.0203 107.277 78.0203C107.549 78.0203 107.792 77.9318 108.015 77.8091C111.469 77.2484 114.734 76.1907 117.451 74.6219L143.293 59.7035L143.28 59.6818C143.743 59.4131 144.069 58.9316 144.069 58.3569V54.345L150.68 58.228L59.6224 110.804L4.65958 79.0718L12.9552 74.2818Z" fill="#5E5E5E"/>
</svg>
