<svg width="139" height="104" viewBox="0 0 139 104" fill="none" xmlns="http://www.w3.org/2000/svg">
<path d="M28.8206 56.7944L38.154 61.461C38.4787 61.6331 38.8694 61.6247 39.1865 61.4388L39.1976 61.461L43.3424 59.3886L52.154 63.7943C52.4825 63.9584 52.8691 63.9584 53.1976 63.7943L123.198 28.7943C123.593 28.5966 123.842 28.1926 123.842 27.7507C123.842 27.3088 123.593 26.9048 123.198 26.7071L90.5309 10.3738C90.2024 10.2097 89.8158 10.2097 89.4873 10.3738L41.0091 34.6129L39.1976 33.7071C38.8691 33.5431 38.4825 33.5431 38.154 33.7071L28.8206 38.3738C28.4254 38.5715 28.1758 38.9755 28.1758 39.4174V55.7507C28.1758 56.1926 28.4255 56.5966 28.8206 56.7944ZM39.8424 58.5296V44.8053L42.1758 43.6386V57.3629L39.8424 58.5296ZM91.1758 24.9719L108.4 33.5841L101.676 36.9462L91.1758 31.6962V24.9719ZM44.5091 47.1386L88.8425 24.9719V31.6962L44.5091 53.8629V47.1386ZM52.6758 61.4462L44.5091 57.3629V56.4719L90.0091 33.7219L99.0667 38.2507L52.6758 61.4462ZM111.009 32.2796L91.1758 22.3629V13.3053L120.067 27.7507L111.009 32.2796ZM88.8425 13.3053V22.3629L44.5091 44.5296V42.4719L48.5309 40.461C48.9261 40.2633 49.1758 39.8593 49.1758 39.4174C49.1758 38.9755 48.9261 38.5715 48.5309 38.3738L43.6182 35.9174L88.8425 13.3053ZM30.5091 40.1386L38.6758 36.0553L45.4001 39.4174L38.154 43.0404C37.7588 43.2382 37.5092 43.6422 37.5091 44.0841V58.5296L30.5091 55.0296V40.1386Z" fill="#5D5D5D"/>
<path d="M1.26367 47L90.5137 2L137.014 26.75M1.26367 47V79.25L48.5137 102.5M1.26367 47L48.5137 71.75M137.014 26.75V57.5L48.5137 102.5M137.014 26.75L48.5137 71.75M48.5137 102.5V71.75" stroke="#5D5D5D" stroke-width="2.4"/>
</svg>
