<svg width="163" height="150" viewBox="0 0 163 150" fill="none" xmlns="http://www.w3.org/2000/svg">
<path d="M8.94893 86.5672L13.8871 89.4191C14.1364 89.5631 14.4164 89.636 14.6964 89.636C14.9764 89.636 15.2564 89.5631 15.5057 89.4191C16.0074 89.1293 16.315 88.5952 16.315 88.0174V73.8793C16.315 73.2999 16.0058 72.7658 15.5041 72.476L10.5659 69.6338C10.0641 69.3457 9.44906 69.3474 8.94731 69.6355C8.44717 69.9252 8.13965 70.4593 8.13965 71.0371V85.1655C8.13965 85.7433 8.44717 86.2775 8.94893 86.5672ZM11.3768 73.834L13.0779 74.8116V85.2108L11.3768 84.23V73.834Z" fill="#5E5E5E"/>
<path d="M19.0352 92.3904L23.9718 95.252C24.2211 95.3977 24.5027 95.4705 24.7827 95.4705C25.0627 95.4705 25.3411 95.3977 25.5903 95.2537C26.0937 94.9639 26.4012 94.4298 26.4012 93.852V79.7058C26.4012 79.128 26.0937 78.5922 25.592 78.3041L20.6554 75.4539C20.1552 75.1641 19.537 75.1641 19.0368 75.4539C18.5351 75.7436 18.2275 76.2777 18.2275 76.8555V90.9904C18.2275 91.5666 18.5367 92.1007 19.0352 92.3904ZM21.4646 79.6589L23.1641 80.6381V91.0422L21.4646 90.0581V79.6589Z" fill="#5E5E5E"/>
<path d="M8.94893 105.815L13.8839 108.667C14.1332 108.811 14.4132 108.884 14.6932 108.884C14.9732 108.884 15.2516 108.811 15.5025 108.667C16.0042 108.377 16.3117 107.843 16.3117 107.265V93.1286C16.3117 92.5524 16.0058 92.0183 15.5073 91.7302L10.5723 88.8605C10.0738 88.5675 9.45553 88.5659 8.95054 88.8556C8.44879 89.1453 8.13965 89.6811 8.13965 90.2589V104.412C8.13965 104.991 8.44717 105.525 8.94893 105.815ZM11.3768 93.0736L13.0746 94.0593V104.46L11.3768 103.479V93.0736Z" fill="#5E5E5E"/>
<path d="M19.0375 111.645L23.9724 114.486C24.2217 114.632 24.5017 114.703 24.7801 114.703C24.7898 114.701 24.8028 114.703 24.8125 114.703C25.7075 114.703 26.431 113.979 26.431 113.084C26.431 112.974 26.4197 112.864 26.3986 112.761L26.397 98.9495C26.397 98.3716 26.0895 97.8359 25.5861 97.5478L20.6528 94.704C20.1526 94.4159 19.536 94.4159 19.0358 94.704C18.5341 94.9937 18.2266 95.5278 18.2266 96.1057V110.244C18.2266 110.822 18.5373 111.357 19.0375 111.645ZM21.4637 98.9058L23.1599 99.8834L23.1615 110.284L21.4637 109.307V98.9058Z" fill="#5E5E5E"/>
<path d="M37.2409 100.987C37.4902 101.131 37.7702 101.204 38.0502 101.204C38.3302 101.204 38.6102 101.131 38.8595 100.987L45.5279 97.1364C46.0297 96.8467 46.3372 96.3126 46.3372 95.7348L46.3388 88.8316C46.3388 88.2538 46.0313 87.718 45.5295 87.4299C45.0294 87.1418 44.4111 87.1418 43.911 87.4299L37.2409 91.2821C36.7392 91.5718 36.4316 92.1059 36.4316 92.6838V99.5853C36.4316 100.163 36.7408 100.697 37.2409 100.987ZM39.6688 93.6177L43.1017 91.6349L43.1001 94.7992L39.6688 96.7803V93.6177Z" fill="#5E5E5E"/>
<path d="M56.4169 81.1293C55.9151 80.8412 55.2985 80.8396 54.7967 81.1309L48.125 84.9993C47.6265 85.289 47.319 85.8231 47.319 86.3993L47.3174 93.3073C47.3174 93.8852 47.6249 94.4209 48.1267 94.709C48.3759 94.8531 48.6559 94.9259 48.9359 94.9259C49.2159 94.9259 49.4943 94.8531 49.7452 94.709L56.4185 90.8585C56.9203 90.5687 57.2278 90.0346 57.2278 89.4568V82.5326C57.2278 81.9532 56.9187 81.419 56.4169 81.1293ZM53.9907 88.5229L50.5545 90.5056L50.5561 87.3332L53.9907 85.3424V88.5229Z" fill="#5E5E5E"/>
<path d="M37.2409 113.196C37.4918 113.34 37.7702 113.413 38.0502 113.413C38.3302 113.413 38.6102 113.34 38.8595 113.196L45.5295 109.342C46.0313 109.053 46.3388 108.518 46.3388 107.941V101.029C46.3388 100.452 46.0313 99.9158 45.5295 99.6277C45.0262 99.3396 44.4111 99.3396 43.911 99.6277L37.2409 103.481C36.7392 103.771 36.4316 104.305 36.4316 104.883V111.794C36.4316 112.372 36.7408 112.906 37.2409 113.196ZM39.6688 105.817L43.1017 103.833V107.005L39.6688 108.989V105.817Z" fill="#5E5E5E"/>
<path d="M56.4179 93.3472C55.9177 93.0591 55.3027 93.0591 54.7993 93.3472L48.1276 97.1977C47.6259 97.4874 47.3184 98.0216 47.3184 98.5994V105.514C47.3184 106.092 47.6259 106.627 48.1276 106.916C48.3769 107.06 48.6569 107.132 48.9369 107.132C49.2169 107.132 49.4969 107.06 49.7462 106.916L56.4179 103.063C56.9196 102.774 57.2272 102.24 57.2272 101.662V94.7489C57.2272 94.171 56.9196 93.6369 56.4179 93.3472ZM53.99 100.729L50.5555 102.712V99.5349L53.99 97.5522V100.729Z" fill="#5E5E5E"/>
<path d="M125.278 42.7351L118.607 46.5857C118.105 46.8754 117.798 47.4095 117.798 47.9873L117.796 54.9018C117.796 55.4796 118.103 56.0154 118.605 56.3035C118.856 56.4475 119.134 56.5204 119.414 56.5204C119.694 56.5204 119.974 56.4475 120.225 56.3035L126.895 52.4448C127.396 52.1551 127.703 51.6226 127.703 51.0448L127.706 44.1368C127.706 43.559 127.399 43.0232 126.897 42.7351C126.397 42.447 125.78 42.447 125.278 42.7351ZM124.466 50.1109L121.033 52.0968L121.035 48.9229L124.468 46.9401L124.466 50.1109Z" fill="#5E5E5E"/>
<path d="M126.893 54.9378C126.392 54.648 125.777 54.6497 125.274 54.9378L118.606 58.7948C118.105 59.0845 117.798 59.6186 117.798 60.1964V67.1109C117.798 67.6887 118.105 68.2245 118.607 68.5126C118.856 68.6566 119.136 68.7295 119.416 68.7295C119.696 68.7295 119.976 68.6566 120.226 68.5126L126.897 64.6588C127.399 64.3691 127.707 63.835 127.707 63.2571L127.703 56.3394C127.703 55.76 127.394 55.2259 126.893 54.9378ZM121.035 64.3076V61.1303L124.468 59.1444L124.47 62.3232L121.035 64.3076Z" fill="#5E5E5E"/>
<path d="M37.2409 89.0342C37.4902 89.1782 37.7702 89.2511 38.0502 89.2511C38.3302 89.2511 38.6102 89.1782 38.8595 89.0342L56.1456 79.0558C56.6474 78.7661 56.9549 78.2319 56.9549 77.6541V71.9536C56.9549 71.3757 56.6474 70.84 56.1456 70.5519C55.6423 70.2622 55.0272 70.2638 54.5271 70.5519L37.2409 80.5384C36.7392 80.8281 36.4316 81.3622 36.4316 81.94V87.6325C36.4316 88.2103 36.7408 88.7444 37.2409 89.0342ZM39.6688 82.8739L53.7178 74.7569V76.7186L39.6688 84.8292V82.8739Z" fill="#5E5E5E"/>
<path d="M67.046 55.1351C70.8852 57.3542 75.9707 58.5746 81.3621 58.5746C86.8085 58.5746 91.9652 57.3315 95.8821 55.0736C100.069 52.6539 102.374 49.3472 102.373 45.7621C102.371 42.2077 100.098 38.9399 95.9728 36.5606C92.1287 34.3399 87.04 33.1179 81.6486 33.1179C76.2037 33.1179 71.0519 34.361 67.1447 36.6156C62.9591 39.0289 60.6527 42.3324 60.6494 45.9158C60.6478 49.475 62.9203 52.7478 67.046 55.1351ZM68.7632 39.4222C72.1865 37.4459 76.7621 36.3567 81.6486 36.3567C86.4799 36.3567 90.9925 37.4249 94.3542 39.3655C97.4359 41.1427 99.1338 43.4152 99.1354 45.7653C99.1354 48.1446 97.4068 50.4559 94.2652 52.2719C90.8339 54.2498 86.2501 55.3391 81.3621 55.3391C76.5307 55.3391 72.0214 54.2708 68.6661 52.3334C65.5828 50.5498 63.8849 48.2725 63.8865 45.9207C63.8881 43.5414 65.62 41.2334 68.7632 39.4222Z" fill="#5E5E5E"/>
<path d="M162.636 86.2127C162.634 85.6349 162.325 85.0992 161.822 84.8111L132.204 67.8519V18.7837C132.204 18.5879 132.157 18.4034 132.092 18.2253C132.074 18.18 132.058 18.1379 132.039 18.0959C131.959 17.9291 131.864 17.7721 131.733 17.641C131.731 17.6394 131.729 17.6394 131.728 17.6378C131.629 17.5391 131.519 17.4533 131.396 17.3821L101.658 0.217291C101.158 -0.0724303 100.54 -0.0724303 100.04 0.217291L1.58955 57.0642C1.46654 57.1354 1.35486 57.2212 1.25775 57.3199C1.25613 57.3199 1.25451 57.3215 1.25289 57.3232C1.12179 57.4543 1.02468 57.6113 0.946985 57.778C0.925943 57.8201 0.911376 57.8621 0.893572 57.9075C0.827212 58.0839 0.780273 58.27 0.780273 58.4659V108.474V114.031C0.780273 114.102 0.812645 114.162 0.820737 114.232C0.835304 114.343 0.849871 114.452 0.88548 114.557C0.919469 114.659 0.971263 114.745 1.02468 114.835C1.07485 114.923 1.12503 115.005 1.193 115.083C1.26746 115.17 1.35648 115.237 1.44712 115.306C1.50215 115.347 1.53938 115.405 1.60088 115.439L62.1316 149.791C62.1672 149.812 62.2061 149.82 62.2433 149.837C62.2854 149.856 62.3291 149.871 62.3728 149.888C62.3776 149.89 62.3825 149.892 62.3873 149.893C62.431 149.909 62.4731 149.935 62.5184 149.947C62.6528 149.982 62.792 150 62.9279 150C62.9296 150 62.9312 150 62.9312 150C63.0687 150 63.2079 149.982 63.3439 149.947C63.3941 149.934 63.4394 149.906 63.488 149.888C63.5317 149.871 63.5754 149.854 63.6174 149.835C63.6563 149.815 63.7 149.806 63.7388 149.785L161.825 93.2842C161.883 93.2502 161.919 93.1952 161.972 93.1563C162.064 93.0867 162.15 93.0188 162.226 92.9297C162.294 92.8521 162.343 92.7695 162.395 92.6821C162.448 92.5915 162.497 92.5057 162.531 92.4037C162.568 92.2985 162.582 92.1901 162.597 92.08C162.603 92.012 162.636 91.9521 162.636 91.8825V86.3358C162.636 86.3179 162.626 86.3034 162.626 86.2872C162.626 86.2613 162.636 86.237 162.636 86.2127ZM70.2956 63.0723V109.74C67.9989 109.12 65.8381 108.293 63.8845 107.259V60.871C65.8591 61.7758 68.0134 62.5122 70.2956 63.0723ZM109.871 47.3011C109.871 47.2914 109.866 47.2833 109.866 47.2735C109.868 47.2137 109.881 47.1554 109.881 47.0955C109.881 46.5306 109.827 45.9722 109.74 45.4171L123.394 37.5412V39.4948L109.871 47.3011ZM128.967 67.8567L110.07 78.7722L110.042 74.3811L116.008 70.9352C116.51 70.6455 116.818 70.1114 116.818 69.5335V62.6272C116.818 62.0493 116.51 61.5136 116.008 61.2255C115.508 60.9358 114.89 60.9374 114.39 61.2255L109.979 63.7715L109.97 62.2209L116.005 58.7362C116.507 58.4464 116.814 57.9123 116.814 57.3345L116.816 50.4152C116.816 49.8373 116.509 49.3016 116.007 49.0135C115.503 48.7238 114.89 48.7254 114.387 49.0135L109.905 51.6048L109.902 51.0221L125.819 41.832C126.32 41.5422 126.628 41.0081 126.628 40.4303V34.7395C126.628 34.1616 126.32 33.6259 125.819 33.3378C125.318 33.0481 124.703 33.0481 124.2 33.3378L108.736 42.2593C107.689 40.0694 105.946 38.0381 103.539 36.2706L128.963 21.5871V67.8567H128.967ZM110.148 70.584V67.4148L113.581 65.4321V68.5996L110.148 70.584ZM110.148 58.3817V55.2061L113.581 53.2201L113.579 56.399L110.148 58.3817ZM106.692 55.0475L106.856 82.244C106.856 82.2813 106.875 82.3153 106.878 82.3525C106.886 82.4512 106.909 82.5435 106.933 82.6406C106.949 82.6956 106.941 82.7523 106.962 82.8089C110.301 91.6155 107.822 97.7903 105.735 100.987V56.0655C106.071 55.7321 106.394 55.3955 106.692 55.0475ZM102.497 104.682C101.626 105.415 100.632 106.113 99.5057 106.765C98.1412 107.552 96.6538 108.223 95.0902 108.8V62.2063C97.2624 61.4877 99.2985 60.6088 101.123 59.5551C101.608 59.2751 102.048 58.9757 102.497 58.6779V104.682ZM91.8548 109.803C89.482 110.423 86.9878 110.829 84.4499 111.014V64.2376C87.0088 64.0661 89.4981 63.7003 91.8548 63.1386V109.803ZM81.2111 111.147C78.615 111.148 76.0285 110.918 73.5327 110.472V63.7456C75.9864 64.1486 78.5502 64.3574 81.1658 64.3574C81.182 64.3574 81.1966 64.3558 81.2111 64.3558V111.147ZM60.6474 107.304L33.7502 122.841V76.5726L60.6474 61.0377V107.304ZM30.5131 122.841L4.01738 107.54V61.2692L30.5131 76.5726V122.841ZM4.01738 111.279L31.3224 127.046C31.324 127.047 31.3273 127.047 31.3289 127.049C31.3337 127.051 31.337 127.054 31.3418 127.055L31.3435 127.057L61.3126 143.786V145.602L4.01738 113.089V111.279ZM64.5481 143.77L159.399 89.0193V90.9454L64.5481 145.583V143.77ZM62.9182 140.977L35.4109 125.621L62.2854 110.098C68.0037 113.142 75.4151 114.529 82.718 114.301C82.7569 114.303 82.7925 114.324 82.8313 114.324C82.8912 114.324 82.9414 114.296 82.9996 114.29C86.7644 114.149 90.4871 113.579 93.933 112.569C93.9993 112.548 94.0722 112.542 94.1353 112.514C96.6505 111.763 99.0169 110.789 101.123 109.572C101.124 109.572 101.124 109.57 101.124 109.57C102.66 108.68 103.987 107.697 105.137 106.65C105.2 106.597 105.26 106.548 105.315 106.485C105.962 105.88 106.566 105.258 107.082 104.606C107.085 104.603 107.092 104.601 107.095 104.596C109.408 101.837 114.188 94.3249 110.421 82.9481L130.611 70.6714L157.77 86.2225L62.9182 140.977ZM100.849 3.48839L127.348 18.7837L99.64 34.7864C99.1383 35.0745 98.8307 35.6102 98.8307 36.1881C98.8307 36.7659 99.1383 37.3 99.64 37.5897C104.156 40.194 106.643 43.5719 106.643 47.0971C106.645 50.666 104.109 54.0941 99.504 56.7518C94.6225 59.5697 88.1094 61.1219 81.1658 61.1219C74.2967 61.1219 67.871 59.5988 63.0752 56.8327C63.038 56.8101 62.9943 56.802 62.9555 56.7842C62.9134 56.7631 62.8681 56.7469 62.8227 56.7291C62.6431 56.6628 62.4569 56.6175 62.2676 56.6175C62.0782 56.6175 61.8921 56.6628 61.7108 56.7291C61.6638 56.7469 61.6185 56.7631 61.5732 56.7858C61.536 56.8052 61.4939 56.8133 61.4567 56.8344L32.1317 73.7693L5.63594 58.4659L100.849 3.48839Z" fill="#5E5E5E"/>
</svg>
