<svg width="165" height="150" viewBox="0 0 165 150" fill="none" xmlns="http://www.w3.org/2000/svg">
<path d="M63.2593 92.9271L37.5558 78.0879C37.0476 77.7935 36.4194 77.7935 35.9112 78.0879C35.4013 78.3822 35.0889 78.925 35.0889 79.5121V93.4172C35.0889 94.0044 35.4013 94.5487 35.9112 94.8415L61.6131 109.679C61.8663 109.825 62.1509 109.899 62.4354 109.899C62.7199 109.899 63.0044 109.825 63.2577 109.679C63.7675 109.385 64.08 108.842 64.08 108.255L64.0816 94.3514C64.0816 93.7642 63.7692 93.2215 63.2593 92.9271ZM60.7924 95.302V99.7802L38.3781 86.8405V82.3622L60.7924 95.302ZM38.3797 92.4683V90.6378L60.7924 103.578V105.408L38.3797 92.4683Z" fill="#5E5E5E"/>
<path d="M131.383 53.1676C130.875 52.8732 130.246 52.8732 129.738 53.1676L112.814 62.9382C112.304 63.2326 111.991 63.7753 111.991 64.3624V73.4275C111.991 74.0146 112.304 74.559 112.814 74.8517C113.067 74.9981 113.351 75.0721 113.636 75.0721C113.92 75.0721 114.205 74.9997 114.458 74.8517L131.383 65.0811C131.893 64.7867 132.205 64.244 132.205 63.6569V54.5918C132.205 54.003 131.893 53.4603 131.383 53.1676ZM115.28 65.3113L120.454 62.3247V67.5924L115.28 70.579V65.3113ZM128.916 62.7063L123.742 65.6929V60.4252L128.916 57.4386V62.7063Z" fill="#5E5E5E"/>
<path d="M164.74 97.0601C164.75 96.9927 164.78 96.9335 164.78 96.8644V91.1988C164.78 90.9998 164.732 90.8123 164.666 90.6314C164.648 90.5853 164.632 90.5409 164.611 90.4982C164.53 90.3288 164.435 90.1692 164.301 90.0377C164.298 90.0344 164.293 90.0311 164.293 90.0311C164.193 89.9324 164.083 89.8453 163.959 89.7745L139.774 75.8118V31.5949V22.6664C139.774 22.4674 139.726 22.2799 139.66 22.099C139.642 22.0529 139.626 22.0102 139.606 21.9674C139.525 21.798 139.428 21.6385 139.295 21.5053L139.29 21.502C139.19 21.4017 139.078 21.3145 138.953 21.2421L102.538 0.220788C102.03 -0.0735961 101.402 -0.0735961 100.894 0.220788L24.6546 44.2387C24.5296 44.311 24.4161 44.3982 24.3174 44.4985L24.3125 44.5018C24.1793 44.635 24.0806 44.7946 24.0017 44.9639C23.9803 45.0067 23.9655 45.0495 23.9474 45.0955C23.8816 45.2764 23.8339 45.4656 23.8339 45.6645V54.5931V86.6054L1.14164 99.7047C1.01829 99.777 0.90646 99.8642 0.807784 99.9612C0.807784 99.9612 0.80285 99.9645 0.799561 99.9678C0.666348 100.101 0.567671 100.261 0.490375 100.428C0.468995 100.471 0.452549 100.515 0.434458 100.56C0.36703 100.741 0.319336 100.93 0.319336 101.129V106.795C0.319336 106.864 0.350583 106.923 0.358806 106.99C0.373608 107.105 0.388409 107.217 0.426235 107.326C0.460772 107.426 0.508466 107.512 0.561093 107.602C0.61372 107.694 0.664703 107.78 0.733777 107.86C0.809429 107.947 0.896593 108.015 0.987046 108.084C1.04132 108.125 1.07914 108.184 1.13999 108.219L73.1277 149.781C73.1655 149.804 73.2099 149.813 73.2477 149.831C73.2922 149.852 73.3382 149.868 73.3842 149.887C73.5668 149.954 73.7576 150 73.95 150C74.1424 150 74.3316 149.954 74.5157 149.887C74.5618 149.868 74.6078 149.852 74.6522 149.831C74.6901 149.811 74.7345 149.803 74.7723 149.781L163.958 98.2887C164.018 98.2541 164.056 98.1949 164.111 98.1538C164.203 98.0847 164.288 98.0173 164.364 97.9301C164.433 97.8496 164.484 97.7624 164.537 97.6736C164.589 97.5815 164.639 97.496 164.671 97.3956C164.711 97.2871 164.726 97.1753 164.74 97.0601ZM3.60855 103.977L72.3054 143.637V145.509L3.60855 105.846V103.977ZM75.5946 143.637L161.491 94.0472V95.9155L75.5946 145.509V143.637ZM27.1215 101.376V57.4399L72.858 83.8457V127.783L27.1215 101.376ZM136.483 30.646L107.717 47.2549V42.1237L136.483 25.5165V30.646ZM104.428 50.1033V74.5109L95.7838 88.199V71.5589V63.0579L104.428 47.5147V50.1033ZM92.4946 70.6099L76.1472 80.05V74.9188L92.4946 65.4804V70.6099ZM72.8563 80.0483L27.1198 53.6409V48.5114L72.8563 74.9172V80.0483ZM76.1455 83.8457L92.4929 74.409V118.345L76.1455 127.783V83.8457ZM95.7838 94.3613L98.6602 89.8058V107.78L95.7838 112.952V94.3613ZM101.949 84.5973L104.428 80.6733V97.4088L101.949 101.866V84.5973ZM107.717 51.0539L136.483 34.445V78.3791L107.717 94.9863V51.0539ZM101.716 3.54454L134.838 22.6664L105.25 39.7489C105.135 39.8163 105.031 39.9002 104.936 39.9923C104.926 40.0005 104.915 40.0071 104.905 40.0153C104.801 40.1206 104.709 40.2423 104.635 40.3738L92.9238 61.433L74.5026 72.0671L28.7661 45.6613L101.716 3.54454ZM23.8323 90.4011V102.325C23.8323 102.394 23.8635 102.453 23.8717 102.52C23.8865 102.635 23.9013 102.747 23.9392 102.856C23.9737 102.956 24.0214 103.042 24.074 103.132C24.1267 103.224 24.1776 103.31 24.2467 103.39C24.3224 103.477 24.4095 103.545 24.5 103.614C24.5543 103.655 24.5921 103.714 24.6529 103.749L73.6786 132.054C73.7165 132.077 73.7609 132.085 73.7987 132.103C73.8431 132.125 73.8891 132.141 73.9352 132.159C74.1177 132.227 74.3085 132.273 74.5009 132.273C74.6934 132.273 74.8825 132.227 75.0667 132.159C75.1127 132.141 75.1588 132.125 75.2032 132.103C75.241 132.084 75.2854 132.075 75.3232 132.054L94.9598 120.716C95.075 120.649 95.1786 120.563 95.274 120.473C95.2838 120.465 95.2953 120.458 95.3036 120.45C95.4088 120.344 95.5009 120.223 95.5749 120.091L107.286 99.0304L138.948 80.7522C139.009 80.7177 139.047 80.6585 139.101 80.6174C139.193 80.5483 139.279 80.4809 139.354 80.3937C139.423 80.3131 139.474 80.226 139.527 80.1371C139.578 80.045 139.629 79.9595 139.662 79.8592C139.695 79.7671 139.71 79.6783 139.726 79.5813L159.846 91.1988L73.95 140.79L5.25315 101.129L23.8323 90.4011Z" fill="#5E5E5E"/>
</svg>
