<svg width="124" height="150" viewBox="0 0 124 150" fill="none" xmlns="http://www.w3.org/2000/svg">
<path d="M43.9459 98.4948L47.2214 96.3061L45.2623 93.3979L43.7776 94.3928L37.4714 90.8877L35.7725 93.9489L43.9459 98.4948Z" fill="#5E5E5E"/>
<path d="M44.4981 0L0.0185547 26.6939V106.24L78.7839 150L123.263 123.306V43.7602L44.4981 0ZM119.774 112.806L80.4981 136.362V131.908L119.774 108.352V112.806ZM76.993 72.6122V77.0969L3.50835 36.2755V31.102L76.993 72.6122ZM52.2277 101.296L76.993 115.056V119.541L52.2277 105.781V101.296ZM52.2277 97.301V92.8163L76.993 106.577V111.061L52.2277 97.301ZM52.2277 88.8061V84.3214L76.993 98.0816V102.566L52.2277 88.8061ZM76.993 94.0867L52.2277 80.3265V75.8418L76.993 89.602V94.0867ZM48.7379 72.8571V81.352V89.8469V98.3418V106.837V115.332V120.842L31.0288 110.985V103.531V95.0357V86.5408V78.0612V69.5663V62.2041L48.7226 72.0306L48.7379 72.8571ZM52.2277 109.791L76.993 123.551V128.036L52.2277 114.276V109.791ZM76.993 81.1071V85.5918L52.2277 71.8316V69.9796L27.5237 56.2653V58.1173L3.50835 44.7704V40.2857L76.993 81.1071ZM27.539 62.1122V66.5969L3.52366 53.25V48.7653L27.539 62.1122ZM27.539 70.6071V75.0918L3.52366 61.7449V57.2602L27.539 70.6071ZM27.539 79.0867V83.5714L3.52366 70.2245V65.7398L27.539 79.0867ZM27.539 87.5816V92.0663L3.52366 78.7194V74.2347L27.539 87.5816ZM27.539 96.0612V100.546L3.52366 87.199V82.7143L27.539 96.0612ZM3.50835 91.2092L27.5237 104.556V109.041L3.50835 95.6939V91.2092ZM52.2277 118.27L76.993 132.031V136.515L52.2277 122.755V118.27ZM119.774 104.265L80.4981 127.837V123.383L119.774 99.8265V104.265ZM119.774 95.7398L80.4981 119.296V114.842L119.774 91.2857V95.7398ZM119.774 87.2143L80.4981 110.77V106.316L119.774 82.7602V87.2143ZM119.774 78.6735L80.4981 102.245V97.7908L119.774 74.2347V78.6735ZM119.774 70.148L80.4981 93.7041V89.25L119.774 65.6939V70.148ZM119.774 61.6224L80.4981 85.1786V80.7245L119.774 57.1684V61.6224ZM119.774 53.0969L80.4981 76.6531V72.551L119.774 47.9388V53.0969ZM44.5747 4.04082L118.09 44.8776L78.692 69.551L4.8706 27.8571L44.5747 4.04082ZM3.50835 99.7041L76.993 140.526V145.01L3.50835 104.189V99.7041ZM80.4981 144.888V140.434L119.774 116.878V121.332L80.4981 144.888Z" fill="#5E5E5E"/>
</svg>
