<svg width="141" height="104" viewBox="0 0 141 104" fill="none" xmlns="http://www.w3.org/2000/svg">
<path fill-rule="evenodd" clip-rule="evenodd" d="M61.1216 63.3491C58.3497 63.3491 56.0938 60.9039 56.0938 57.898C56.0943 57.0112 56.8132 56.2918 57.6999 56.2918C58.587 56.2918 59.306 57.0113 59.306 57.898C59.3066 59.133 60.1203 60.137 61.1213 60.137C62.1199 60.1368 62.9338 59.1332 62.9338 57.898C62.9342 56.6625 62.1196 55.6588 61.1213 55.6588C58.3497 55.6588 56.0938 53.2162 56.0938 50.2102C56.0943 47.2042 58.3496 44.7588 61.1213 44.7588C63.8935 44.7586 66.1461 47.2042 66.1461 50.2102C66.1465 51.097 65.4266 51.8164 64.54 51.8164C63.6538 51.8163 62.9338 51.097 62.9338 50.2102C62.9342 48.9748 62.1196 47.9711 61.1213 47.9711C60.1203 47.9709 59.306 48.975 59.306 50.2102C59.3066 51.4427 60.1203 52.4466 61.1213 52.4466C63.8935 52.4465 66.1461 54.892 66.1461 57.898C66.1465 60.9039 63.893 63.3493 61.1216 63.3491Z" fill="#82858F"/>
<path fill-rule="evenodd" clip-rule="evenodd" d="M61.1209 47.9758C60.2343 47.9758 59.5146 47.2565 59.5146 46.3698L59.5147 43.4475C59.5147 42.5606 60.2341 41.8413 61.1208 41.8413C62.008 41.8413 62.7269 42.5607 62.7269 43.4475L62.727 46.3696C62.727 47.2564 62.0076 47.9759 61.1209 47.9758Z" fill="#82858F"/>
<path fill-rule="evenodd" clip-rule="evenodd" d="M61.1209 66.2775C60.2343 66.2775 59.5146 65.5581 59.5146 64.6713L59.5147 61.7461C59.5147 60.8568 60.2341 60.1401 61.1208 60.1401C62.008 60.14 62.7269 60.8568 62.7269 61.7463L62.727 64.6713C62.727 65.5579 62.0076 66.2775 61.1209 66.2775Z" fill="#82858F"/>
<path fill-rule="evenodd" clip-rule="evenodd" d="M61.125 39.7209C53.2172 39.7209 46.7865 46.1512 46.7865 54.0564C46.787 61.9644 53.2167 68.3945 61.1246 68.3945C69.0302 68.3943 75.4601 61.9644 75.4601 54.0564C75.4604 46.1512 69.0299 39.721 61.125 39.7209ZM61.125 71.6066C51.4461 71.6066 43.5742 63.7351 43.5742 54.0565C43.5748 44.3803 51.446 36.5088 61.1246 36.5088C70.8007 36.5087 78.6723 44.3806 78.6723 54.0565C78.6727 63.735 70.8004 71.6069 61.125 71.6066Z" fill="#82858F"/>
<path fill-rule="evenodd" clip-rule="evenodd" d="M26.8435 51.5373C25.452 51.5373 24.3168 52.6696 24.3168 54.061C24.317 55.455 25.4516 56.5874 26.843 56.5874C28.2351 56.5872 29.3666 55.4553 29.3666 54.061C29.3669 52.6694 28.2344 51.5375 26.8435 51.5373ZM26.8435 59.7996C23.6782 59.7996 21.1045 57.2259 21.1045 54.0611C21.1047 50.8989 23.6781 48.3252 26.843 48.3252C30.0056 48.325 32.5788 50.899 32.5788 54.0611C32.5792 57.2259 30.0051 59.7997 26.8435 59.7996Z" fill="#82858F"/>
<path fill-rule="evenodd" clip-rule="evenodd" d="M3.70035 25.3457C3.43302 25.3457 3.21229 25.5661 3.21229 25.8337L3.21283 82.2883C3.21283 82.5558 3.43257 82.7764 3.70035 82.7764L118.545 82.7761C118.813 82.7761 119.033 82.5561 119.033 82.2884L119.033 25.8333C119.033 25.5657 118.813 25.3456 118.545 25.3456L3.70035 25.3457ZM118.545 85.9885H3.70035C1.66257 85.9885 0 84.3296 0 82.2885L0.000541045 25.8334C0.000541045 23.7924 1.66193 22.1334 3.70034 22.1334L118.545 22.1333C120.587 22.1333 122.245 23.7924 122.245 25.8336L122.246 82.2882C122.246 84.3292 120.586 85.9888 118.545 85.9885Z" fill="#82858F"/>
<path fill-rule="evenodd" clip-rule="evenodd" d="M22.2255 75.9154H100.037C100.801 69.8697 105.817 65.0682 112.116 64.3601L112.117 43.7423C109.055 43.402 106.219 42.0971 104.002 39.9752C101.78 37.8501 100.405 35.1288 100.037 32.1842L22.2254 32.1841C21.8659 35.1482 20.5131 37.8838 18.3269 40.0142C16.0995 42.1889 13.2408 43.4914 10.1428 43.7758L10.1429 64.3264C13.2078 64.6081 16.0572 65.916 18.2962 68.0966C20.4995 70.2381 21.8599 72.9708 22.2255 75.9154ZM101.543 79.1273H20.7173C19.8301 79.1273 19.1106 78.4081 19.1106 77.5215C19.1111 74.8444 18.0258 72.3154 16.0573 70.3999C14.0474 68.4421 11.395 67.405 8.58151 67.4831C8.15239 67.4998 7.72815 67.3325 7.41873 67.0286C7.10651 66.7273 6.93066 66.3119 6.93066 65.877L6.93075 42.2226C6.93075 41.7902 7.10642 41.375 7.41593 41.0739C7.72571 40.7726 8.14365 40.6081 8.57863 40.6165C11.4317 40.6917 14.0914 39.6601 16.0851 37.7166C18.037 35.8117 19.1106 33.2802 19.1106 30.5781C19.1111 29.6912 19.83 28.9748 20.7167 28.9748L101.543 28.9746C102.43 28.9746 103.149 29.6914 103.149 30.5781C103.149 33.2467 104.239 35.7591 106.221 37.6553C108.218 39.5652 110.881 40.6165 113.717 40.6165C113.714 40.6165 113.72 40.6164 113.717 40.6165C114.144 40.6164 114.556 40.7866 114.857 41.0878C115.158 41.3887 115.329 41.796 115.329 42.2227L115.329 65.877C115.329 66.7664 114.609 67.4832 113.722 67.4832C107.892 67.4832 103.149 71.9865 103.149 77.5216C103.149 78.4081 102.429 79.1277 101.543 79.1273Z" fill="#82858F"/>
<path fill-rule="evenodd" clip-rule="evenodd" d="M95.3863 51.5373C93.9948 51.5373 92.8627 52.6696 92.8627 54.061C92.8629 55.455 93.9948 56.5874 95.3862 56.5874C96.7804 56.5872 97.9125 55.4553 97.9125 54.061C97.9129 52.6694 96.7804 51.5375 95.3863 51.5373ZM95.3863 59.7996C92.2243 59.7996 89.6504 57.2259 89.6504 54.0611C89.6507 50.8989 92.2241 48.3252 95.3862 48.3252C98.5516 48.325 101.125 50.899 101.125 54.0611C101.125 57.2259 98.551 59.7997 95.3863 59.7996Z" fill="#82858F"/>
<path fill-rule="evenodd" clip-rule="evenodd" d="M120.638 66.3276C120.008 66.3276 119.411 65.9568 119.154 65.3378C118.814 64.5179 119.204 63.5784 120.024 63.2381L136.758 56.3059C137.006 56.2026 137.126 55.9102 137.023 55.6591L115.423 3.5153C115.32 3.26429 115.027 3.14441 114.774 3.25032L61.7349 25.2205C60.9149 25.5606 59.9752 25.1704 59.6378 24.3533C59.2981 23.5334 59.6852 22.5938 60.5049 22.2536L113.547 0.280666C115.432 -0.497528 117.607 0.397836 118.39 2.28276L139.99 54.4293C140.77 56.3172 139.872 58.4866 137.99 59.273L121.251 66.205C121.05 66.2885 120.844 66.3276 120.638 66.3276Z" fill="#82858F"/>
<path fill-rule="evenodd" clip-rule="evenodd" d="M30.4747 103.506C29.9978 103.506 29.5179 103.412 29.0607 103.222C28.1433 102.843 27.4294 102.132 27.053 101.214L20.3328 84.9966C19.9928 84.1768 20.383 83.24 21.2028 82.8998C22.023 82.5594 22.9596 82.9472 23.2997 83.7669L30.0198 99.9873C30.087 100.152 30.2151 100.224 30.2875 100.252C30.3712 100.288 30.5078 100.316 30.6612 100.252L72.5632 82.8995C73.3832 82.5594 74.32 82.95 74.66 83.7669C75.0007 84.5866 74.6099 85.5266 73.7901 85.8666L31.8938 103.219C31.4396 103.409 30.9568 103.506 30.4747 103.506Z" fill="#82858F"/>
<path fill-rule="evenodd" clip-rule="evenodd" d="M79.0071 25.3428C78.3771 25.3428 77.7798 24.9692 77.5232 24.353C77.1832 23.5331 77.5735 22.5935 78.3933 22.2533L111.707 8.4504C112.527 8.11286 113.466 8.50069 113.807 9.32044L119.526 23.1231C119.866 23.9431 119.475 24.88 118.656 25.2202C117.836 25.5602 116.896 25.1701 116.559 24.353L111.453 12.0334L79.6207 25.2202C79.4199 25.3035 79.2131 25.3429 79.0071 25.3428Z" fill="#82858F"/>
<path fill-rule="evenodd" clip-rule="evenodd" d="M33.1085 95.1716C32.8996 95.1716 32.6902 95.1327 32.495 95.0492C32.1021 94.8873 31.7896 94.5751 31.6251 94.1819L27.8221 84.9967C27.4845 84.1769 27.8718 83.2373 28.6916 82.8999C29.5116 82.5595 30.4511 82.9501 30.7913 83.767L33.9787 91.4687L54.6609 82.8996C55.4802 82.5595 56.4199 82.9473 56.76 83.767C57.0977 84.5867 56.7097 85.5267 55.89 85.8667L33.7253 95.0489C33.5269 95.1327 33.3176 95.1718 33.1085 95.1716Z" fill="#82858F"/>
<path fill-rule="evenodd" clip-rule="evenodd" d="M120.634 58.9202C120.004 58.9202 119.407 58.5467 119.15 57.9277C118.81 57.1076 119.2 56.1682 120.02 55.8279L128.196 52.4426L119.15 30.6035C118.81 29.7838 119.2 28.8442 120.017 28.504C120.838 28.1667 121.777 28.5543 122.117 29.374L131.779 52.6964C131.941 53.0923 131.941 53.533 131.779 53.9263C131.614 54.3191 131.302 54.6345 130.909 54.7962L121.247 58.7975C121.046 58.8785 120.84 58.9204 120.634 58.9202Z" fill="#82858F"/>
</svg>
