<svg width="106" height="123" viewBox="0 0 106 123" fill="none" xmlns="http://www.w3.org/2000/svg">
<path d="M51.9656 27.0013C43.316 27.001 34.8606 29.5657 27.6686 34.3709C20.4766 39.1762 14.871 46.0062 11.5608 53.9973C8.25054 61.9884 7.38428 70.7816 9.07156 79.265C10.7588 87.7485 14.9239 95.541 21.0399 101.657C27.156 107.774 34.9485 111.939 43.4318 113.626C51.9152 115.314 60.7085 114.448 68.6997 111.138C76.6909 107.828 83.5211 102.223 88.3266 95.0309C93.1321 87.839 95.697 79.3837 95.697 70.7341C95.6849 59.1394 91.0736 48.023 82.8751 39.8242C74.6765 31.6254 63.5603 27.0138 51.9656 27.0013ZM81.7651 98.3589L78.0897 94.685C77.7995 94.4057 77.4113 94.2514 77.0085 94.2552C76.6057 94.2591 76.2205 94.4208 75.9357 94.7056C75.6509 94.9904 75.4892 95.3756 75.4853 95.7784C75.4815 96.1812 75.6358 96.5694 75.9151 96.8596L79.5905 100.531C72.4752 107.153 63.2155 110.995 53.5022 111.355V106.143C53.5084 105.937 53.4733 105.732 53.3989 105.54C53.3245 105.348 53.2122 105.173 53.0689 105.026C52.9255 104.878 52.7539 104.76 52.5643 104.68C52.3747 104.6 52.1708 104.558 51.9649 104.558C51.759 104.558 51.5552 104.6 51.3655 104.68C51.1759 104.76 51.0043 104.878 50.8609 105.026C50.7176 105.173 50.6053 105.348 50.5309 105.54C50.4565 105.732 50.4214 105.937 50.4277 106.143V111.358C40.7139 110.997 31.4542 107.154 24.3394 100.531L28.0148 96.8567C28.2941 96.5665 28.4483 96.1783 28.4445 95.7755C28.4406 95.3727 28.2789 94.9876 27.9941 94.7028C27.7093 94.4179 27.3241 94.2562 26.9213 94.2524C26.5186 94.2485 26.1304 94.4028 25.8401 94.6821L22.1647 98.3561C15.5438 91.2406 11.702 81.9818 11.3403 72.2692H16.5579C16.9658 72.2692 17.357 72.1072 17.6454 71.8187C17.9339 71.5303 18.0959 71.1391 18.0959 70.7312C18.0959 70.3233 17.9339 69.9321 17.6454 69.6437C17.357 69.3553 16.9658 69.1932 16.5579 69.1932H11.3403C11.702 59.4802 15.5438 50.221 22.1647 43.1049L25.8401 46.7803C26.1304 47.0596 26.5186 47.2139 26.9213 47.2101C27.3241 47.2062 27.7093 47.0445 27.9941 46.7597C28.2789 46.4749 28.4406 46.0897 28.4445 45.6869C28.4483 45.2842 28.2941 44.896 28.0148 44.6057L24.3394 40.9303C31.4554 34.3094 40.7146 30.4676 50.4277 30.1059L50.4277 35.3221C50.4214 35.5279 50.4565 35.7329 50.5309 35.9249C50.6053 36.1169 50.7176 36.292 50.8609 36.4398C51.0043 36.5876 51.1759 36.7051 51.3655 36.7854C51.5552 36.8656 51.759 36.907 51.9649 36.907C52.1708 36.907 52.3747 36.8656 52.5643 36.7854C52.7539 36.7051 52.9255 36.5876 53.0689 36.4398C53.2122 36.292 53.3245 36.1169 53.3989 35.9249C53.4733 35.7329 53.5084 35.5279 53.5022 35.3221L53.5022 30.1087C63.2152 30.4705 72.4745 34.3123 79.5905 40.9332L75.9151 44.6086C75.7678 44.7504 75.6502 44.9201 75.5692 45.1078C75.4883 45.2956 75.4456 45.4976 75.4436 45.702C75.4417 45.9064 75.4805 46.1092 75.5578 46.2985C75.6352 46.4878 75.7495 46.6597 75.894 46.8043C76.0386 46.9488 76.2105 47.0631 76.3998 47.1405C76.5891 47.2178 76.7918 47.2566 76.9963 47.2547C77.2007 47.2527 77.4027 47.21 77.5905 47.129C77.7782 47.0481 77.9479 46.9305 78.0897 46.7832L81.7651 43.1078C88.3873 50.2241 92.2292 59.4848 92.5896 69.199H87.3762C86.9683 69.199 86.5771 69.361 86.2887 69.6494C86.0002 69.9379 85.8382 70.329 85.8382 70.7369C85.8382 71.1448 86.0002 71.536 86.2887 71.8245C86.5771 72.1129 86.9683 72.2749 87.3762 72.2749H92.591C92.2288 81.9869 88.3864 91.2448 81.7651 98.3589ZM56.2991 72.893C56.6097 72.2738 56.7834 71.5952 56.8084 70.903C56.8334 70.2108 56.7091 69.5214 56.4441 68.8814C56.179 68.2415 55.7794 67.6662 55.2722 67.1944C54.7651 66.7226 54.1624 66.3655 53.505 66.1474V46.6344C53.5113 46.4286 53.4762 46.2236 53.4018 46.0316C53.3273 45.8396 53.2151 45.6645 53.0717 45.5167C52.9284 45.3689 52.7568 45.2514 52.5671 45.1711C52.3775 45.0909 52.1737 45.0495 51.9678 45.0495C51.7619 45.0495 51.558 45.0909 51.3684 45.1711C51.1788 45.2514 51.0072 45.3689 50.8638 45.5167C50.7204 45.6645 50.6082 45.8396 50.5338 46.0316C50.4594 46.2236 50.4242 46.4286 50.4305 46.6344V66.1445C49.7985 66.3531 49.2163 66.6898 48.7203 67.1336C48.2243 67.5774 47.8251 68.1187 47.5478 68.7237C47.2704 69.3287 47.1209 69.9844 47.1084 70.6499C47.0959 71.3153 47.2208 71.9762 47.4753 72.5911C47.7298 73.2061 48.1083 73.762 48.5874 74.2241C49.0664 74.6861 49.6356 75.0444 50.2593 75.2766C50.8831 75.5087 51.548 75.6097 52.2126 75.5733C52.8771 75.5368 53.527 75.3637 54.1217 75.0647L63.1005 84.045C63.2423 84.1924 63.412 84.3099 63.5998 84.3909C63.7875 84.4718 63.9895 84.5145 64.194 84.5165C64.3984 84.5185 64.6012 84.4796 64.7905 84.4023C64.9797 84.325 65.1516 84.2107 65.2962 84.0661C65.4408 83.9215 65.5551 83.7496 65.6324 83.5603C65.7097 83.3711 65.7486 83.1683 65.7466 82.9638C65.7447 82.7594 65.702 82.5574 65.621 82.3697C65.5401 82.1819 65.4225 82.0122 65.2752 81.8704L56.2991 72.893ZM50.2002 70.7369C50.2002 70.3872 50.3039 70.0453 50.4982 69.7545C50.6925 69.4637 50.9687 69.2371 51.2918 69.1032C51.6149 68.9694 51.9705 68.9344 52.3135 69.0026C52.6565 69.0708 52.9716 69.2393 53.2189 69.4866C53.4662 69.7339 53.6346 70.0489 53.7028 70.392C53.771 70.735 53.736 71.0905 53.6022 71.4136C53.4684 71.7368 53.2417 72.0129 52.9509 72.2072C52.6601 72.4015 52.3182 72.5053 51.9685 72.5053C51.7358 72.5054 51.5054 72.4598 51.2905 72.3708C51.0755 72.2819 50.8802 72.1514 50.7157 71.9869C50.5512 71.8224 50.4207 71.6271 50.3318 71.4121C50.2428 71.1971 50.1971 70.9667 50.1973 70.7341L50.2002 70.7369ZM105.461 38.0847C105.461 37.677 105.299 37.286 105.011 36.9974L93.5195 25.5063C93.3768 25.3633 93.2073 25.2499 93.0207 25.1726C92.8341 25.0952 92.6342 25.0554 92.4322 25.0554C92.2302 25.0554 92.0302 25.0952 91.8436 25.1726C91.6571 25.2499 91.4876 25.3633 91.3449 25.5063L85.6222 31.2289C78.7626 25.3667 70.4898 21.3994 61.6241 19.7206V15.0564H63.7701C65.1553 15.0549 66.4834 14.5039 67.4629 13.5244C68.4424 12.5449 68.9934 11.2168 68.9949 9.83158V5.22481C68.9934 3.83957 68.4424 2.5115 67.4629 1.53199C66.4834 0.552471 65.1553 0.00151475 63.7701 0L40.164 0C38.7795 0.00265002 37.4525 0.554107 36.474 1.5335C35.4954 2.51289 34.945 3.84031 34.9435 5.22481V9.83158C34.945 11.2161 35.4954 12.5435 36.474 13.5229C37.4525 14.5023 38.7795 15.0537 40.164 15.0564H42.2986V19.7206C31.5468 21.7523 21.7112 27.1275 14.1948 35.0794C6.67842 43.0313 1.86513 53.1537 0.441545 64.0028C-0.982041 74.8518 1.05679 85.8734 6.2672 95.4953C11.4776 105.117 19.5935 112.848 29.4571 117.585C39.3207 122.322 50.4283 123.822 61.1954 121.874C71.9625 119.925 81.8391 114.625 89.4165 106.731C96.9938 98.8376 101.885 88.7525 103.392 77.9147C104.899 67.0769 102.945 56.04 97.8086 46.3783L105.015 39.172C105.301 38.8827 105.462 38.4919 105.461 38.0847ZM38.018 9.83158V5.22481C38.018 4.65566 38.2441 4.10981 38.6466 3.70736C39.049 3.3049 39.5949 3.07881 40.164 3.07881L63.7701 3.07881C64.3393 3.07881 64.8851 3.3049 65.2876 3.70736C65.69 4.10981 65.9161 4.65566 65.9161 5.22481V9.83158C65.9161 10.4007 65.69 10.9466 65.2876 11.349C64.8851 11.7515 64.3393 11.9776 63.7701 11.9776L40.164 11.9776C39.5949 11.9776 39.049 11.7515 38.6466 11.349C38.2441 10.9466 38.018 10.4007 38.018 9.83158ZM45.3774 15.0564L58.5524 15.0564V19.2313C54.1783 18.6762 49.7515 18.6762 45.3774 19.2313V15.0564ZM51.9585 119.577C42.2982 119.577 32.8549 116.713 24.8227 111.346C16.7905 105.979 10.5301 98.3505 6.8333 89.4255C3.13648 80.5006 2.16922 70.6799 4.05384 61.2053C5.93847 51.7306 10.5903 43.0276 17.4212 36.1968C24.252 29.3659 32.955 24.7141 42.4296 22.8295C51.9043 20.9448 61.725 21.9121 70.6499 25.6089C79.5749 29.3057 87.2031 35.5661 92.5701 43.5983C97.937 51.6305 100.802 61.0738 100.802 70.7341C100.787 83.6824 95.6376 96.0964 86.4824 105.253C77.3272 114.41 64.914 119.561 51.9656 119.577H51.9585ZM96.212 43.6086C93.8889 39.8307 91.0937 36.3644 87.8941 33.2934L92.425 28.7625L101.742 38.079L96.212 43.6086Z" fill="#82858F"/>
</svg>
