<svg width="118" height="128" viewBox="0 0 118 128" fill="none" xmlns="http://www.w3.org/2000/svg">
<path d="M86.9011 23.6708C87.3456 23.9575 87.8849 24.0581 88.4028 23.9511C88.9208 23.844 89.3761 23.5379 89.6706 23.0985L93.4372 17.3715L95.8863 19.5707C96.1083 19.7648 96.37 19.9079 96.6531 19.9902C96.9361 20.0725 97.2338 20.0919 97.5252 20.0471C97.8165 20.0022 98.0946 19.8942 98.3398 19.7306C98.5851 19.5671 98.7916 19.3518 98.945 19.1L103.72 11.0175C103.854 10.7914 103.942 10.5412 103.979 10.2812C104.016 10.0212 104.001 9.75643 103.936 9.50207C103.87 9.2477 103.755 9.0087 103.598 8.79872C103.44 8.58873 103.242 8.41187 103.016 8.27824C102.79 8.14461 102.54 8.05682 102.28 8.01988C102.02 7.98294 101.755 7.99758 101.501 8.06296C101.246 8.12834 101.007 8.24319 100.797 8.40093C100.587 8.55868 100.411 8.75624 100.277 8.98234L96.7428 14.9643L94.3786 12.8422C94.1643 12.6499 93.9111 12.5061 93.6362 12.4207C93.3613 12.3352 93.0712 12.3101 92.7858 12.3471C92.5003 12.3841 92.2261 12.4823 91.9821 12.635C91.7381 12.7877 91.5299 12.9913 91.3718 13.2318L86.3287 20.9013C86.0374 21.3445 85.9341 21.8852 86.0414 22.4046C86.1487 22.924 86.4579 23.3794 86.9011 23.6708Z" fill="#82858F"/>
<path d="M59.0592 17.7649C59.5282 18.0088 60.0742 18.0592 60.58 17.9051C61.0857 17.751 61.5109 17.4047 61.7642 16.9407L65.2057 10.4847L69.3316 12.2195C69.8086 12.4206 70.3451 12.4288 70.828 12.2422C71.3109 12.0557 71.7025 11.689 71.9205 11.2195L75.8131 2.84257C76.0366 2.3616 76.0599 1.81154 75.8779 1.31339C75.7877 1.06673 75.6499 0.840234 75.4722 0.646844C75.2945 0.453454 75.0805 0.296952 74.8424 0.186274C74.3614 -0.0372503 73.8113 -0.0605551 73.3132 0.121486C72.815 0.303528 72.4096 0.676004 72.1861 1.15697L69.106 7.78537L65.0748 6.09007C64.6151 5.89664 64.0997 5.88202 63.6297 6.04907C63.1598 6.21612 62.7692 6.55278 62.5348 6.99297L58.235 15.0589C57.9855 15.527 57.9323 16.0751 58.0868 16.5825C58.2414 17.09 58.5911 17.5153 59.0592 17.7649Z" fill="#82858F"/>
<path d="M30.8005 17.2014C30.9541 17.4291 31.1531 17.6228 31.3849 17.7702C31.6168 17.9176 31.8765 18.0157 32.148 18.0582C32.4194 18.1008 32.6967 18.087 32.9625 18.0176C33.2284 17.9482 33.4771 17.8248 33.6931 17.655L36.8649 15.1643L41.4011 21.2014C41.7235 21.62 42.1968 21.8959 42.72 21.9703C43.2431 22.0446 43.7746 21.9115 44.2009 21.5993C44.411 21.4416 44.5879 21.244 44.7216 21.0179C44.8553 20.7918 44.9431 20.5416 44.98 20.2815C45.0169 20.0214 45.0022 19.7566 44.9367 19.5022C44.8712 19.2478 44.7562 19.0089 44.5983 18.799L38.8347 11.1281C38.6748 10.9152 38.474 10.7364 38.2441 10.6022C38.0142 10.468 37.7598 10.381 37.4958 10.3464C37.2319 10.3118 36.9636 10.3302 36.7069 10.4006C36.4501 10.471 36.2101 10.592 36.0007 10.7565L32.9128 13.1818L28.6569 6.88106C28.5099 6.66344 28.3215 6.47689 28.1025 6.33207C27.8834 6.18725 27.638 6.08699 27.3802 6.03702C27.1224 5.98705 26.8572 5.98835 26.5999 6.04085C26.3426 6.09334 26.0982 6.196 25.8806 6.34296C25.6629 6.48992 25.4764 6.67831 25.3316 6.89737C25.1868 7.11643 25.0865 7.36187 25.0365 7.61967C24.9866 7.87747 24.9879 8.14259 25.0404 8.39989C25.0929 8.65719 25.1955 8.90164 25.3425 9.11926L30.8005 17.2014Z" fill="#82858F"/>
<path d="M10.4637 30.6348C10.7858 31.0541 11.2594 31.3304 11.7829 31.4043C12.3063 31.4783 12.838 31.344 13.2635 31.0303C13.4735 30.8725 13.6503 30.6748 13.7838 30.4485C13.9173 30.2223 14.005 29.972 14.0417 29.7119C14.0784 29.4518 14.0635 29.187 13.9979 28.9326C13.9322 28.6783 13.8171 28.4393 13.659 28.2295L10.9988 24.6943C10.8411 24.484 10.6434 24.3069 10.4171 24.173C10.1909 24.0392 9.94041 23.9513 9.68013 23.9144C9.41984 23.8774 9.15483 23.8922 8.90025 23.9578C8.64567 24.0233 8.40652 24.1385 8.19648 24.2966C7.98645 24.4547 7.80965 24.6527 7.6762 24.8792C7.54275 25.1057 7.45528 25.3563 7.41878 25.6166C7.38228 25.877 7.39748 26.142 7.46349 26.3964C7.52951 26.6509 7.64506 26.8899 7.80352 27.0996L10.4637 30.6348Z" fill="#82858F"/>
<path d="M18.0902 26.8293C18.6108 26.9223 19.1472 26.8074 19.584 26.5092C20.0208 26.211 20.3232 25.7533 20.4262 25.2346L20.9652 22.3698C21.0138 22.1117 21.0111 21.8465 20.9573 21.5895C20.9034 21.3324 20.7995 21.0885 20.6514 20.8716C20.5033 20.6547 20.3139 20.4691 20.0941 20.3254C19.8743 20.1817 19.6283 20.0827 19.3702 20.0341C19.1121 19.9855 18.847 19.9881 18.5899 20.042C18.3329 20.0958 18.0889 20.1997 17.8721 20.3478C17.6552 20.496 17.4696 20.6853 17.3259 20.9052C17.1822 21.125 17.0832 21.371 17.0346 21.6291L16.4945 24.4934C16.3964 25.0147 16.5094 25.5537 16.8086 25.9917C17.1079 26.4298 17.5688 26.731 18.0902 26.8293Z" fill="#82858F"/>
<path d="M2.63607 35.3856C2.63607 35.3856 6.00238 36.0004 6.12338 36.0004C6.62203 35.9999 7.10251 35.8132 7.47067 35.4769C7.83883 35.1406 8.06812 34.6789 8.11359 34.1823C8.15906 33.6858 8.01744 33.1901 7.71648 32.7925C7.41553 32.395 6.97693 32.1241 6.48667 32.0331L3.36557 31.453C3.10735 31.4051 2.84223 31.4085 2.58534 31.4631C2.32844 31.5176 2.08481 31.6223 1.86835 31.771C1.6519 31.9197 1.46685 32.1096 1.32378 32.3298C1.18071 32.5501 1.08242 32.7963 1.03452 33.0545C0.986622 33.3127 0.990051 33.5779 1.04461 33.8348C1.09918 34.0917 1.2038 34.3353 1.35252 34.5517C1.50124 34.7682 1.69113 34.9532 1.91137 35.0963C2.1316 35.2394 2.37785 35.3377 2.63607 35.3856Z" fill="#82858F"/>
<path d="M111.26 55.5859C111.018 52.6408 109.955 49.8226 108.19 47.4521C106.707 45.449 104.775 43.8212 102.55 42.6994C100.324 41.5776 97.8664 40.9929 95.374 40.9922C95.3105 40.9922 95.2461 40.9927 95.1816 40.9937C94.7858 39.4858 94.166 38.0457 93.3428 36.7217C92.2317 34.9267 90.7753 33.37 89.058 32.1421C87.3408 30.9142 85.3968 30.0394 83.3389 29.5684C82.1668 29.3089 80.9709 29.1721 79.7705 29.1602C78.6973 29.1602 77.5508 29.1885 76.9736 30.2583C76.9736 30.2583 68.2559 46.4097 68.2529 46.4155C68.1186 46.6702 68.0404 46.9507 68.0236 47.2381C68.0067 47.5256 68.0516 47.8133 68.1552 48.0819C68.2589 48.3505 68.4188 48.5939 68.6243 48.7955C68.8298 48.9972 69.0762 49.1525 69.3467 49.251L73.3643 50.6689L57.8984 68.7793L61.4102 54.6787C61.5295 54.2 61.4677 53.6941 61.2366 53.2582C61.0055 52.8223 60.6214 52.4873 60.1582 52.3174L56.1611 50.8521L65.6543 28.1509C65.8522 27.6784 65.8612 27.1479 65.6793 26.6689C65.4974 26.19 65.1385 25.7992 64.6768 25.5771C61.7981 24.1948 58.5717 23.7053 55.4125 24.1715C52.2533 24.6377 49.3059 26.0384 46.9492 28.1934L46.9268 28.2168C45.9683 29.0942 45.1211 30.086 44.4043 31.1699C42.034 29.8455 39.3627 29.1534 36.6475 29.1602C33.0571 29.1524 29.5683 30.3523 26.7422 32.5669C25.6868 33.4179 24.7388 34.3939 23.9189 35.4736C23.6882 35.8664 23.4283 36.2413 23.1416 36.5952C22.6826 36.5532 22.2344 36.5327 21.791 36.5327C17.5842 36.5203 13.5442 38.1771 10.5573 41.1395C7.5704 44.102 5.88054 48.1282 5.85841 52.335C5.85891 52.9684 5.89902 53.6011 5.97851 54.2295C4.16213 55.2478 2.65044 56.7324 1.59947 58.5301C0.548504 60.3277 -0.00364593 62.3733 1.81177e-05 64.4556C0.0146059 66.646 0.63573 68.7896 1.79448 70.6484C2.95323 72.5073 4.6043 74.0088 6.56451 74.9863C6.3032 76.0323 6.17167 77.1065 6.17291 78.1846C6.19356 80.3721 6.74832 82.5214 7.78895 84.4456C8.82957 86.3697 10.3245 88.0106 12.1438 89.2253C13.9631 90.44 16.0516 91.1919 18.2277 91.4155C20.4038 91.6391 22.6016 91.3277 24.6299 90.5083C25.3353 92.4933 26.483 94.2919 27.986 95.7681C29.4889 97.2442 31.308 98.3592 33.3054 99.0287C35.3028 99.6982 37.4263 99.9048 39.5153 99.6326C41.6043 99.3605 43.6041 98.6169 45.3633 97.458C46.7174 99.0025 48.4002 100.224 50.2881 101.033C52.9121 103.381 63.5586 113.588 65.5313 126.307C65.6045 126.778 65.8439 127.208 66.2064 127.519C66.5689 127.829 67.0305 128 67.5078 128H77.4727C77.8731 128 78.2642 127.88 78.5956 127.655C78.9269 127.43 79.1831 127.111 79.3311 126.739C80.9401 121.926 81.4206 116.808 80.7354 111.78C81.7771 111.924 82.8273 111.998 83.8789 112C89.6328 112.028 95.1878 109.896 99.4464 106.027C103.705 102.157 106.357 96.8314 106.879 91.1011C109.267 89.9011 111.275 88.0628 112.681 85.7902C114.088 83.5177 114.836 80.8999 114.845 78.2275C114.845 78.124 114.843 78.0205 114.84 77.918C116.481 75.7202 117.527 73.1358 117.877 70.415C117.959 69.7717 118 69.1237 118 68.4751C118.004 65.9415 117.393 63.4447 116.219 61.1995C115.045 58.9543 113.343 57.0279 111.26 55.5859ZM76.0078 124H69.1729C67.3262 115.296 61.8867 107.421 57.0576 102.117C59.3517 101.916 61.5593 101.146 63.4805 99.876C66.2877 105.061 70.9737 108.975 76.5762 110.814C76.5791 110.844 76.5762 110.875 76.5811 110.906C77.2998 115.263 77.1045 119.722 76.0078 124ZM83.8789 108C80.2563 108.007 76.706 106.986 73.6408 105.056C70.5756 103.125 68.1214 100.364 66.5635 97.0933C67.5677 95.8712 68.3515 94.4836 68.8799 92.9927C70.5753 94.311 72.5153 95.28 74.5877 95.8437C76.66 96.4073 78.8235 96.5545 80.9531 96.2766C83.0827 95.9986 85.136 95.3012 86.9943 94.2246C88.8526 93.148 90.479 91.7136 91.7793 90.0044C93.3391 91.117 95.1042 91.9088 96.9724 92.3339C98.8405 92.759 100.775 92.8088 102.662 92.4805C101.845 96.8576 99.5163 100.809 96.0837 103.645C92.651 106.481 88.3316 108.023 83.8789 108ZM112.868 73.4785C111.337 75.8585 108.971 77.5788 106.234 78.3008C105.743 78.3903 105.303 78.6602 105.001 79.0574C104.699 79.4546 104.556 79.9505 104.601 80.4477C104.645 80.9448 104.874 81.4073 105.242 81.7443C105.611 82.0813 106.092 82.2685 106.591 82.269C107.974 82.112 109.304 81.6445 110.481 80.9014C110.019 82.5785 109.151 84.1162 107.955 85.3792C106.759 86.6422 105.27 87.5918 103.621 88.1444C101.971 88.6971 100.211 88.8359 98.4954 88.5485C96.7796 88.2612 95.1608 87.5565 93.7813 86.4966C94.3634 84.7208 94.6944 82.8724 94.7646 81.0049C97.1051 80.3853 99.1762 79.0114 100.657 77.096C102.138 75.1805 102.946 72.8304 102.957 70.4092C102.957 69.8788 102.746 69.3701 102.371 68.995C101.996 68.6199 101.487 68.4092 100.957 68.4092C100.427 68.4092 99.9179 68.6199 99.5428 68.995C99.1677 69.3701 98.957 69.8788 98.957 70.4092C98.9435 72.2724 98.1916 74.0542 96.8661 75.3637C95.5407 76.6732 93.7499 77.4036 91.8867 77.3945C90.646 77.3963 89.4264 77.074 88.3486 76.4595C88.1206 76.329 87.8692 76.2446 87.6087 76.2112C87.3481 76.1779 87.0835 76.1961 86.83 76.265C86.5765 76.3339 86.3391 76.452 86.1312 76.6127C85.9234 76.7733 85.7492 76.9733 85.6187 77.2013C85.4881 77.4292 85.4037 77.6807 85.3704 77.9412C85.337 78.2018 85.3553 78.4664 85.4241 78.7199C85.493 78.9734 85.6112 79.2108 85.7718 79.4187C85.9324 79.6265 86.1324 79.8007 86.3604 79.9312C87.7058 80.6937 89.1956 81.1666 90.7344 81.3198C90.6782 82.0589 90.5798 82.7942 90.4395 83.522C90.1708 84.8831 89.6133 86.1706 88.8047 87.2979C87.6985 88.8447 86.2469 90.1122 84.565 90.9997C82.8832 91.8872 81.0176 92.3702 79.1164 92.4104C77.2152 92.4506 75.3308 92.0468 73.613 91.2312C71.8952 90.4156 70.3913 89.2106 69.2207 87.7119C68.969 87.3896 68.6244 87.1522 68.2336 87.0318C67.8427 86.9113 67.4244 86.9136 67.0349 87.0382C66.6453 87.1629 66.3034 87.404 66.0552 87.7291C65.8069 88.0541 65.6643 88.4474 65.6465 88.856C65.5293 90.9461 64.7509 92.9449 63.4235 94.5636C62.0962 96.1823 60.2886 97.3373 58.262 97.8616C56.2354 98.386 54.0945 98.2526 52.1487 97.4807C50.2028 96.7088 48.5526 95.3384 47.4365 93.5674C47.2782 93.3229 47.0688 93.1156 46.8229 92.9596C46.5769 92.8036 46.3001 92.7026 46.0115 92.6635C45.7228 92.6245 45.4292 92.6483 45.1506 92.7334C44.872 92.8184 44.6151 92.9627 44.3975 93.1563C43.0804 94.3625 41.4608 95.189 39.7112 95.5477C37.9616 95.9065 36.1475 95.7841 34.4619 95.1936C32.7763 94.6031 31.2824 93.5667 30.1392 92.1945C28.996 90.8224 28.2462 89.1659 27.9697 87.4014C28.0156 82.2305 30.416 78.8394 34.75 77.8496C35.074 77.7758 35.3745 77.6223 35.6243 77.4031C35.8741 77.1839 36.0653 76.906 36.1807 76.5943C36.296 76.2826 36.3319 75.9471 36.285 75.6181C36.2381 75.2892 36.1099 74.977 35.9121 74.71C35.2626 73.8353 34.7925 72.8408 34.5288 71.7837C34.2651 70.7266 34.2131 69.6278 34.3758 68.5505C34.5384 67.4732 34.9125 66.4388 35.4765 65.5066C36.0405 64.5745 36.7833 63.7631 37.6621 63.1191C38.088 62.8029 38.3709 62.3304 38.4484 61.8056C38.526 61.2808 38.3919 60.7467 38.0757 60.3208C37.7594 59.8948 37.2869 59.612 36.7621 59.5344C36.2373 59.4569 35.7032 59.591 35.2773 59.9072C33.0257 61.5659 31.408 63.9439 30.6921 66.6474C29.9762 69.3509 30.2051 72.2177 31.3408 74.7734C26.9238 76.7085 24.3184 80.7935 24 86.3706C22.5761 87.1344 20.9792 87.5178 19.3637 87.4837C17.7482 87.4497 16.1689 86.9993 14.7785 86.1761C13.388 85.3529 12.2336 84.1848 11.4268 82.7849C10.6199 81.3849 10.1881 79.8004 10.1729 78.1846C10.1714 76.9547 10.4179 75.7371 10.8975 74.6045C11.0069 74.3451 11.0604 74.0655 11.0543 73.784C11.0483 73.5024 10.9829 73.2254 10.8624 72.9709C10.7419 72.7164 10.5691 72.4902 10.3552 72.3071C10.1413 72.1239 9.89113 71.988 9.62111 71.9082C8.00922 71.4324 6.59287 70.4512 5.58083 69.1094C4.56879 67.7677 4.01462 66.1362 4.00002 64.4556C4.00154 63.1957 4.31229 61.9553 4.90499 60.8435C5.49768 59.7316 6.35421 58.7822 7.39941 58.0786C7.968 59.1892 8.71043 60.2018 9.59861 61.0781C9.99223 61.4327 10.5104 61.6166 11.0395 61.5896C11.5686 61.5625 12.0653 61.3266 12.4207 60.9337C12.7761 60.5408 12.9611 60.023 12.9352 59.4939C12.9092 58.9647 12.6744 58.4675 12.2822 58.1113C11.8058 57.6202 11.3987 57.0662 11.0723 56.4648C9.9008 54.3799 9.58096 51.9228 10.1797 49.6074C10.8119 47.0462 12.2757 44.7669 14.3418 43.1266C16.408 41.4862 18.9598 40.5774 21.5977 40.5425C21.3163 41.6302 21.1978 42.7536 21.2461 43.876C21.2938 44.401 21.5468 44.8859 21.9501 45.2253C22.3535 45.5646 22.8745 45.7311 23.3998 45.6883C23.9252 45.6456 24.4125 45.3972 24.7557 44.9971C25.0988 44.597 25.2702 44.0776 25.2324 43.5518C25.2539 41.0967 26.2024 38.7405 27.8877 36.9551C29.7705 34.9416 32.2905 33.6395 35.0222 33.2689C37.7538 32.8983 40.5297 33.4818 42.8809 34.9209C42.5188 36.148 42.3604 37.4262 42.4121 38.7046C42.455 39.2031 42.6832 39.6673 43.0517 40.0057C43.4201 40.3442 43.902 40.5322 44.4023 40.5327C44.46 40.5327 44.5176 40.5303 44.5762 40.5254C44.8379 40.5029 45.0926 40.4291 45.3257 40.3081C45.5589 40.1871 45.7659 40.0214 45.9349 39.8204C46.104 39.6193 46.2318 39.387 46.311 39.1365C46.3902 38.8861 46.4192 38.6225 46.3965 38.3608C46.425 37.0031 46.7275 35.6651 47.2858 34.4272C47.8441 33.1893 48.6467 32.0769 49.6455 31.1567C51.1738 29.7552 53.0391 28.7734 55.0596 28.3073C57.0801 27.8411 59.187 27.9063 61.1748 28.4966L51.6641 51.2388C51.5598 51.488 51.507 51.7558 51.509 52.026C51.5111 52.2961 51.5678 52.5631 51.6759 52.8107C51.7839 53.0583 51.9411 53.2814 52.1378 53.4666C52.3345 53.6518 52.5666 53.7953 52.8203 53.8882L57.0947 55.4551L51.9658 76.0513C51.8568 76.4886 51.8987 76.9499 52.0848 77.3604C52.2708 77.7708 52.59 78.1064 52.9907 78.3127C53.3913 78.5191 53.8499 78.584 54.2921 78.497C54.7343 78.41 55.1341 78.1762 55.4268 77.8335L78.2969 51.0513C78.5078 50.8045 78.6554 50.5101 78.7271 50.1935C78.7987 49.8769 78.7922 49.5476 78.7081 49.2341C78.6239 48.9205 78.4647 48.6322 78.2442 48.394C78.0237 48.1557 77.7485 47.9748 77.4424 47.8667L72.8838 46.2573L79.9521 33.1616C81.8585 33.1925 83.73 33.6778 85.4111 34.5773C87.0923 35.4767 88.5346 36.7643 89.6182 38.333C91.1732 40.6141 91.7679 43.4157 91.2734 46.1318C90.6182 48.5981 94.415 49.7056 95.124 47.2144C95.3051 46.4878 95.4073 45.7437 95.4287 44.9951C97.2279 45.003 99.0022 45.4167 100.619 46.2055C102.236 46.9943 103.655 48.1378 104.769 49.5508C106.317 51.5126 107.193 53.9207 107.268 56.4189C107.317 57.555 107.158 58.6905 106.798 59.769C106.601 60.2606 106.607 60.8102 106.815 61.2972C107.023 61.7842 107.415 62.169 107.906 62.3672C108.398 62.5653 108.947 62.5607 109.435 62.3543C109.922 62.1479 110.308 61.7566 110.508 61.2661C110.612 60.9927 110.702 60.7142 110.777 60.4316C112.407 62.1381 113.48 64.2996 113.853 66.6296C114.227 68.9597 113.883 71.3482 112.868 73.4785Z" fill="#82858F"/>
<path d="M105.737 37.031C106.163 37.3451 106.694 37.4797 107.218 37.4057C107.741 37.3317 108.215 37.0551 108.536 36.6355L111.197 33.1003C111.516 32.6765 111.653 32.1437 111.578 31.6189C111.504 31.0941 111.225 30.6203 110.801 30.3015C110.378 29.9827 109.845 29.8451 109.32 29.9189C108.795 29.9927 108.321 30.2718 108.002 30.695L105.342 34.2302C105.184 34.44 105.069 34.6789 105.003 34.9333C104.937 35.1876 104.922 35.4524 104.959 35.7125C104.996 35.9727 105.083 36.223 105.217 36.4492C105.351 36.6754 105.527 36.8731 105.737 37.031Z" fill="#82858F"/>
<path d="M99.6293 26.0349C99.3713 26.0836 99.1253 26.1826 98.9055 26.3263C98.6856 26.47 98.4963 26.6556 98.3482 26.8726C98.2001 27.0895 98.0962 27.3334 98.0424 27.5905C97.9886 27.8476 97.986 28.1127 98.0346 28.3708L98.5736 31.2351C98.6721 31.7564 98.9736 32.2172 99.4118 32.5163C99.85 32.8154 100.389 32.9282 100.91 32.8299C101.432 32.7317 101.893 32.4304 102.192 31.9923C102.491 31.5543 102.604 31.0153 102.506 30.4939L101.965 27.6296C101.867 27.1085 101.565 26.648 101.127 26.349C100.689 26.05 100.151 25.937 99.6293 26.0349Z" fill="#82858F"/>
<path d="M110.913 40.3651C110.998 40.8241 111.241 41.2388 111.6 41.5374C111.959 41.8361 112.411 41.9998 112.877 42.0004C112.998 42.0004 116.365 41.3861 116.365 41.3861C116.886 41.2893 117.348 40.9894 117.648 40.5522C117.949 40.1151 118.063 39.5765 117.966 39.055C117.87 38.5335 117.57 38.0718 117.132 37.7715C116.695 37.4711 116.157 37.3567 115.635 37.4535L112.514 38.0336C112.256 38.0815 112.01 38.1798 111.789 38.3229C111.569 38.466 111.379 38.6511 111.23 38.8676C111.082 39.0841 110.977 39.3278 110.923 39.5847C110.868 39.8417 110.865 40.1068 110.913 40.3651Z" fill="#82858F"/>
</svg>
