<svg width="100" height="115" viewBox="0 0 100 115" fill="none" xmlns="http://www.w3.org/2000/svg">
<path d="M77.493 56.6295L70.3682 65.5897C72.4941 66.784 74.4839 68.4951 75.8696 70.794C81.2946 79.7923 73.3066 87.7622 66.4009 89.7058C61.8225 90.9943 56.5967 90.6125 52.2438 88.3833L43.7527 99.0619C36.7585 92.8849 29.7643 86.7079 22.7702 80.5308L18.3627 83.8998L49.2295 112.446L98.0323 75.6333L77.493 56.6295ZM61.8865 77.5078L65.972 88.4342C70.4323 87.2278 75.9985 83.5942 76.4214 77.5078H61.8865ZM64.8466 88.7006L60.7269 77.7148L53.0777 87.3346C56.7363 89.0876 60.9835 89.4882 64.8466 88.7006ZM62.5806 75.3836L73.9462 70.1561C72.7955 68.756 71.2959 67.5528 69.5448 66.6252L62.5806 75.3836ZM74.7416 71.2411L64.0652 76.1516H76.4218C76.2999 74.3911 75.7066 72.7272 74.7416 71.2411ZM86.5681 43.2569L69.8749 32.6686L61.0881 46.8195L60.9555 50.6604L75.6348 46.2381C76.3549 46.0221 76.6286 47.3359 75.9086 47.5519L60.9068 52.0713L60.804 55.0482L62.8628 55.2167L65.004 52.4401L72.4414 50.2568C73.1615 50.0478 73.4262 51.3616 72.7062 51.5706L65.5975 53.6574L64.304 55.3347L67.5028 55.5966C68.2431 55.6558 68.1682 57.0066 67.4278 56.9474L63.3198 56.6111L54.7893 67.673L55.9733 57.0782L54.5568 57.3378L48.2851 67.4382L48.8167 71.531L57.3955 69.2681C58.1213 69.08 58.3596 70.4044 57.6338 70.5925L47.8894 73.1628L47.3429 68.9555L38.9331 82.4988C30.9763 76.6133 23.0197 70.7273 15.0632 64.8413L11.7806 69.1448L43.6222 97.2666C57.9318 79.2705 72.2436 61.2717 86.5681 43.2569ZM76.9578 18.9989L38.4889 1.60119L1.70994 53.376L38.6456 80.699C51.4164 60.1323 64.187 39.5656 76.9578 18.9989ZM55.5175 55.7908L57.2905 55.4658L56.3787 63.625L61.8784 56.4931L59.6329 56.3093L59.7674 52.4145L57.1184 53.2126L55.5175 55.7908ZM58.1849 51.4951L59.8161 51.0036L59.8942 48.7423L58.1849 51.4951ZM46.3667 54.175C47.0113 54.6139 46.4551 55.79 45.8105 55.351L20.1625 37.9085C19.5179 37.4696 20.0741 36.2935 20.7187 36.7324L46.3667 54.175ZM43.2987 59.1864C43.9425 59.6283 43.3818 60.8044 42.7381 60.3625L16.9886 42.6838C16.3448 42.2419 16.9054 41.0659 17.5492 41.5078L43.2987 59.1864ZM26.2747 54.311C26.9221 54.7464 26.3703 55.9278 25.7228 55.4923L13.809 47.4697C13.1616 47.0343 13.7133 45.8529 14.3608 46.2884L26.2747 54.311ZM78.2685 55.6541L100 75.7461C83.055 88.5288 66.1094 101.311 49.1641 114.093C38.244 103.994 27.324 93.895 16.4043 83.7956L21.7983 79.6724L10.1039 69.3439L14.0883 64.1202L0 53.6982C12.7146 35.7983 25.4299 17.8991 38.1453 0L78.7557 18.3662L70.5567 31.5706L88.4127 42.8965L78.2685 55.6541Z" fill="#5D5D5D"/>
<path d="M37.8941 21.6681C36.0692 24.3696 34.2431 27.0698 32.4169 29.7702C31.6616 30.8871 30.9063 32.004 30.151 33.1211C30.0786 33.0761 30.0061 33.0311 29.9338 32.9861C29.3248 32.6079 28.7195 32.2319 28.1179 31.8579C30.6908 28.0883 33.2638 24.3185 35.8361 20.5481C36.362 20.8381 36.8906 21.1244 37.4173 21.4097C37.5764 21.4959 37.7354 21.582 37.8941 21.6681ZM59.6733 27.1419C58.2589 29.3686 56.845 31.5956 55.431 33.8226C53.1544 37.4082 50.8779 40.9937 48.5999 44.5782C48.085 44.2588 47.5734 43.9412 47.0641 43.6249C46.7338 43.4198 46.4044 43.2153 46.0758 43.0113C49.0972 38.3104 52.1167 33.6077 55.136 28.905C55.7971 27.8753 56.4582 26.8457 57.1193 25.816C57.7846 26.1595 58.449 26.5051 59.1141 26.8511C59.3004 26.948 59.4868 27.0449 59.6733 27.1419ZM41.312 40.0531C42.678 37.9603 44.0439 35.8674 45.4098 33.7746C48.673 28.7747 51.9362 23.7749 55.2005 18.7762C55.9403 19.1417 56.6798 19.5081 57.4196 19.8746C57.4878 19.9084 57.5559 19.9422 57.6241 19.9759C52.9845 27.1645 48.3435 34.3518 43.7004 41.5371C43.3092 41.2941 42.9191 41.0517 42.5305 40.8102C42.1227 40.5568 41.7164 40.3043 41.312 40.0531ZM43.8185 31.2797C42.2139 33.7259 40.6093 36.1719 39.0028 38.6188C38.2423 38.1464 37.4877 37.6777 36.7379 37.2123C38.4228 34.6733 40.1066 32.1323 41.7903 29.5913C43.2289 27.4205 44.6673 25.2497 46.1063 23.0804C46.6781 23.3736 47.2483 23.6833 47.8218 23.9948C48.0124 24.0983 48.2032 24.202 48.3947 24.3053C46.8681 26.6307 45.3433 28.9552 43.8185 31.2797ZM32.3418 34.4825C36.0447 28.9848 39.7442 23.4835 43.4428 17.9819C44.1524 18.3479 44.8618 18.7149 45.5714 19.0821C45.5877 19.0906 45.604 19.099 45.6204 19.1075C43.6927 21.9993 41.7654 24.8925 39.8381 27.7856C38.0547 30.4627 36.2713 33.1397 34.4878 35.8156C34.1336 35.5955 33.7814 35.3768 33.4306 35.1589C33.0665 34.9327 32.7038 34.7075 32.3418 34.4825Z" stroke="#5D5D5D" stroke-width="0.9"/>
</svg>
