<svg width="100" height="109" viewBox="0 0 100 109" fill="none" xmlns="http://www.w3.org/2000/svg">
<path d="M0.940983 8.12519L16.0742 0L31.1482 7.98949L31.2126 8.0207C31.8362 8.32315 32.1331 8.46711 32.1453 8.90172C32.1499 8.93187 32.1523 8.96271 32.1523 8.99412V15.5826L38.2726 12.2965L53.3467 20.286L53.4111 20.3172C54.0347 20.6197 54.3315 20.7636 54.3438 21.1982C54.3484 21.2284 54.3507 21.2592 54.3507 21.2907V28.5912L61.3163 24.8513L76.3903 32.8408L76.4547 32.872C77.0783 33.1745 77.3752 33.3184 77.3874 33.753C77.392 33.7832 77.3944 33.814 77.3944 33.8454V40.6617L83.9219 37.1569L98.996 45.1464L99.0603 45.1776C99.6839 45.4801 99.9808 45.624 99.9931 46.0586C99.9976 46.0888 100 46.1196 100 46.1511V63.1009C94.6414 65.9783 89.2826 68.8553 83.9239 71.7324L77.3944 68.2266V75.3158C72.0358 78.1931 66.6769 81.07 61.3183 83.9472L54.3507 80.2063V87.9732C48.9921 90.8506 43.6333 93.7275 38.2746 96.6047L32.1523 93.3175V100.023C26.7936 102.9 21.4348 105.777 16.0762 108.654C10.7174 105.777 5.35863 102.9 0 100.023V83.1202C0 82.9725 0.0524272 82.8371 0.139666 82.7315C0.235532 82.5698 0.42489 82.4721 0.704167 82.3281C0.766337 82.296 0.839199 82.2585 0.940955 82.2038L8.53944 78.1241C5.69293 76.5958 2.84648 75.0674 2.79165e-05 73.539V56.6365C2.79165e-05 56.4889 0.0524552 56.3535 0.139694 56.2479C0.23556 56.0862 0.424918 55.9885 0.704194 55.8444C0.766365 55.8124 0.839227 55.7748 0.940983 55.7202L6.03807 52.9835L8.37496e-05 49.7415V32.839C8.37496e-05 32.6915 0.0524272 32.5561 0.139611 32.4506C0.235448 32.2887 0.424834 32.191 0.70425 32.0469C0.76642 32.0149 0.839283 31.9773 0.941038 31.9227L6.03823 29.1859L0.000111666 25.944V9.04149C0.000111666 8.89393 0.0524552 8.75859 0.139638 8.65304C0.235476 8.49115 0.424862 8.3935 0.704278 8.24939C0.766448 8.21734 0.839311 8.17974 0.941066 8.12511L0.940983 8.12519ZM38.8852 79.6908V94.8938L53.1297 87.2458V72.0428L38.8852 79.6908ZM37.6641 94.8938V79.6908L29.1795 75.1353L23.6595 78.099L31.1482 82.0682L31.2126 82.0994C31.8362 82.4018 32.1331 82.5459 32.1453 82.9804C32.1499 83.0105 32.1523 83.0414 32.1523 83.0728V91.9344L37.6641 94.8938V94.8938ZM54.3507 78.8232L60.7077 82.2363V67.0333L46.4633 59.3853V66.3704L53.3467 70.0187L53.4111 70.0499C54.0347 70.3524 54.3315 70.4964 54.3438 70.9309C54.3484 70.9611 54.3507 70.9919 54.3507 71.0233V78.8231V78.8232ZM45.6291 67.3072C45.5865 67.2904 45.5463 67.2689 45.509 67.2435L38.2766 63.4102L32.1523 66.6985V73.539L30.4675 74.4437L38.2746 78.6354L52.5458 70.9731L45.6291 67.3071L45.6291 67.3072ZM45.2421 65.7232V58.4133C45.2421 58.2657 45.2946 58.1303 45.3818 58.0247C45.4777 57.863 45.667 57.7653 45.9463 57.6212C46.0084 57.5892 46.0813 57.5516 46.1831 57.497L51.9535 54.3988L45.2421 50.7954V43.1311L38.2747 46.8721L32.1523 43.5849V49.7416C30.1606 50.8111 28.1688 51.8804 26.1771 52.9498L31.1482 55.5846L31.2126 55.6158C31.8362 55.9182 32.1331 56.0623 32.1453 56.4968C32.1499 56.5269 32.1523 56.5578 32.1523 56.5892V65.3154L38.2726 62.0292L45.2421 65.7232ZM30.9312 66.3705C30.9299 66.3476 30.9299 66.3247 30.9312 66.3019V57.6086L16.6867 65.2566V80.4596L28.886 73.9096C28.8897 73.9076 28.8933 73.9056 28.897 73.9037L30.9312 72.8116V66.3705ZM53.1277 70.9607C53.1293 70.8747 53.1234 70.8591 53.1104 70.8788C53.1203 71.0096 53.1245 71.1326 53.1277 70.9607ZM61.9288 82.2363L76.1732 74.5883V59.3853L61.9288 67.0333V82.2363ZM77.3944 66.8435L83.3133 70.0215V54.8185L69.0689 47.1705V53.4808L76.3904 57.3612L76.4547 57.3925C77.0783 57.6949 77.3752 57.8389 77.3874 58.2735C77.3921 58.3036 77.3944 58.3345 77.3944 58.3659V66.8435H77.3944ZM67.8478 52.8335V46.1985C67.8478 46.0509 67.9001 45.9156 67.9873 45.8101C68.0831 45.6482 68.2725 45.5505 68.5519 45.4064C68.6141 45.3744 68.687 45.3368 68.7887 45.2821L76.1733 41.3173V34.8648L61.9288 42.5129V49.6964L67.8478 52.8335H67.8478ZM60.7077 49.6985V42.5129L46.4633 34.8648V50.0678L53.2415 53.7072L60.7077 49.6985ZM61.3203 50.7527L47.1407 58.3659L61.3183 65.978L75.5894 58.3156L61.3203 50.7527ZM76.1713 58.3032C76.1729 58.2172 76.1671 58.2016 76.1541 58.2213C76.1639 58.3521 76.1681 58.4751 76.1713 58.3032ZM16.6867 91.7402V106.943L30.9312 99.2952V84.0922L16.6867 91.7402V91.7402ZM15.4656 106.943V91.7402L1.22115 84.0922V99.2952L15.4656 106.943ZM22.3671 78.7929C20.2701 79.9187 18.1731 81.0446 16.0762 82.1705L9.82749 78.8157L1.89863 83.0728L16.0762 90.6848L30.3473 83.0225L22.3671 78.7928V78.7929ZM30.9292 83.0101C30.9308 82.9241 30.925 82.9085 30.912 82.9283C30.9218 83.059 30.926 83.1821 30.9292 83.0101ZM15.4656 80.4596V65.2566L1.22115 57.6086V72.8116L15.4656 80.4596ZM24.8847 53.6436C21.9485 55.2201 19.0123 56.7965 16.0762 58.373C13.1595 56.8071 10.2428 55.2411 7.32608 53.6751L1.89863 56.5892L16.0762 64.2013L30.3473 56.5389L24.8847 53.6437V53.6436ZM30.9292 56.5265C30.9308 56.4405 30.925 56.4249 30.912 56.4446C30.9218 56.5754 30.926 56.6984 30.9292 56.5265ZM16.6867 41.4591V56.6621L30.9312 49.0141V42.9293L22.4398 38.3702L16.6867 41.4591L16.6867 41.4591ZM15.4656 56.6621V41.4591L1.22115 33.811V49.014L15.4656 56.662V56.6621ZM22.1985 37.1166V31.2883L16.0762 34.5755L7.32622 29.8775L1.89866 32.7917L16.0762 40.4037L22.1985 37.1165L22.1985 37.1166ZM38.8852 29.9581V45.1611L45.2421 41.748V33.8929C45.2421 33.7453 45.2945 33.61 45.3817 33.5044C45.4775 33.3426 45.6669 33.2449 45.9463 33.1008C46.0084 33.0687 46.0813 33.0312 46.1831 32.9765L53.1297 29.2468V22.3101L38.8852 29.9581H38.8852ZM37.6641 45.1611V29.9581L23.4196 22.3101V37.5131L37.6641 45.1611V45.1611ZM84.5345 70.0215L98.7789 62.3735V47.1705L84.5345 54.8185V70.0215V70.0215ZM83.9259 38.5379L69.7464 46.1511L83.9239 53.7632L98.1951 46.1008L83.9259 38.5379V38.5379ZM98.777 46.0885C98.7785 46.0024 98.7727 45.9868 98.7598 46.0066C98.7696 46.1373 98.7738 46.2603 98.777 46.0885ZM54.1043 30.1067C54.0567 30.1421 54.0037 30.1707 53.9469 30.1912L47.1407 33.8455L61.3183 41.4576L75.5894 33.7952L61.3203 26.2323L54.1043 30.1067ZM76.1713 33.7828C76.1729 33.6968 76.1671 33.6812 76.1541 33.7009C76.1639 33.8317 76.1681 33.9547 76.1713 33.7828ZM22.338 20.9497C22.4338 20.7878 22.6233 20.6901 22.9027 20.546C22.9648 20.514 23.0377 20.4764 23.1394 20.4218L30.9312 16.2383V10.0135L16.6867 17.6616V32.8646L22.1985 29.9052V21.3381C22.1985 21.1905 22.2508 21.0552 22.338 20.9497ZM38.2766 13.6775L24.0971 21.2907L38.2746 28.9028L52.5458 21.2404L38.2766 13.6775ZM53.1277 21.228C53.1293 21.142 53.1234 21.1264 53.1104 21.1461C53.1203 21.2769 53.1245 21.3999 53.1277 21.228ZM15.4656 17.6616L1.22115 10.0135V25.2165L15.4656 32.8646V17.6616ZM16.0782 1.38098L1.89863 8.99412L16.0762 16.6062L30.3473 8.94384L16.0782 1.38098ZM30.9292 8.93148C30.9308 8.84544 30.925 8.8298 30.912 8.8496C30.9218 8.98033 30.926 9.10336 30.9292 8.93148Z" fill="#5D5D5D"/>
</svg>
