<svg width="100" height="109" viewBox="0 0 100 109" fill="none" xmlns="http://www.w3.org/2000/svg">
<path d="M1.11056 65.7143L14.9361 55.8224C15.4587 55.4485 16.2791 55.2838 16.901 55.4598L39.9655 61.9911C40.8522 62.2609 41.1801 62.7747 41.1831 63.6428L41.2537 84.6093C41.2559 85.269 40.8811 85.988 40.383 86.4119L27.5217 97.3576L61.6596 106.876C62.4244 107.09 63.0346 107.219 63.0353 106.613L63.0661 65.258L62.5154 65.0971C62.1673 64.9952 62.3199 64.4663 62.6703 64.5668L63.0666 64.6825L63.0768 50.9081C63.1113 49.4675 63.0633 49.8608 61.4674 49.3939L1.73709 32.9438C1.09457 32.7746 1.10308 33.0011 1.11395 33.5222L1.11056 65.7143ZM40.415 56.5187C40.4171 56.8864 40.9653 56.879 40.9674 56.5188L40.9677 55.4139C40.9655 55.0462 40.4174 55.0536 40.4153 55.4138L40.415 56.5187ZM40.9823 2.93055C40.9802 2.56278 40.432 2.57023 40.4299 2.9304L40.4296 4.03532C40.4317 4.40307 40.9799 4.39563 40.982 4.03546L40.9823 2.93055ZM40.9815 5.69283C40.9794 5.32508 40.4312 5.33251 40.4291 5.69268L40.4288 6.7976C40.431 7.16536 40.9791 7.15791 40.9812 6.79774L40.9815 5.69283ZM40.9808 8.45511C40.9786 8.08736 40.4305 8.0948 40.4283 8.45496L40.428 9.55988C40.4302 9.92764 40.9783 9.92019 40.9804 9.56002L40.9808 8.45511ZM40.98 11.2174C40.9778 10.8496 40.4297 10.8571 40.4276 11.2173L40.4272 12.3222C40.4294 12.6899 40.9776 12.6825 40.9797 12.3223L40.98 11.2174ZM40.9792 13.9797C40.977 13.6119 40.4289 13.6194 40.4268 13.9795L40.4265 15.0844C40.4286 15.4522 40.9768 15.4448 40.9789 15.0846L40.9792 13.9797ZM40.9784 16.742C40.9763 16.3742 40.4281 16.3816 40.426 16.7418L40.4257 17.8467C40.4278 18.2145 40.976 18.207 40.9781 17.8469L40.9784 16.742ZM40.9776 19.5042C40.9755 19.1365 40.4273 19.1439 40.4252 19.5041L40.4249 20.609C40.427 20.9768 40.9752 20.9693 40.9773 20.6092L40.9776 19.5042ZM40.9768 22.2665C40.9747 21.8988 40.4265 21.9062 40.4244 22.2664L40.4241 23.3713C40.4263 23.7391 40.9744 23.7316 40.9765 23.3714L40.9768 22.2665ZM40.9761 25.0288C40.9739 24.6611 40.4258 24.6685 40.4237 25.0287L40.4234 26.1336C40.4255 26.5013 40.9737 26.4939 40.9758 26.1337L40.9761 25.0288ZM40.9753 27.7911C40.9732 27.4233 40.425 27.4308 40.4229 27.7909L40.4226 28.8959C40.4247 29.2636 40.9729 29.2562 40.975 28.896L40.9753 27.7911ZM40.9746 30.5534C40.9724 30.1856 40.4242 30.1931 40.4221 30.5532L40.4218 31.6581C40.424 32.0259 40.9721 32.0185 40.9743 31.6583L40.9746 30.5534ZM40.9738 33.3157C40.9716 32.9479 40.4235 32.9553 40.4214 33.3155L40.4211 34.4204C40.4232 34.7882 40.9714 34.7807 40.9735 34.4206L40.9738 33.3157ZM40.973 36.0779C40.9709 35.7102 40.4227 35.7176 40.4206 36.0778L40.4203 37.1827C40.4225 37.5505 40.9706 37.543 40.9727 37.1829L40.973 36.0779ZM40.9723 38.8402C40.9701 38.4725 40.422 38.4799 40.4198 38.8401L40.4195 39.945C40.4217 40.3127 40.9699 40.3053 40.972 39.9451L40.9723 38.8402ZM40.9715 41.6025C40.9694 41.2347 40.4212 41.2422 40.4191 41.6024L40.4188 41.8565C40.4209 42.2242 40.9691 42.2168 40.9712 41.8566L40.9715 41.6025ZM40.9707 44.3648C40.9686 43.997 40.4204 44.0045 40.4183 44.3646L40.418 45.4696C40.4202 45.8373 40.9683 45.8299 40.9704 45.4697L40.9707 44.3648ZM40.97 47.1271C40.9678 46.7593 40.4197 46.7668 40.4176 47.1269L40.4173 48.2318C40.4194 48.5996 40.9676 48.5922 40.9697 48.232L40.97 47.1271ZM40.9692 49.8894C40.9671 49.5216 40.4189 49.529 40.4168 49.8892L40.4165 50.9941C40.4186 51.3619 40.9668 51.3544 40.9689 50.9943L40.9692 49.8894ZM40.9685 52.6516C40.9663 52.2839 40.4181 52.2913 40.416 52.6515L40.4157 53.7564C40.4179 54.1242 40.966 54.1167 40.9682 53.7566L40.9685 52.6516ZM64.6905 106.567C64.7997 106.481 64.9111 106.384 65.0258 106.276L97.6509 75.6643C97.868 75.4606 97.8982 75.287 97.9031 75.0003L98.8468 19.6281C98.881 18.9561 98.9037 18.8173 98.3563 19.2958L65.8716 48.5436C64.5294 49.5935 64.1217 49.4609 64.1775 50.7756L64.136 106.337C64.1356 106.988 64.0641 107.06 64.6905 106.567ZM17.0439 77.0668C16.7612 77.2925 17.1011 77.7259 17.3878 77.4991L18.2524 76.8113C18.5351 76.5855 18.1951 76.1521 17.9085 76.3789L17.0439 77.0668ZM95.392 74.7C95.7425 74.8005 95.895 74.2716 95.5469 74.1697L94.4864 73.8599C94.1359 73.7595 93.9834 74.2884 94.3315 74.3902L95.392 74.7ZM92.7407 73.9256C93.0911 74.026 93.2437 73.4971 92.8956 73.3953L91.835 73.0855C91.4846 72.985 91.332 73.5139 91.6802 73.6158L92.7407 73.9256ZM90.0893 73.1511C90.4398 73.2516 90.5924 72.7227 90.2442 72.6208L89.1837 72.3111C88.8332 72.2106 88.6807 72.7395 89.0288 72.8414L90.0893 73.1511ZM87.438 72.3767C87.7885 72.4771 87.941 71.9483 87.5929 71.8464L86.5324 71.5366C86.1819 71.4362 86.0294 71.965 86.3775 72.0669L87.438 72.3767ZM84.7867 71.6023C85.1371 71.7027 85.2897 71.1738 84.9416 71.072L83.881 70.7622C83.5306 70.6617 83.378 71.1906 83.7261 71.2925L84.7867 71.6023ZM82.1353 70.8279C82.4858 70.9283 82.6383 70.3994 82.2902 70.2976L81.2297 69.9878C80.8792 69.8873 80.7267 70.4162 81.0748 70.5181L82.1353 70.8279ZM79.484 70.0534C79.8344 70.1539 79.987 69.625 79.6389 69.5231L78.5783 69.2133C78.2279 69.1129 78.0753 69.6418 78.4235 69.7436L79.484 70.0534ZM76.8326 69.279C77.1831 69.3795 77.3357 68.8506 76.9875 68.7487L75.927 68.4389C75.5766 68.3385 75.424 68.8673 75.7721 68.9692L76.8326 69.279ZM74.1813 68.5046C74.5318 68.605 74.6843 68.0761 74.3362 67.9743L73.2757 67.6645C72.9252 67.564 72.7727 68.0929 73.1208 68.1948L74.1813 68.5046ZM71.53 67.7301C71.8804 67.8306 72.033 67.3017 71.6849 67.1998L70.6243 66.8901C70.2739 66.7896 70.1213 67.3185 70.4694 67.4204L71.53 67.7301ZM68.8786 66.9557C69.2291 67.0562 69.3816 66.5273 69.0335 66.4254L67.973 66.1156C67.6225 66.0152 67.47 66.5441 67.8181 66.6459L68.8786 66.9557ZM66.2273 66.1813C66.5778 66.2817 66.7303 65.7529 66.3822 65.651L65.3216 65.3412C64.9712 65.2408 64.8186 65.7696 65.1668 65.8715L66.2273 66.1813ZM60.9247 64.6325C61.2751 64.7329 61.4276 64.204 61.0795 64.1022L60.019 63.7924C59.6685 63.6919 59.516 64.2208 59.8641 64.3227L60.9247 64.6325ZM58.2733 63.858C58.6238 63.9585 58.7763 63.4296 58.4282 63.3277L57.3677 63.018C57.0172 62.9175 56.8647 63.4464 57.2128 63.5483L58.2733 63.858ZM55.622 63.0836C55.9725 63.1841 56.125 62.6552 55.7769 62.5533L54.7164 62.2436C54.3659 62.1431 54.2134 62.672 54.5615 62.7739L55.622 63.0836ZM52.9707 62.3092C53.3212 62.4097 53.4737 61.8808 53.1256 61.7789L52.065 61.4691C51.7146 61.3687 51.562 61.8976 51.9102 61.9994L52.9707 62.3092ZM50.3194 61.5348C50.6698 61.6352 50.8224 61.1064 50.4743 61.0045L49.4137 60.6947C49.0633 60.5943 48.9107 61.1231 49.2588 61.225L50.3194 61.5348ZM47.6681 60.7604C48.0185 60.8608 48.1711 60.3319 47.8229 60.2301L46.7624 59.9203C46.412 59.8199 46.2594 60.3487 46.6075 60.4506L47.6681 60.7604ZM45.0167 59.986C45.3672 60.0864 45.5197 59.5575 45.1716 59.4557L44.1111 59.1459C43.7606 59.0454 43.6081 59.5743 43.9562 59.6762L45.0167 59.986ZM42.3998 59.2733C42.7585 59.3134 42.8253 58.7671 42.4618 58.7243C42.0747 58.6801 41.6809 58.6883 41.2945 58.7357C40.9286 58.783 41.0071 59.3278 41.3626 59.2839C41.7057 59.2418 42.0561 59.234 42.3998 59.2733ZM39.8651 59.7165C40.195 59.5526 39.945 59.0631 39.6221 59.2203C39.2418 59.4058 38.9829 59.6131 38.6596 59.8703C38.3769 60.096 38.7169 60.5294 39.0035 60.3026C39.2939 60.0716 39.5235 59.8831 39.8651 59.7165ZM35.545 63.0541C35.8277 62.8284 35.4877 62.395 35.2011 62.6217L34.3364 63.3096C34.0537 63.5353 34.3937 63.9687 34.6803 63.742L35.545 63.0541ZM33.3834 64.7737C33.6661 64.548 33.3261 64.1146 33.0395 64.3414L32.1749 65.0292C31.8922 65.255 32.2321 65.6884 32.5188 65.4616L33.3834 64.7737ZM31.2218 66.4934C31.5045 66.2676 31.1646 65.8343 30.8779 66.061L30.0133 66.7489C29.7306 66.9746 30.0706 67.408 30.3572 67.1812L31.2218 66.4934ZM29.0602 68.213C29.3429 67.9873 29.003 67.5539 28.7163 67.7807L27.8517 68.4685C27.569 68.6943 27.909 69.1277 28.1956 68.9009L29.0602 68.213ZM26.8987 69.9327C27.1814 69.7069 26.8414 69.2736 26.5548 69.5003L25.6901 70.1882C25.4074 70.4139 25.7474 70.8473 26.0341 70.6205L26.8987 69.9327ZM24.7371 71.6523C25.0198 71.4266 24.6798 70.9932 24.3932 71.22L23.5286 71.9078C23.2459 72.1336 23.5858 72.5669 23.8725 72.3402L24.7371 71.6523ZM20.414 75.0916C20.6967 74.8659 20.3567 74.4325 20.0701 74.6593L19.2055 75.3471C18.9227 75.5729 19.2627 76.0062 19.5494 75.7795L20.414 75.0916ZM1.71703 91.3636C0.429585 91.0078 -0.0117296 90.2805 0.000533142 88.9721L0.0135222 32.4067C0.0136259 31.4268 -0.157897 30.6239 0.717895 29.9483L38.2159 1.01684C39.6234 -0.0684979 41.2277 -0.178704 42.5877 0.192409L98.3291 15.404C99.8387 15.8159 100.032 16.6443 99.9963 17.8772L99.0037 75.0176C98.9937 75.6044 98.8446 76.0557 98.4061 76.4671L65.7811 107.079C64.3578 108.414 63.1761 108.443 61.3661 107.938L1.71703 91.3636ZM25.5956 96.8205L25.3908 76.084C25.3938 75.6998 25.2396 75.4589 24.7898 75.3281L16.2758 72.7785L16.2769 73.3542C16.2769 73.7133 15.7266 73.7234 15.7244 73.3552L15.7231 72.613L1.10999 68.2329L1.10107 88.9808C1.09356 89.7841 1.21846 90.083 2.01051 90.3019C9.87183 92.4747 17.7395 94.6301 25.5956 96.8205ZM38.8891 1.88868L1.52049 30.7203C0.81691 31.2622 1.41201 31.7317 2.02625 31.8821L61.7566 48.3322C63.1076 48.7042 64.0532 48.6962 65.1336 47.7235L98.5376 17.6481C99.1627 17.0853 98.6471 16.6314 98.0399 16.4657L42.2986 1.25416C41.2731 0.974352 40.1211 1.00451 38.8891 1.88868ZM15.7296 76.1174C15.7317 76.4856 16.282 76.4756 16.282 76.1164L16.2799 75.0115C16.2778 74.6433 15.7275 74.6534 15.7275 75.0125L15.7296 76.1174ZM16.249 58.4378C16.2468 58.0697 15.6965 58.0797 15.6965 58.4389L15.6986 59.5438C15.7007 59.912 16.251 59.9019 16.251 59.5428L16.249 58.4378ZM16.2541 61.2001C16.252 60.8319 15.7017 60.842 15.7017 61.2012L15.7038 62.3061C15.7059 62.6743 16.2562 62.6642 16.2562 62.3051L16.2541 61.2001ZM16.2593 63.9624C16.2572 63.5942 15.7069 63.6043 15.7069 63.9634L15.7089 65.0684C15.7111 65.4366 16.2614 65.4265 16.2614 65.0673L16.2593 63.9624ZM16.2645 66.7247C16.2623 66.3565 15.712 66.3665 15.712 66.7257L15.7141 67.8306C15.7163 68.1989 16.2665 68.1888 16.2665 67.8296L16.2645 66.7247ZM16.2696 69.487C16.2675 69.1188 15.7172 69.1288 15.7172 69.488L15.7193 70.5929C15.7214 70.9611 16.2717 70.9511 16.2717 70.5919L16.2696 69.487ZM26.4879 75.9297L26.5374 80.9419L27.1533 81.1197C27.4988 81.2208 27.3526 81.7515 26.9996 81.6503L26.5451 81.5186L26.6943 96.6185L39.6709 85.5746C39.9573 85.2905 40.1976 85.1557 40.1523 84.3551L40.087 64.9855L26.9589 75.0109C26.5345 75.3675 26.499 75.3194 26.4879 75.9297ZM2.37633 88.7578C2.09692 88.9886 2.44369 89.4148 2.72679 89.1849L3.58083 88.4839C3.86025 88.2532 3.51347 87.827 3.23037 88.0569L2.37633 88.7578ZM37.6113 84.726C37.9643 84.8272 38.1106 84.2965 37.7651 84.1954L36.7039 83.8878C36.351 83.7866 36.2047 84.3173 36.5501 84.4184L37.6113 84.726ZM34.9584 83.9571C35.3114 84.0582 35.4576 83.5276 35.1122 83.4265L34.051 83.1189C33.698 83.0177 33.5517 83.5484 33.8972 83.6495L34.9584 83.9571ZM32.3054 83.1881C32.6584 83.2893 32.8047 82.7587 32.4592 82.6575L31.3981 82.35C31.0451 82.2488 30.8988 82.7795 31.2443 82.8806L32.3054 83.1881ZM29.6525 82.4192C30.0055 82.5204 30.1518 81.9897 29.8063 81.8886L28.7451 81.581C28.3921 81.4799 28.2459 82.0105 28.5913 82.1117L29.6525 82.4192ZM24.3466 80.8814C24.6996 80.9826 24.8459 80.4519 24.5004 80.3508L23.4393 80.0432C23.0863 79.9421 22.94 80.4727 23.2855 80.5739L24.3466 80.8814ZM21.6937 80.1125C22.0467 80.2137 22.193 79.683 21.8475 79.5819L20.7863 79.2743C20.4333 79.1732 20.2871 79.7038 20.6326 79.8049L21.6937 80.1125ZM19.0408 79.3436C19.3938 79.4448 19.5401 78.9141 19.1946 78.813L18.1334 78.5054C17.7804 78.4043 17.6341 78.9349 17.9796 79.036L19.0408 79.3436ZM16.421 78.5929C16.7806 78.6461 16.8626 78.1019 16.5035 78.0467C16.0972 77.985 15.6372 78.0665 15.2672 78.2423C14.9363 78.4014 15.1789 78.8945 15.505 78.741C15.7751 78.6127 16.1241 78.5478 16.421 78.5929ZM14.2564 79.7219C14.5358 79.4912 14.189 79.0649 13.9059 79.2949L13.0519 79.9958C12.7724 80.2266 13.1192 80.6528 13.4023 80.4229L14.2564 79.7219ZM12.1212 81.4743C12.4007 81.2436 12.0539 80.8174 11.7708 81.0473L10.9167 81.7482C10.6373 81.979 10.9841 82.4052 11.2672 82.1753L12.1212 81.4743ZM9.98613 83.2267C10.2656 82.996 9.91878 82.5698 9.63568 82.7997L8.78164 83.5006C8.50222 83.7314 8.84899 84.1576 9.1321 83.9277L9.98613 83.2267ZM7.85103 84.9791C8.13045 84.7484 7.78368 84.3222 7.50058 84.5521L6.64653 85.253C6.36712 85.4838 6.71389 85.91 6.99699 85.6801L7.85103 84.9791ZM5.71593 86.7315C5.99535 86.5008 5.64858 86.0746 5.36547 86.3045L4.51143 87.0054C4.23202 87.2362 4.57879 87.6624 4.86189 87.4325L5.71593 86.7315ZM15.5748 56.7202L1.54533 66.758C1.35481 66.8864 1.34671 67.1561 1.6201 67.2379L25.2853 74.3247C25.5772 74.4121 25.9111 74.4511 26.29 74.1347L39.8314 63.7937C40.2418 63.4803 40.1162 63.1798 39.6677 63.0528L16.6032 56.5216C16.2995 56.4356 15.8286 56.5386 15.5748 56.7202Z" fill="#5D5D5D"/>
</svg>
