<svg width="120" height="98" viewBox="0 0 120 98" fill="none" xmlns="http://www.w3.org/2000/svg">
<path d="M24.6667 21.7259C27.0677 20.7735 29.6998 19.7549 32.3288 18.7376C34.7522 17.7998 37.173 16.863 39.3002 16.0234C39.6554 14.5919 40.7975 13.331 42.461 12.3911C44.3724 11.311 46.9963 10.6429 49.8794 10.6429C50.7576 10.6429 51.6116 10.705 52.4289 10.8217L65.6776 5.55692C65.9799 4.05269 67.1466 2.72658 68.8781 1.74818C70.7895 0.66808 73.4133 0 76.2965 0C79.1796 0 81.8035 0.668107 83.7149 1.74818C85.1554 2.56215 86.2049 3.61683 86.6911 4.81448L119.336 28.82C119.61 29.0218 119.798 29.2593 119.902 29.5081C119.981 29.6973 120.012 29.8915 119.996 30.0834L119.989 59.4877C119.986 59.9616 119.864 60.3785 119.641 60.7258C119.409 61.0868 119.074 61.3633 118.653 61.5421L39.2111 97.3427C38.7934 97.5202 38.2824 97.5557 37.7955 97.4697C37.3179 97.3853 36.8429 97.1818 36.4856 96.8794L31.9184 93.015C27.4591 89.2421 22.9989 85.4683 18.5436 81.6926C15.8984 79.4509 13.2989 77.2494 10.7042 75.052C7.44022 72.2879 4.73528 69.9727 1.40449 67.1489C1.26945 67.0344 1.3186 67.0751 1.30072 67.0603C0.691027 66.5536 0.0327468 66.0065 0.0601773 64.2595L0.000420213 32.5031C-0.00133816 32.4364 0.00242184 32.3701 0.0117006 32.3045C0.0437841 32.0777 0.137032 31.8679 0.290686 31.687C0.436252 31.5157 0.635084 31.3738 0.885097 31.2746C2.80591 30.513 4.72676 29.751 6.64744 28.9889L12.223 26.7759C12.6385 25.439 13.7457 24.2621 15.3199 23.3726C17.2313 22.2925 19.8552 21.6244 22.7383 21.6244C23.3964 21.6244 24.041 21.6593 24.6667 21.7259ZM85.1681 29.1207L85.1702 21.9347L85.1685 21.897L85.1685 21.8961L85.1684 21.8931C85.1677 21.8753 85.1671 21.8574 85.1667 21.8395L85.1666 21.8365L85.1665 21.8335L85.1663 21.8246L85.1662 21.8216C85.1657 21.7957 85.1654 21.7698 85.1654 21.7438C85.1654 19.919 86.4183 18.2986 88.4438 17.1541C90.1334 16.1993 92.3796 15.5665 94.8696 15.4325C96.3293 15.3539 97.8182 15.4468 99.2541 15.7267L87.0019 6.71693L86.9906 13.1743H86.9932C86.9932 14.9992 85.7404 16.6195 83.7149 17.7641C81.8035 18.8441 79.1796 19.5122 76.2965 19.5122C73.4133 19.5122 70.7895 18.8442 68.8781 17.7641C66.8525 16.6195 65.5997 14.9992 65.5997 13.1743H65.6024L65.6041 7.03432L54.7799 11.3356C55.7087 11.6156 56.5568 11.9723 57.2978 12.3911C59.0921 13.4049 60.2798 14.7922 60.5277 16.3642H60.5866L60.5735 23.8172H60.5762C60.5762 25.642 59.3234 27.2624 57.2978 28.4069C55.3864 29.487 52.7625 30.1551 49.8794 30.1551C46.9963 30.1551 44.3724 29.487 42.461 28.4069C40.4355 27.2624 39.1826 25.642 39.1826 23.8172H39.1853L39.1871 17.5146C37.1503 18.3159 34.9836 19.1544 32.8149 19.9937C30.888 20.7393 28.9595 21.4856 27.1733 22.1851C28.2852 22.4812 29.2936 22.8849 30.1567 23.3726C31.951 24.3865 33.1387 25.7737 33.3866 27.3457H33.4454L33.4324 34.7988H33.4351C33.4351 36.6236 32.1822 38.2439 30.1567 39.3885C28.2453 40.4686 25.6214 41.1367 22.7383 41.1367C19.8552 41.1367 17.2313 40.4686 15.3199 39.3885C13.2944 38.2439 12.0415 36.6236 12.0415 34.7988H12.0442L12.0461 28.294L7.14411 30.2397C5.22573 31.0009 3.30721 31.762 1.38869 32.5227C1.40977 32.5479 1.43793 32.5757 1.47342 32.6058C4.80786 35.4328 8.14606 38.2598 11.4827 41.0857C14.1287 43.3265 16.7738 45.5667 19.4154 47.8053C23.8729 51.5829 28.3353 55.3584 32.7967 59.1332L37.4792 62.9413C37.7117 63.138 38.0846 63.2356 38.4477 63.2471C38.7188 63.2556 38.9846 63.216 39.1822 63.1336C45.3471 60.5641 51.0212 58.1028 57.1886 55.534C64.3406 52.5549 71.4916 49.5763 78.635 46.5982C90.0209 41.8514 101.415 37.1023 112.803 32.3555L117.823 30.2876C118.434 30.0328 118.401 29.7669 117.839 29.3536L106.498 21.0538L106.498 21.0548L106.503 21.083C106.506 21.1014 106.509 21.1198 106.512 21.1382L106.517 21.167C106.519 21.1856 106.522 21.2043 106.524 21.2229L106.528 21.2495C106.53 21.2698 106.533 21.2901 106.535 21.3104L106.537 21.3274C106.539 21.3503 106.542 21.3732 106.544 21.3962L106.545 21.4118C106.547 21.4355 106.549 21.4592 106.55 21.483L106.551 21.4941C106.553 21.5196 106.554 21.545 106.555 21.5705L106.555 21.5733L106.555 21.5753C106.557 21.6027 106.557 21.6303 106.558 21.6579V21.6584L106.558 21.6676H106.569L106.556 29.1207H106.559C106.559 30.9455 105.306 32.5658 103.281 33.7104C101.369 34.7904 98.7453 35.4586 95.8622 35.4586C92.979 35.4586 90.3552 34.7905 88.4438 33.7104C86.4183 32.5658 85.1654 30.9455 85.1654 29.1207H85.1681ZM86.5166 24.8597L86.5154 29.1207H86.518C86.518 30.4231 87.5084 31.634 89.1095 32.5387C90.8248 33.508 93.2112 34.1075 95.8622 34.1075C98.5132 34.1075 100.9 33.508 102.615 32.5387C104.216 31.634 105.206 30.4231 105.206 29.1207H105.209L105.216 24.8503L105.196 24.8716C105.184 24.8851 105.171 24.8986 105.158 24.9121L105.128 24.9425C105.115 24.9563 105.101 24.9702 105.087 24.984L105.068 25.003C105.052 25.0199 105.034 25.0367 105.017 25.0535L104.997 25.0731C104.981 25.0886 104.965 25.104 104.949 25.1194L104.929 25.1383C104.912 25.154 104.895 25.1697 104.879 25.1853L104.858 25.2038C104.84 25.2203 104.822 25.2367 104.804 25.2531L104.785 25.2703C104.768 25.2858 104.75 25.3013 104.732 25.3168L104.713 25.3335C104.695 25.3496 104.676 25.3657 104.657 25.3818L104.639 25.3968C104.619 25.4142 104.598 25.4316 104.577 25.4489L104.563 25.4607C104.543 25.4769 104.523 25.4931 104.503 25.5092L104.485 25.5238C104.464 25.5409 104.443 25.5579 104.421 25.5749L104.409 25.584C104.386 25.6023 104.362 25.6205 104.339 25.6387L104.33 25.6454C104.307 25.663 104.284 25.6804 104.26 25.6978L104.251 25.7049C104.227 25.7228 104.202 25.7407 104.178 25.7584L104.165 25.7676C104.141 25.7855 104.116 25.8033 104.091 25.821L104.083 25.8269C104.058 25.8442 104.033 25.8615 104.009 25.8786L103.999 25.885C103.974 25.9026 103.948 25.92 103.922 25.9374L103.911 25.9454C103.885 25.9628 103.859 25.9801 103.832 25.9973L103.829 25.9993L103.828 26.0004C103.8 26.0183 103.773 26.0361 103.745 26.0539L103.738 26.0586C103.71 26.0762 103.683 26.0937 103.655 26.1111L103.647 26.1158C103.62 26.133 103.592 26.1501 103.564 26.1671L103.562 26.1685L103.56 26.1695L103.555 26.1725C103.528 26.1891 103.5 26.2056 103.473 26.222L103.465 26.2269C103.437 26.2435 103.408 26.2601 103.38 26.2766L103.369 26.2832C103.339 26.3001 103.31 26.3168 103.281 26.3335C101.369 27.4136 98.7453 28.0817 95.8622 28.0817C92.979 28.0817 90.3552 27.4136 88.4438 26.3335C88.4143 26.3168 88.385 26.3001 88.3558 26.2832L88.3437 26.2762C88.3149 26.2595 88.2862 26.2426 88.2577 26.2257L88.2543 26.2237C88.224 26.2057 88.194 26.1876 88.1641 26.1695L88.1641 26.1695C88.1341 26.1512 88.1043 26.1328 88.0747 26.1143L88.0722 26.1128C88.0438 26.095 88.0155 26.0771 87.9874 26.0592L87.9783 26.0533C87.9503 26.0354 87.9225 26.0174 87.895 25.9993L87.8949 25.9993C87.8663 25.9805 87.838 25.9617 87.8099 25.9428L87.8054 25.9398C87.7483 25.9014 87.6921 25.8625 87.6366 25.8232L87.6364 25.8232C87.609 25.8037 87.5817 25.7842 87.5546 25.7645L87.551 25.7619C87.4962 25.7221 87.4423 25.682 87.3892 25.6414L87.3891 25.6413C87.3623 25.6208 87.3357 25.6002 87.3092 25.5795L87.3091 25.5793C87.2835 25.5593 87.2581 25.5391 87.2329 25.5189L87.2277 25.5147C87.2027 25.4945 87.1779 25.4743 87.1533 25.454L87.1531 25.4538C87.1284 25.4334 87.1038 25.4128 87.0795 25.3922L87.0751 25.3884C87.0511 25.3681 87.0273 25.3477 87.0038 25.3271L87.0006 25.3243C86.9765 25.3033 86.9527 25.2822 86.929 25.2611L86.9288 25.2609C86.9053 25.2399 86.8821 25.2188 86.8591 25.1976L86.8549 25.1938C86.8319 25.1726 86.809 25.1512 86.7863 25.1298L86.7853 25.1288C86.7622 25.107 86.7393 25.085 86.7167 25.0629L86.7164 25.0627C86.6935 25.0404 86.6709 25.018 86.6484 24.9955C86.6268 24.9739 86.6054 24.9522 86.5843 24.9304L86.5783 24.9242C86.5579 24.9032 86.5378 24.8821 86.5178 24.861L86.5166 24.8597ZM102.615 18.3257C100.9 17.3565 98.5132 16.757 95.8622 16.757C93.2112 16.757 90.8248 17.3565 89.1095 18.3257C87.5084 19.2305 86.518 20.4413 86.518 21.7438C86.518 23.0462 87.5084 24.2571 89.1095 25.1618C90.8248 26.1311 93.2112 26.7306 95.8622 26.7306C98.5132 26.7306 100.9 26.1311 102.615 25.1618C104.216 24.2571 105.206 23.0462 105.206 21.7438C105.206 20.4413 104.216 19.2305 102.615 18.3257ZM66.9507 9.45348L66.9497 13.1743H66.9523C66.9523 14.4768 67.9427 15.6876 69.5438 16.5924C71.2591 17.5616 73.6455 18.1612 76.2965 18.1612C78.9474 18.1612 81.3339 17.5616 83.0491 16.5924C84.6503 15.6876 85.6406 14.4768 85.6406 13.1743H85.6433L85.6498 9.44537C85.1317 9.99731 84.4782 10.4963 83.7149 10.9276C81.8035 12.0077 79.1796 12.6758 76.2965 12.6758C73.4133 12.6758 70.7895 12.0077 68.8781 10.9276C68.1185 10.4984 67.4677 10.0022 66.9507 9.45348ZM83.0491 2.91984C81.3339 1.9506 78.9474 1.35108 76.2965 1.35108C73.6455 1.35108 71.2591 1.9506 69.5438 2.91984C67.9427 3.8246 66.9523 5.03546 66.9523 6.3379C66.9523 7.64033 67.9427 8.8512 69.5438 9.75596C71.2591 10.7252 73.6455 11.3247 76.2965 11.3247C78.9474 11.3247 81.3339 10.7252 83.0491 9.75596C84.6503 8.8512 85.6406 7.64033 85.6406 6.3379C85.6406 5.03546 84.6503 3.8246 83.0491 2.91984ZM58.751 39.7635L58.7531 32.5776L58.7515 32.5399L58.7514 32.539L58.7513 32.536C58.7506 32.5182 58.7501 32.5003 58.7496 32.4824L58.7495 32.4794L58.7494 32.4764L58.7493 32.4674L58.7492 32.4644C58.7486 32.4385 58.7484 32.4126 58.7484 32.3867C58.7484 30.5619 60.0012 28.9415 62.0267 27.797C63.9382 26.7169 66.562 26.0488 69.4451 26.0488C73.0773 26.0488 80.0463 27.658 80.1411 32.31L80.1411 32.3105H80.1523L80.1392 39.7635H80.1419C80.1419 41.5884 78.8891 43.2087 76.8635 44.3533C74.9521 45.4333 72.3283 46.1014 69.4451 46.1014C66.562 46.1014 63.9382 45.4334 62.0267 44.3533C60.0012 43.2087 58.7484 41.5884 58.7484 39.7635H58.751ZM60.0996 35.5026L60.0983 39.7635H60.101C60.101 41.066 61.0913 42.2768 62.6925 43.1816C64.4077 44.1508 66.7942 44.7504 69.4451 44.7504C72.0961 44.7504 74.4825 44.1508 76.1978 43.1816C77.7989 42.2768 78.7893 41.066 78.7893 39.7635H78.7919L78.7994 35.4932L78.7793 35.5145C76.4839 37.9383 72.3963 38.7246 69.4451 38.7246C66.3645 38.7246 62.426 37.8987 60.1672 35.5733L60.1612 35.5671C60.1409 35.5461 60.1207 35.525 60.1008 35.5039L60.0996 35.5026ZM76.1978 28.9686C74.4825 27.9994 72.0961 27.3998 69.4451 27.3998C66.7942 27.3998 64.4077 27.9994 62.6925 28.9686C61.0913 29.8734 60.101 31.0842 60.101 32.3867C60.101 33.6891 61.0913 34.9 62.6925 35.8047C64.4077 36.774 66.7942 37.3735 69.4451 37.3735C72.0961 37.3735 74.4825 36.774 76.1978 35.8047C77.7989 34.9 78.7893 33.6891 78.7893 32.3867C78.7893 31.0842 77.7989 29.8734 76.1978 28.9686ZM59.2328 20.0884C58.7146 20.6403 58.0611 21.1392 57.2978 21.5705C55.3864 22.6506 52.7625 23.3187 49.8794 23.3187C46.9963 23.3187 44.3724 22.6506 42.461 21.5705C41.7014 21.1413 41.0506 20.6451 40.5337 20.0963L40.5326 23.8172H40.5352C40.5352 25.1197 41.5256 26.3305 43.1268 27.2353C44.842 28.2045 47.2284 28.8041 49.8794 28.8041C52.5304 28.8041 54.9168 28.2045 56.6321 27.2353C58.2332 26.3305 59.2236 25.1197 59.2236 23.8172H59.2262L59.2328 20.0884ZM56.6321 13.5627C54.9168 12.5935 52.5304 11.994 49.8794 11.994C47.2284 11.994 44.842 12.5935 43.1268 13.5627C41.5256 14.4675 40.5352 15.6783 40.5352 16.9808C40.5352 18.2832 41.5256 19.4941 43.1268 20.3988C44.842 21.3681 47.2284 21.9676 49.8794 21.9676C52.5304 21.9676 54.9168 21.3681 56.6321 20.3988C58.2332 19.4941 59.2236 18.2832 59.2236 16.9808C59.2236 15.6783 58.2332 14.4675 56.6321 13.5627ZM31.6099 50.7451L31.612 43.5592L31.6103 43.5214L31.6103 43.5205L31.6102 43.5176C31.6095 43.4997 31.6089 43.4818 31.6085 43.4639L31.6084 43.4609L31.6083 43.4579L31.6081 43.449L31.608 43.446C31.6075 43.4201 31.6072 43.3942 31.6072 43.3682C31.6072 41.5434 32.8601 39.923 34.8856 38.7785C36.797 37.6984 39.4209 37.0303 42.304 37.0303C45.8675 37.0303 52.9046 38.6087 52.9999 43.2915L53 43.292H53.0112L52.9981 50.7451H53.0008C53.0008 52.5699 51.7479 54.1903 49.7224 55.3348C47.811 56.4149 45.1871 57.083 42.304 57.083C39.4209 57.083 36.797 56.4149 34.8856 55.3348C32.8601 54.1903 31.6072 52.5699 31.6072 50.7451H31.6099ZM32.9584 46.4841L32.9572 50.7451H32.9598C32.9598 52.0475 33.9502 53.2584 35.5513 54.1631C37.2666 55.1324 39.653 55.7319 42.304 55.7319C44.955 55.7319 47.3414 55.1324 49.0567 54.1631C50.6578 53.2584 51.6482 52.0475 51.6482 50.7451H51.6508L51.6583 46.4748L51.6382 46.4961C49.3846 48.8756 45.3956 49.7061 42.304 49.7061C39.2333 49.7061 35.2271 48.8884 32.9596 46.4854L32.9584 46.4841ZM49.0567 39.9502C47.3414 38.9809 44.955 38.3814 42.304 38.3814C39.653 38.3814 37.2666 38.9809 35.5513 39.9502C33.9502 40.8549 32.9598 42.0658 32.9598 43.3682C32.9598 44.6707 33.9502 45.8815 35.5513 46.7863C37.2666 47.7555 39.653 48.355 42.304 48.355C44.955 48.355 47.3414 47.7555 49.0567 46.7863C50.6578 45.8815 51.6482 44.6707 51.6482 43.3682C51.6482 42.0658 50.6578 40.8549 49.0567 39.9502ZM32.0916 31.0699C31.5735 31.6218 30.92 32.1207 30.1567 32.552C28.2453 33.6321 25.6214 34.3002 22.7383 34.3002C19.8552 34.3002 17.2313 33.6321 15.3199 32.552C14.5603 32.1228 13.9095 31.6266 13.3925 31.0778L13.3915 34.7988H13.3941C13.3941 36.1012 14.3845 37.3121 15.9856 38.2168C17.7009 39.1861 20.0873 39.7856 22.7383 39.7856C25.3893 39.7856 27.7757 39.1861 29.4909 38.2168C31.0921 37.3121 32.0825 36.1012 32.0825 34.7988H32.0851L32.0916 31.0699ZM29.4909 24.5443C27.7757 23.575 25.3893 22.9755 22.7383 22.9755C20.0873 22.9755 17.7009 23.575 15.9856 24.5443C14.3845 25.449 13.3941 26.6599 13.3941 27.9623C13.3941 29.2648 14.3845 30.4756 15.9856 31.3804C17.7009 32.3496 20.0873 32.9492 22.7383 32.9492C25.3893 32.9492 27.7757 32.3496 29.4909 31.3804C31.0921 30.4756 32.0825 29.2648 32.0825 27.9623C32.0825 26.6599 31.0921 25.449 29.4909 24.5443ZM37.6771 96.039L37.7948 64.61L37.7919 64.6095C36.4166 64.3666 33.1386 61.1892 31.925 60.1624C27.4635 56.3876 23.0011 52.612 18.5436 48.8344C15.902 46.5958 13.2569 44.3557 10.6109 42.1148C7.5141 39.4921 4.41596 36.8683 1.32069 34.2445L1.40747 64.2806C1.39013 65.3844 1.79085 65.7175 2.16194 66.0258C2.25316 66.1016 2.2131 66.0662 2.27627 66.1197C5.60705 68.9436 8.31199 71.2587 11.576 74.0229C14.1707 76.2203 16.7702 78.4218 19.4154 80.6635C23.8707 84.4392 28.3309 88.2129 32.7902 91.9858L37.3573 95.8502C37.4466 95.9258 37.5561 95.9892 37.6771 96.039ZM39.1422 64.5939L39.0246 95.9572L118.125 60.3019C118.293 60.2307 118.421 60.1275 118.505 59.9975C118.593 59.8611 118.64 59.6862 118.642 59.4771L118.638 31.3849L113.321 33.601C101.933 38.3478 90.5387 43.0969 79.1528 47.8437C72.0094 50.8219 64.8584 53.8005 57.7064 56.7795C56.0293 57.478 40.002 64.502 39.1422 64.5939Z" fill="#5D5D5D"/>
</svg>
