<svg width="100" height="106" viewBox="0 0 100 106" fill="none" xmlns="http://www.w3.org/2000/svg">
<path d="M37.1962 72.2572C37.1311 72.3223 37.0986 72.4118 37.1067 72.5013L37.123 73.5185C37.1392 74.0311 37.3427 74.1858 38.0262 73.9986L39.3608 73.6161C39.8002 73.4859 39.6049 72.8268 39.1736 72.9488L38.2134 73.2255C37.8879 73.315 37.8228 73.3313 37.8147 72.9895L37.8065 72.485C37.7903 72.1758 37.4078 72.0293 37.1962 72.2572Z" fill="#5D5D5D"/>
<path d="M39.2473 74.7472C39.2799 74.8367 39.3368 74.9018 39.4263 74.9425L40.6714 75.5447C40.9481 75.6749 41.2491 75.4145 41.1515 75.1215C41.1189 75.032 41.062 74.9669 40.9725 74.9262L39.7274 74.324C39.4508 74.1857 39.1497 74.4542 39.2473 74.7472Z" fill="#5D5D5D"/>
<path d="M37.042 69.0347L37.0664 70.4181C37.0745 70.7273 37.4489 70.8738 37.6686 70.6459C37.7337 70.5808 37.7662 70.4913 37.7581 70.4018L37.7337 69.0184C37.7255 68.5627 37.042 68.579 37.042 69.0347Z" fill="#5D5D5D"/>
<path d="M38.7098 88.166L37.4647 87.5639C37.3427 87.5069 37.2043 87.5232 37.1067 87.6046C36.9032 87.7592 36.9358 88.0765 37.1636 88.1905L38.4087 88.7926C38.6853 88.9228 38.9864 88.6543 38.8888 88.3613C38.8562 88.2718 38.7911 88.2067 38.7098 88.166Z" fill="#5D5D5D"/>
<path d="M32.7702 74.8775C32.6888 74.8368 32.5993 74.8287 32.5098 74.8531L31.1752 75.2356C30.8741 75.3251 30.8334 75.7238 31.102 75.8703C31.1833 75.911 31.2729 75.9191 31.3624 75.8947L32.6969 75.5122C32.998 75.4309 33.0468 75.024 32.7702 74.8775Z" fill="#5D5D5D"/>
<path d="M32.4764 85.1634L31.2313 84.5612C31.1093 84.5042 30.9709 84.5205 30.8733 84.6019C30.6698 84.7565 30.7024 85.0738 30.9302 85.1878L32.1753 85.79C32.4519 85.9202 32.753 85.6516 32.6554 85.3587C32.6147 85.2691 32.5577 85.2041 32.4764 85.1634Z" fill="#5D5D5D"/>
<path d="M40.216 89.1019C40.0126 89.2565 40.0452 89.5739 40.273 89.6878L41.518 90.29C41.7947 90.4202 42.0958 90.1516 41.9982 89.8587C41.9656 89.7692 41.9086 89.7041 41.8191 89.6634L40.5741 89.0612C40.4602 89.0124 40.3218 89.0205 40.216 89.1019Z" fill="#5D5D5D"/>
<path d="M29.4499 75.8296C29.3685 75.789 29.279 75.7808 29.1895 75.8052L27.8549 76.1877C27.5538 76.2772 27.5131 76.676 27.7817 76.8224C27.863 76.8631 27.9525 76.8713 28.0421 76.8468L29.3766 76.4644C29.6777 76.3749 29.7184 75.9761 29.4499 75.8296Z" fill="#5D5D5D"/>
<path d="M18.5938 10.7863L18.5775 9.40292C18.5694 8.94722 17.8777 8.95536 17.8858 9.41106L17.9021 10.7944C17.9102 11.2501 18.6019 11.2501 18.5938 10.7863Z" fill="#5D5D5D"/>
<path d="M36.0983 73.9254C36.0169 73.8847 35.9274 73.8765 35.8379 73.9009L34.5033 74.2834C34.2022 74.3729 34.1616 74.7717 34.4301 74.9181C34.5115 74.9588 34.601 74.967 34.6905 74.9425L36.0251 74.5601C36.3261 74.4787 36.375 74.0718 36.0983 73.9254Z" fill="#5D5D5D"/>
<path d="M35.5935 86.6604L34.3485 86.0583C34.2264 86.0013 34.0881 86.0176 33.9905 86.0989C33.787 86.2536 33.8196 86.5709 34.0474 86.6848L35.2925 87.287C35.5691 87.4172 35.8702 87.1487 35.7726 86.8557C35.74 86.7744 35.6749 86.7011 35.5935 86.6604Z" fill="#5D5D5D"/>
<path d="M37.1239 39.5116C37.189 39.4465 37.2216 39.3569 37.2134 39.2674L37.189 37.8841C37.1809 37.5748 36.8066 37.4284 36.5868 37.6562C36.5217 37.7213 36.4892 37.8108 36.4973 37.9003L36.5217 39.2837C36.5299 39.5929 36.9123 39.7394 37.1239 39.5116Z" fill="#5D5D5D"/>
<path d="M37.245 46.4287C37.3101 46.3636 37.3427 46.2741 37.3345 46.1846L37.3101 44.8012C37.302 44.4919 36.9276 44.3455 36.7079 44.5733C36.6428 44.6384 36.6103 44.7279 36.6184 44.8174L36.6428 46.2008C36.651 46.5101 37.0334 46.6565 37.245 46.4287Z" fill="#5D5D5D"/>
<path d="M37.1884 42.9702C37.2535 42.9051 37.286 42.8156 37.2779 42.7261L37.2535 41.3427C37.2453 41.0334 36.871 40.887 36.6513 41.1148C36.5862 41.1799 36.5536 41.2694 36.5618 41.359L36.5862 42.7423C36.5943 43.0516 36.9686 43.198 37.1884 42.9702Z" fill="#5D5D5D"/>
<path d="M37.3026 49.8951C37.3677 49.83 37.4003 49.7405 37.3921 49.651L37.3677 48.2676C37.3596 47.9584 36.9853 47.8119 36.7655 48.0398C36.7004 48.1049 36.6679 48.1944 36.676 48.2839L36.7004 49.6673C36.7167 49.9765 37.091 50.123 37.3026 49.8951Z" fill="#5D5D5D"/>
<path d="M37.4247 56.812C37.4898 56.7469 37.5223 56.6574 37.5142 56.5679L37.4898 55.1845C37.4817 54.8753 37.1073 54.7288 36.8876 54.9566C36.8225 55.0217 36.79 55.1112 36.7981 55.2007L36.8225 56.5841C36.8307 56.8934 37.2131 57.0398 37.4247 56.812Z" fill="#5D5D5D"/>
<path d="M18.6338 14.2529L18.6175 12.8695C18.6094 12.4138 17.9177 12.4219 17.9259 12.8776L17.9421 14.261C17.9421 14.7086 18.6338 14.7086 18.6338 14.2529Z" fill="#5D5D5D"/>
<path d="M37.3681 53.3536C37.4332 53.2885 37.4657 53.199 37.4576 53.1095L37.4332 51.7261C37.425 51.4169 37.0507 51.2704 36.831 51.4982C36.7659 51.5633 36.7333 51.6529 36.7415 51.7424L36.7659 53.1258C36.774 53.435 37.1565 53.5815 37.3681 53.3536Z" fill="#5D5D5D"/>
<path d="M17.9669 16.3361L17.9831 17.7195C17.9913 18.1752 18.683 18.1671 18.6748 17.7114L18.6586 16.328C18.6504 15.8642 17.9587 15.8804 17.9669 16.3361Z" fill="#5D5D5D"/>
<path d="M36.8876 25.6778C36.9527 25.6127 36.9852 25.5232 36.9771 25.4337L36.9527 24.0503C36.9445 23.7411 36.5702 23.5946 36.3505 23.8225C36.2854 23.8876 36.2529 23.9771 36.261 24.0666L36.2854 25.45C36.2935 25.7592 36.6679 25.9057 36.8876 25.6778Z" fill="#5D5D5D"/>
<path d="M37.0009 32.5948C37.066 32.5297 37.0985 32.4402 37.0904 32.3507L37.066 30.9673C37.0578 30.6581 36.6835 30.5116 36.4638 30.7395C36.3987 30.8046 36.3661 30.8941 36.3743 30.9836L36.3987 32.367C36.415 32.6762 36.7893 32.8227 37.0009 32.5948Z" fill="#5D5D5D"/>
<path d="M37.0673 36.0532C37.1324 35.9881 37.1649 35.8986 37.1568 35.8091L37.1324 34.4257C37.1242 34.1165 36.7499 33.97 36.5302 34.1978C36.4651 34.2629 36.4325 34.3524 36.4407 34.442L36.4651 35.8253C36.4732 36.1346 36.8557 36.281 37.0673 36.0532Z" fill="#5D5D5D"/>
<path d="M36.9442 29.1362C37.0093 29.0711 37.0419 28.9816 37.0337 28.8921L37.0093 27.5087C37.0012 27.1995 36.6269 27.053 36.4071 27.2808C36.342 27.3459 36.3095 27.4355 36.3176 27.525L36.342 28.9083C36.3502 29.2176 36.7326 29.364 36.9442 29.1362Z" fill="#5D5D5D"/>
<path d="M26.2439 82.1607L24.9989 81.5585C24.8768 81.5015 24.7385 81.5178 24.6408 81.5992C24.4374 81.7538 24.47 82.0712 24.6978 82.1851L25.9429 82.7873C26.2195 82.9175 26.5206 82.6489 26.423 82.356C26.3823 82.2665 26.3253 82.2014 26.2439 82.1607Z" fill="#5D5D5D"/>
<path d="M18.4717 61.3122L18.488 62.6956C18.488 62.8665 18.6182 63.013 18.789 63.0374C19.0006 63.0618 19.1796 62.899 19.1796 62.6875L19.1634 61.3041C19.1634 60.8402 18.4717 60.8565 18.4717 61.3122Z" fill="#5D5D5D"/>
<path d="M18.6348 64.5019C18.5534 64.567 18.5127 64.6647 18.5127 64.7705L18.529 66.1539C18.529 66.3248 18.6592 66.4712 18.8301 66.4956C19.0416 66.5201 19.2207 66.3573 19.2207 66.1457L19.2044 64.7623C19.2044 64.4694 18.8545 64.3148 18.6348 64.5019Z" fill="#5D5D5D"/>
<path d="M18.4316 57.8536L18.4479 59.237C18.4561 59.6927 19.1477 59.6845 19.1396 59.2288L19.1233 57.8455C19.1233 57.3816 18.4316 57.3979 18.4316 57.8536Z" fill="#5D5D5D"/>
<path d="M18.3575 50.9285L18.3738 52.3119C18.3819 52.7676 19.0736 52.7595 19.0655 52.3038L19.0492 50.9204C19.041 50.4647 18.3494 50.481 18.3575 50.9285Z" fill="#5D5D5D"/>
<path d="M18.6758 67.9688C18.5944 68.0339 18.5537 68.1315 18.5537 68.2373L18.57 69.6207C18.57 69.7916 18.7002 69.9381 18.8711 69.9625C19.0826 69.9869 19.2617 69.8241 19.2617 69.6126L19.2454 68.2292C19.2454 67.9281 18.8955 67.7735 18.6758 67.9688Z" fill="#5D5D5D"/>
<path d="M18.3175 47.4702L18.3337 48.8536C18.3419 49.3093 19.0336 49.3011 19.0254 48.8454L19.0091 47.462C19.001 47.0063 18.3093 47.0226 18.3175 47.4702Z" fill="#5D5D5D"/>
<path d="M29.3601 83.6578L28.1151 83.0556C27.993 82.9986 27.8547 83.0149 27.7571 83.0963C27.5536 83.2509 27.5862 83.5682 27.814 83.6822L29.0591 84.2843C29.3357 84.4145 29.6368 84.146 29.5392 83.853C29.4985 83.7717 29.4415 83.6984 29.3601 83.6578Z" fill="#5D5D5D"/>
<path d="M9.48892 81.5339C9.40754 81.4932 9.31803 81.485 9.22851 81.5095L7.89396 81.8919C7.59287 81.9814 7.55218 82.3802 7.82072 82.5267C7.9021 82.5673 7.99161 82.5755 8.08112 82.5511L9.41568 82.1686C9.71677 82.0791 9.75745 81.6803 9.48892 81.5339Z" fill="#5D5D5D"/>
<path d="M6.15884 82.486C6.07746 82.4453 5.98795 82.4372 5.89844 82.4616L4.56388 82.8441C4.26279 82.9336 4.22211 83.3323 4.49064 83.4788C4.57202 83.5195 4.66153 83.5276 4.75105 83.5032L6.0856 83.1207C6.38669 83.0312 6.42738 82.6325 6.15884 82.486Z" fill="#5D5D5D"/>
<path d="M18.709 71.4272C18.6276 71.4923 18.5869 71.5899 18.5869 71.6957L18.6032 73.0791C18.6032 73.25 18.7334 73.3964 18.9043 73.4208C19.1159 73.4453 19.2949 73.2825 19.2949 73.0709L19.2786 71.6876C19.2786 71.3865 18.9368 71.2319 18.709 71.4272Z" fill="#5D5D5D"/>
<path d="M18.75 74.8857C18.6686 74.9508 18.6279 75.0484 18.6279 75.1542L18.6442 76.5376C18.6442 76.7085 18.7744 76.8549 18.9453 76.8794C19.1569 76.9038 19.3359 76.741 19.3359 76.5294L19.3196 75.1461C19.3196 74.8531 18.9778 74.6904 18.75 74.8857Z" fill="#5D5D5D"/>
<path d="M12.8092 80.5817C12.7279 80.541 12.6383 80.5329 12.5488 80.5573L11.2143 80.9398C10.9132 81.0293 10.8725 81.428 11.141 81.5745C11.2224 81.6152 11.3119 81.6233 11.4014 81.5989L12.736 81.2165C13.0371 81.1351 13.0859 80.7282 12.8092 80.5817Z" fill="#5D5D5D"/>
<path d="M18.3985 54.3952L18.4148 55.7786C18.4229 56.2343 19.1146 56.2262 19.1065 55.7705L19.0902 54.3871C19.0821 53.9232 18.3904 53.9395 18.3985 54.3952Z" fill="#5D5D5D"/>
<path d="M22.7194 78.3684C23.0205 78.2789 23.0612 77.8802 22.7926 77.7337C22.7113 77.693 22.6217 77.6849 22.5322 77.7093L21.1977 78.0918C20.8966 78.1813 20.8559 78.58 21.1244 78.7265C21.2058 78.7672 21.2953 78.7753 21.3848 78.7509L22.7194 78.3684Z" fill="#5D5D5D"/>
<path d="M20.0104 79.1577L19.6523 78.9868C19.4407 78.8811 19.3838 78.9299 19.3675 78.6532V78.6125C19.3594 78.1568 18.6677 78.1649 18.6758 78.6207V78.816L17.8783 79.0438C17.5772 79.1333 17.5366 79.5321 17.8051 79.6785C17.8865 79.7192 17.976 79.7273 18.0655 79.7029L18.9932 79.4425L19.7093 79.7843C19.986 79.9145 20.287 79.646 20.1894 79.353C20.1487 79.2635 20.0917 79.1984 20.0104 79.1577Z" fill="#5D5D5D"/>
<path d="M16.1374 79.6298C16.056 79.5891 15.9665 79.581 15.877 79.6054L14.5424 79.9879C14.2413 80.0774 14.2006 80.4761 14.4692 80.6226C14.5505 80.6633 14.64 80.6714 14.7296 80.647L16.0641 80.2645C16.3652 80.1832 16.414 79.7763 16.1374 79.6298Z" fill="#5D5D5D"/>
<path d="M18.2764 44.0117L18.2926 45.3951C18.3008 45.8508 18.9925 45.8426 18.9843 45.3869L18.9681 44.0035C18.9681 43.5478 18.2764 43.5641 18.2764 44.0117Z" fill="#5D5D5D"/>
<path d="M24.7217 77.799L26.0563 77.4165C26.3574 77.327 26.3981 76.9283 26.1295 76.7818C26.0482 76.7411 25.9587 76.733 25.8691 76.7574L24.5346 77.1398C24.2335 77.2294 24.1928 77.6281 24.4613 77.7746C24.5427 77.8153 24.6322 77.8234 24.7217 77.799Z" fill="#5D5D5D"/>
<path d="M36.9609 58.4152C36.8958 58.4803 36.8632 58.5699 36.8713 58.6594L36.8958 60.0427C36.9039 60.352 37.2782 60.4984 37.4979 60.2706C37.563 60.2055 37.5956 60.116 37.5874 60.0265L37.563 58.6431C37.5468 58.3339 37.1724 58.1874 36.9609 58.4152Z" fill="#5D5D5D"/>
<path d="M23.1277 80.6549L21.8827 80.0528C21.7606 79.9958 21.6223 80.0121 21.5246 80.0935C21.3212 80.2481 21.3537 80.5654 21.5816 80.6794L22.8266 81.2815C23.1033 81.4117 23.4044 81.1432 23.3068 80.8502C23.2661 80.7689 23.2091 80.6956 23.1277 80.6549Z" fill="#5D5D5D"/>
<path d="M18.2042 37.095L18.2204 38.4784C18.2286 38.9341 18.9203 38.926 18.9121 38.4703L18.8959 37.0869C18.8877 36.6231 18.196 36.6393 18.2042 37.095Z" fill="#5D5D5D"/>
<path d="M18.2363 40.5534L18.2526 41.9368C18.2607 42.3925 18.9524 42.3844 18.9443 41.9287L18.928 40.5453C18.928 40.0814 18.2363 40.0977 18.2363 40.5534Z" fill="#5D5D5D"/>
<path d="M18.1622 33.6364L18.1785 35.0198C18.1866 35.4755 18.8783 35.4674 18.8701 35.0117L18.8539 33.6283C18.8457 33.1645 18.154 33.1807 18.1622 33.6364Z" fill="#5D5D5D"/>
<path d="M18.7891 28.0867L18.7728 26.7033C18.7647 26.2476 18.073 26.2558 18.0811 26.7115L18.0974 28.0949C18.1055 28.5506 18.7972 28.5506 18.7891 28.0867Z" fill="#5D5D5D"/>
<path d="M18.2441 29.9095C18.1628 29.9746 18.1221 30.0722 18.1221 30.178L18.1383 31.5614C18.1465 32.0171 18.8382 32.0089 18.83 31.5532L18.8138 30.1699C18.8138 29.8688 18.4638 29.7142 18.2441 29.9095Z" fill="#5D5D5D"/>
<path d="M55.3929 52.5398C55.3197 52.6049 55.2871 52.6944 55.2871 52.7921L55.3115 54.1755C55.3197 54.4766 55.6777 54.623 55.8974 54.4196C55.9707 54.3545 56.0032 54.265 56.0032 54.1673L55.9788 52.784C55.9707 52.4829 55.6126 52.3283 55.3929 52.5398Z" fill="#5D5D5D"/>
<path d="M55.0745 35.2393C55.0013 35.3044 54.9688 35.394 54.9688 35.4916L54.9932 36.875C55.0013 37.1761 55.3594 37.3226 55.5791 37.1191C55.6523 37.054 55.6849 36.9645 55.6849 36.8669L55.6604 35.4835C55.6523 35.1824 55.2943 35.0359 55.0745 35.2393Z" fill="#5D5D5D"/>
<path d="M55.262 45.623C55.1888 45.6881 55.1562 45.7776 55.1562 45.8752L55.1807 47.2586C55.1888 47.5597 55.5469 47.7062 55.7666 47.5027C55.8398 47.4376 55.8724 47.3481 55.8724 47.2505L55.8479 45.8671C55.8479 45.566 55.4818 45.4114 55.262 45.623Z" fill="#5D5D5D"/>
<path d="M55.2054 42.1645C55.1322 42.2296 55.0996 42.3191 55.0996 42.4167L55.124 43.8001C55.1322 44.1012 55.4902 44.2477 55.7099 44.0442C55.7832 43.9791 55.8157 43.8896 55.8157 43.792L55.7913 42.4086C55.7832 42.0994 55.417 41.9529 55.2054 42.1645Z" fill="#5D5D5D"/>
<path d="M55.14 38.7061C55.0667 38.7712 55.0342 38.8607 55.0342 38.9584L55.0586 40.3417C55.0667 40.6428 55.4248 40.7893 55.6445 40.5859C55.7177 40.5208 55.7503 40.4313 55.7503 40.3336L55.7259 38.9502C55.7177 38.641 55.3597 38.4945 55.14 38.7061Z" fill="#5D5D5D"/>
<path d="M55.0101 31.781C54.9368 31.8461 54.9043 31.9356 54.9043 32.0332L54.9287 33.4166C54.9368 33.7177 55.2949 33.8642 55.5146 33.6607C55.5878 33.5956 55.6204 33.5061 55.6204 33.4085L55.596 32.0251C55.5878 31.724 55.2298 31.5775 55.0101 31.781Z" fill="#5D5D5D"/>
<path d="M54.9447 28.3227C54.8714 28.3878 54.8389 28.4773 54.8389 28.5749L54.8633 29.9583C54.8714 30.2594 55.2295 30.4059 55.4492 30.2024C55.5224 30.1373 55.555 30.0478 55.555 29.9502L55.5306 28.5668C55.5306 28.2657 55.1644 28.1111 54.9447 28.3227Z" fill="#5D5D5D"/>
<path d="M54.887 24.8643C54.8138 24.9294 54.7812 25.0189 54.7812 25.1166L54.8057 26.4999C54.8138 26.801 55.1719 26.9475 55.3916 26.7441C55.4648 26.679 55.4974 26.5895 55.4974 26.4918L55.4729 25.1084C55.4648 24.8073 55.1068 24.6527 54.887 24.8643Z" fill="#5D5D5D"/>
<path d="M66.5161 74.023L67.7612 74.6252C68.1681 74.8205 68.4773 74.202 68.0623 73.9986L66.8172 73.3964C66.4104 73.2093 66.1011 73.8277 66.5161 74.023Z" fill="#5D5D5D"/>
<path d="M67.2571 88.3533C67.2896 88.4428 67.3466 88.5079 67.4361 88.5486L68.6811 89.1508C68.9578 89.281 69.2589 89.0206 69.1613 88.7276C69.1287 88.6381 69.0717 88.573 68.9822 88.5323L67.7372 87.9301C67.4605 87.7999 67.1594 88.0685 67.2571 88.3533Z" fill="#5D5D5D"/>
<path d="M55.3265 49.0813C55.2533 49.1464 55.2207 49.236 55.2207 49.3336L55.2451 50.717C55.2533 51.0181 55.6113 51.1645 55.831 50.9611C55.9043 50.896 55.9368 50.8065 55.9368 50.7088L55.9124 49.3255C55.9043 49.0244 55.5462 48.8698 55.3265 49.0813Z" fill="#5D5D5D"/>
<path d="M64.1471 86.8396C64.1797 86.9291 64.2366 86.9942 64.3261 87.0349L65.5712 87.6371C65.8478 87.7673 66.1489 87.5069 66.0513 87.214C66.0187 87.1244 65.9618 87.0593 65.8723 87.0187L64.6272 86.4165C64.3424 86.2863 64.0495 86.5548 64.1471 86.8396Z" fill="#5D5D5D"/>
<path d="M63.3999 72.5257L64.645 73.1279C65.0519 73.3232 65.3611 72.7047 64.9461 72.5013L63.701 71.8991C63.2942 71.7038 62.9849 72.3222 63.3999 72.5257Z" fill="#5D5D5D"/>
<path d="M54.8226 21.4058C54.7493 21.4709 54.7168 21.5604 54.7168 21.6581L54.7412 23.0414C54.7493 23.3425 55.1074 23.489 55.3271 23.2856C55.4003 23.2205 55.4329 23.131 55.4329 23.0333L55.4085 21.6499C55.4003 21.3488 55.0423 21.1942 54.8226 21.4058Z" fill="#5D5D5D"/>
<path d="M82.1072 81.5256L83.3522 82.1278C83.4661 82.1848 83.6045 82.1685 83.7103 82.0953C83.9137 81.9406 83.8811 81.6233 83.6533 81.5094L82.4083 80.9072C82.2943 80.8502 82.156 80.8665 82.0502 80.9397C81.8386 81.0943 81.8712 81.4117 82.1072 81.5256Z" fill="#5D5D5D"/>
<path d="M85.2232 83.0231L86.4682 83.6253C86.8751 83.8206 87.1843 83.2022 86.7693 82.9987L85.5243 82.3965C85.1174 82.2094 84.8082 82.8278 85.2232 83.0231Z" fill="#5D5D5D"/>
<path d="M88.3413 84.5285L89.5864 85.1307C89.9933 85.326 90.3025 84.7075 89.8875 84.5041L88.6424 83.9019C88.2356 83.7066 87.9263 84.325 88.3413 84.5285Z" fill="#5D5D5D"/>
<path d="M91.4576 86.0259L92.7026 86.628C92.8165 86.685 92.9549 86.6687 93.0606 86.5955C93.2641 86.4409 93.2315 86.1235 93.0037 86.0096L91.7586 85.4074C91.3518 85.2121 91.0425 85.8306 91.4576 86.0259Z" fill="#5D5D5D"/>
<path d="M99.9288 62.0445L68.933 6.16416C68.3389 4.85402 67.7937 4.12164 67.2241 3.6578C66.6301 3.17769 66.0686 3.02307 65.4338 2.86032L56.5965 0.362104H56.5883C54.7411 -0.126147 54.5865 -0.0610466 52.7474 0.207492C35.4715 2.7464 18.1955 5.29344 0.927678 7.85676C0.00813763 7.9951 0 8.26364 0 9.06925V83.9019C0 84.8052 0.227851 84.8052 1.03347 85.1958C15.1032 92.015 28.8068 98.6634 42.8603 105.483C43.7799 105.93 43.5358 105.898 44.5204 105.613L99.2046 89.9807C99.7009 89.8423 99.766 89.5738 99.7742 89.1262L99.9369 62.5816C100.018 62.427 100.026 62.2236 99.9288 62.0445ZM43.1207 104.335L1.87163 84.3332L2.76676 84.0809C3.20619 83.9507 3.01088 83.2916 2.5796 83.4137L1.24504 83.7961C1.21249 83.8043 1.17994 83.8205 1.15553 83.8368V9.88301C1.15553 9.11808 1.22877 9.22387 1.93673 9.43544L10.4893 11.9174L10.4974 11.9255L10.7659 11.9988C13.3862 12.6986 13.4269 12.7067 14.5011 15.091L18.0979 23.0577C18.0572 23.1146 18.0409 23.1797 18.0409 23.253L18.0572 24.6363C18.0653 25.092 18.757 25.0839 18.7489 24.6282V24.498L37.1641 65.267C37.1315 65.2833 37.1071 65.3077 37.0746 65.3321C37.0095 65.3972 36.9769 65.4867 36.985 65.5762L37.0095 66.9596C37.0176 67.4153 37.7093 67.399 37.7011 66.9515L37.693 66.4388L43.137 78.4905L43.1207 104.335ZM61.8126 85.0493L61.5197 84.9028C61.243 84.7726 60.9419 85.033 61.0396 85.326C61.0721 85.4155 61.1291 85.4806 61.2186 85.5213L61.8126 85.8061L61.715 99.5016L44.2681 104.49L44.2763 91.6163L44.6425 91.7953C44.9191 91.9255 45.2202 91.657 45.1226 91.364C45.09 91.2745 45.0331 91.2094 44.9436 91.1687L44.2763 90.8432L44.2844 78.3928C44.2925 78.3033 44.2763 78.2057 44.2356 78.1161L43.7473 77.042L43.7799 77.0583C44.0566 77.1885 44.3576 76.9281 44.26 76.6351C44.2274 76.5456 44.1705 76.4805 44.081 76.4398L43.2998 76.0574L41.8757 72.8919L42.6895 72.664C42.9905 72.5745 43.0312 72.1758 42.7627 72.0293C42.6813 71.9886 42.5918 71.9805 42.5023 72.0049L41.5909 72.2653L37.6442 63.5256C37.6442 63.5174 37.6442 63.5012 37.6442 63.493L37.6198 62.1096C37.6116 61.8004 37.2373 61.6539 37.0176 61.8818C36.985 61.9143 36.9606 61.955 36.9444 61.9957L18.6187 21.4139C18.6756 21.3488 18.7163 21.2674 18.7163 21.1698L18.7 19.7864C18.6919 19.3307 18.0002 19.3388 18.0083 19.7945V20.0549L15.5508 14.619C14.2488 11.7384 14.2081 11.7221 11.067 10.8839L10.7985 10.8107L4.69535 9.03671C3.11667 8.581 3.11667 8.68679 4.73604 8.4508L16.2832 6.74192C16.7959 6.66869 17.3492 6.55476 17.8537 6.53849L17.8619 7.33596C17.87 7.79166 18.5617 7.78353 18.5536 7.32783L18.5454 6.59545C18.8221 6.64427 19.1639 6.73379 19.6603 6.86399L29.4741 9.60633H29.4822C29.9949 9.73653 30.4425 9.85859 30.8494 10.1922C31.2888 10.5421 31.7282 11.1525 32.2409 12.2917L36.2364 20.4537C36.212 20.5025 36.2038 20.5513 36.2038 20.6083L36.2283 21.9916C36.2364 22.3009 36.6107 22.4473 36.8304 22.2195C36.8955 22.1544 36.9281 22.0649 36.9199 21.9754V21.8452L55.4247 59.6521C55.4247 59.6765 55.4165 59.6928 55.4165 59.7172L55.441 61.1006C55.4491 61.4017 55.8071 61.5481 56.0269 61.3447C56.092 61.2796 56.1245 61.1982 56.1326 61.1087L60.7141 70.4669L60.5839 70.4018C60.4699 70.3448 60.3316 70.3611 60.2258 70.4343C60.0224 70.5889 60.0549 70.9063 60.2828 71.0202L61.2023 71.4597L61.8859 72.8593L61.8126 85.0493ZM80.0244 79.7599L79.2839 79.4019C78.877 79.2066 78.5678 79.825 78.9828 80.0285L80.0244 80.5249L80.0163 93.9436C80.0244 94.204 79.9349 94.2773 79.6908 94.3586L62.8624 99.1679L63.0251 73.136C63.0414 72.8268 62.9844 72.5989 62.9031 72.428L55.856 57.9514C55.8885 57.9351 55.9211 57.9107 55.9536 57.8863C56.0269 57.8212 56.0594 57.7317 56.0594 57.634L56.035 56.2506C56.0269 55.9495 55.6688 55.8031 55.4491 56.0065C55.3759 56.0716 55.3433 56.1611 55.3433 56.2588L55.3596 56.926L36.7084 18.8017C36.7246 18.7855 36.7491 18.7692 36.7653 18.7529C36.8304 18.6878 36.863 18.5983 36.8548 18.5088L36.8304 17.1254C36.8223 16.8162 36.448 16.6697 36.2283 16.8976C36.1632 16.9627 36.1306 17.0522 36.1387 17.1417L36.1469 17.6625L33.2906 11.8197C32.6966 10.4933 32.1432 9.75281 31.5736 9.28897C30.9796 8.80885 30.4099 8.65424 29.7752 8.49149L20.9948 6.0421C25.5844 5.36668 30.1821 4.68313 34.7716 4.00772C35.2599 3.94262 35.5447 3.9182 35.9109 3.97517L35.9272 4.68313C35.9353 5.13883 36.627 5.12256 36.6189 4.67499L36.6107 4.12164C36.7816 4.16233 36.9769 4.21929 37.2129 4.27625L46.685 6.92095C48.5892 7.44989 48.9472 7.82421 49.7935 9.70398L54.676 19.111L54.6842 19.5829C54.6923 19.8108 54.8957 19.9573 55.091 19.9166L80.0325 67.9524L80.0244 79.7599ZM98.6187 88.7031L97.9921 88.402C97.5852 88.2067 97.276 88.8251 97.691 89.0286L97.9351 89.1506L81.1555 93.9436L81.1718 67.8466C81.1799 67.7489 81.1555 67.6432 81.1067 67.5536L50.8188 9.20759C49.8016 6.94536 49.1913 6.4327 46.8884 5.78983L38.5393 3.4625L52.9102 1.35488C53.3822 1.28164 53.8623 1.19213 54.3343 1.15958L54.3587 2.2907C54.3668 2.59179 54.7248 2.73826 54.9446 2.53482C55.0178 2.46972 55.0504 2.38021 55.0504 2.28256L55.0341 1.18399C55.3352 1.23282 55.7014 1.32233 56.2873 1.47695L65.1327 3.97517H65.1409C65.6535 4.10537 66.1011 4.22743 66.508 4.56107C66.9474 4.91098 67.3868 5.5213 67.8995 6.66055L67.9239 6.70937L98.7895 62.3619L98.6187 88.7031Z" fill="#5D5D5D"/>
<path d="M69.6333 75.5284L70.8784 76.1305C71.2853 76.3258 71.5945 75.7074 71.1795 75.5039L69.9344 74.9018C69.5275 74.7065 69.2183 75.3249 69.6333 75.5284Z" fill="#5D5D5D"/>
<path d="M55.0752 9.45151C55.1484 9.38641 55.1809 9.2969 55.1809 9.19925L55.1565 7.81587C55.1484 7.51478 54.7903 7.36831 54.5706 7.57175C54.4974 7.63685 54.4648 7.72636 54.4648 7.82401L54.4893 9.20739C54.4974 9.50848 54.8554 9.65495 55.0752 9.45151Z" fill="#5D5D5D"/>
<path d="M55.0097 5.99338C55.083 5.92828 55.1155 5.83877 55.1155 5.74112L55.0911 4.35774C55.083 4.05665 54.7249 3.91018 54.5052 4.11362C54.432 4.17872 54.3994 4.26823 54.3994 4.36588L54.4238 5.74926C54.432 6.05035 54.79 6.19682 55.0097 5.99338Z" fill="#5D5D5D"/>
<path d="M55.1396 12.9101C55.2128 12.845 55.2454 12.7555 55.2454 12.6579L55.221 11.2745C55.2128 10.9734 54.8548 10.8269 54.6351 11.0304C54.5618 11.0955 54.5293 11.185 54.5293 11.2826L54.5537 12.666C54.5537 12.9671 54.9199 13.1136 55.1396 12.9101Z" fill="#5D5D5D"/>
<path d="M54.6917 14.4887C54.6185 14.5538 54.5859 14.6433 54.5859 14.741L54.6103 16.1243C54.6185 16.4254 54.9765 16.5719 55.1963 16.3685C55.2695 16.3034 55.302 16.2138 55.302 16.1162L55.2776 14.7328C55.2776 14.4236 54.9114 14.2771 54.6917 14.4887Z" fill="#5D5D5D"/>
<path d="M94.5738 87.5312L95.8188 88.1334C96.2257 88.3287 96.5349 87.7102 96.1199 87.5068L94.8749 86.9046C94.7609 86.8477 94.6226 86.8639 94.5168 86.9372C94.3134 87.0999 94.3459 87.4173 94.5738 87.5312Z" fill="#5D5D5D"/>
<path d="M72.7505 77.0257L73.9956 77.6278C74.4024 77.8231 74.7117 77.2047 74.2967 77.0013L73.0516 76.3991C72.6447 76.2038 72.3355 76.8222 72.7505 77.0257Z" fill="#5D5D5D"/>
<path d="M51.1766 94.1715L49.9315 93.5694C49.8095 93.5124 49.6711 93.5287 49.5735 93.6101C49.37 93.7647 49.4026 94.082 49.6304 94.196L50.8755 94.7981C51.1521 94.9283 51.4532 94.6598 51.3556 94.3668C51.323 94.2773 51.2579 94.2122 51.1766 94.1715Z" fill="#5D5D5D"/>
<path d="M50.4845 79.6622C50.452 79.5727 50.395 79.5076 50.3055 79.4669L49.0604 78.8648C48.7838 78.7346 48.4827 78.995 48.5803 79.2879C48.6129 79.3774 48.6698 79.4425 48.7593 79.4832L50.0044 80.0854C50.2811 80.2156 50.5822 79.9552 50.4845 79.6622Z" fill="#5D5D5D"/>
<path d="M53.5939 81.1759C53.5613 81.0864 53.5044 81.0213 53.4149 80.9806L52.1698 80.3784C51.8931 80.2482 51.592 80.5086 51.6897 80.8016C51.7222 80.8911 51.7792 80.9562 51.8687 80.9969L53.1138 81.5991C53.3986 81.7293 53.6997 81.4607 53.5939 81.1759Z" fill="#5D5D5D"/>
<path d="M54.2928 95.6687L53.0477 95.0666C52.9257 95.0096 52.7873 95.0259 52.6897 95.1072C52.4862 95.2619 52.5188 95.5792 52.7466 95.6931L53.9917 96.2953C54.2684 96.4255 54.5694 96.157 54.4718 95.864C54.4392 95.7827 54.3741 95.7094 54.2928 95.6687Z" fill="#5D5D5D"/>
<path d="M56.2552 67.8629L56.2308 66.6179C56.2226 66.3168 55.8646 66.1703 55.6449 66.3737C55.5716 66.4388 55.5391 66.5284 55.5391 66.626L55.5635 67.871C55.5798 68.2861 55.5798 68.2617 55.238 68.343L54.4731 68.5627C54.172 68.6523 54.1313 69.051 54.3998 69.1975C54.4812 69.2382 54.5707 69.2463 54.6602 69.2219L55.9948 68.8394C56.3447 68.7499 56.2633 68.1315 56.2552 67.8629Z" fill="#5D5D5D"/>
<path d="M48.0603 92.6658L46.8153 92.0636C46.6932 92.0067 46.5549 92.0229 46.4573 92.1043C46.2538 92.2589 46.2864 92.5763 46.5142 92.6902L47.7593 93.2924C48.0359 93.4226 48.337 93.1541 48.2394 92.8611C48.2068 92.7797 48.1417 92.7065 48.0603 92.6658Z" fill="#5D5D5D"/>
<path d="M56.0839 64.8031C56.1572 64.738 56.1897 64.6485 56.1897 64.5508L56.1653 63.1674C56.1572 62.8663 55.7991 62.7199 55.5794 62.9233C55.5062 62.9884 55.4736 63.0779 55.4736 63.1756L55.498 64.5589C55.5062 64.86 55.8724 65.0065 56.0839 64.8031Z" fill="#5D5D5D"/>
<path d="M51.0717 70.1658C51.1531 70.2065 51.2426 70.2146 51.3321 70.1902L52.6667 69.8078C52.9677 69.7182 53.0084 69.3195 52.7399 69.173C52.6585 69.1323 52.569 69.1242 52.4795 69.1486L51.1449 69.5311C50.8438 69.6125 50.8032 70.0112 51.0717 70.1658Z" fill="#5D5D5D"/>
<path d="M56.7101 82.6812C56.6775 82.5916 56.6206 82.5265 56.5311 82.4859L55.286 81.8837C55.0093 81.7535 54.7083 82.0139 54.8059 82.3068C54.8385 82.3963 54.8954 82.4614 54.9849 82.5021L56.23 83.1043C56.5067 83.2426 56.8077 82.9741 56.7101 82.6812Z" fill="#5D5D5D"/>
<path d="M47.3771 78.1486C47.3445 78.059 47.2876 77.9939 47.1981 77.9533L45.953 77.3511C45.6763 77.2209 45.3753 77.4813 45.4729 77.7742C45.5055 77.8637 45.5624 77.9288 45.6519 77.9695L46.897 78.5717C47.1736 78.7019 47.4747 78.4415 47.3771 78.1486Z" fill="#5D5D5D"/>
<path d="M46.0827 71.0771C46.0013 71.0364 45.9118 71.0283 45.8223 71.0527L44.4877 71.4351C44.1866 71.5246 44.1459 71.9234 44.4145 72.0699C44.4958 72.1106 44.5854 72.1187 44.6749 72.0943L46.0094 71.7118C46.3105 71.6223 46.3512 71.2236 46.0827 71.0771Z" fill="#5D5D5D"/>
<path d="M47.7508 71.1097C47.8322 71.1503 47.9217 71.1585 48.0112 71.1341L49.3458 70.7516C49.6469 70.6621 49.6875 70.2634 49.419 70.1169C49.3376 70.0762 49.2481 70.0681 49.1586 70.0925L47.824 70.4749C47.523 70.5644 47.4741 70.9632 47.7508 71.1097Z" fill="#5D5D5D"/>
<path d="M73.4807 91.3804C73.5133 91.4699 73.5702 91.535 73.6597 91.5757L74.9048 92.1779C75.1815 92.3081 75.4825 92.0477 75.3849 91.7547C75.3523 91.6652 75.2954 91.6001 75.2059 91.5594L73.9608 90.9572C73.6842 90.8189 73.3831 91.0874 73.4807 91.3804Z" fill="#5D5D5D"/>
<path d="M57.41 97.1742L56.1649 96.5721C56.0428 96.5151 55.9045 96.5314 55.8069 96.6127C55.6034 96.7674 55.636 97.0847 55.8638 97.1986L57.1089 97.8008C57.3855 97.931 57.6866 97.6625 57.589 97.3695C57.5564 97.28 57.4995 97.2149 57.41 97.1742Z" fill="#5D5D5D"/>
<path d="M76.5901 92.8938C76.6226 92.9833 76.6796 93.0484 76.7691 93.0891L78.0142 93.6913C78.2908 93.8215 78.5919 93.5611 78.4943 93.2681C78.4617 93.1786 78.4048 93.1135 78.3152 93.0728L77.0702 92.4707C76.7935 92.3323 76.4924 92.6009 76.5901 92.8938Z" fill="#5D5D5D"/>
<path d="M75.866 78.523L77.1111 79.1252C77.518 79.3205 77.8272 78.702 77.4122 78.4986L76.1671 77.8964C75.7603 77.7093 75.4592 78.3277 75.866 78.523Z" fill="#5D5D5D"/>
<path d="M57.1587 69.5229L58.4038 70.1251C58.5177 70.1821 58.6561 70.1658 58.7618 70.0926C58.9653 69.938 58.9327 69.6206 58.7049 69.5067L57.4598 68.9045C57.3459 68.8475 57.2076 68.8638 57.1018 68.937C56.8983 69.0917 56.9309 69.409 57.1587 69.5229Z" fill="#5D5D5D"/>
<path d="M70.3732 89.8668C70.4058 89.9563 70.4627 90.0214 70.5523 90.0621L71.7973 90.6642C72.074 90.7944 72.3751 90.534 72.2774 90.2411C72.2449 90.1516 72.1879 90.0865 72.0984 90.0458L70.8533 89.4436C70.5685 89.3134 70.2674 89.5738 70.3732 89.8668Z" fill="#5D5D5D"/>
<path d="M36.1708 13.4392C36.1057 13.5043 36.0732 13.5938 36.0813 13.6833L36.1057 15.0667C36.1139 15.3759 36.4882 15.5224 36.7079 15.2945C36.773 15.2294 36.8055 15.1399 36.7974 15.0504L36.773 13.667C36.7649 13.3578 36.3824 13.2113 36.1708 13.4392Z" fill="#5D5D5D"/>
<path d="M59.8185 84.1948C59.7859 84.1053 59.729 84.0402 59.6395 83.9995L58.3944 83.3973C58.1177 83.2671 57.8167 83.5276 57.9143 83.8205C57.9469 83.91 58.0038 83.9751 58.0933 84.0158L59.3384 84.618C59.6232 84.7563 59.9161 84.4878 59.8185 84.1948Z" fill="#5D5D5D"/>
<path d="M60.5271 98.6797L59.2821 98.0775C59.16 98.0206 59.0217 98.0369 58.9241 98.1182C58.7206 98.2728 58.7532 98.5902 58.981 98.7041L60.2261 99.3063C60.5027 99.4365 60.8038 99.168 60.7062 98.875C60.6736 98.7855 60.6167 98.7123 60.5271 98.6797Z" fill="#5D5D5D"/>
<path d="M36.6434 11.836C36.7085 11.7709 36.7411 11.6814 36.733 11.5919L36.7085 10.2085C36.7004 9.8993 36.3261 9.75282 36.1064 9.98067C36.0413 10.0458 36.0087 10.1353 36.0169 10.2248L36.0413 11.6082C36.0494 11.9174 36.4319 12.0639 36.6434 11.836Z" fill="#5D5D5D"/>
<path d="M36.6761 8.1335L36.6517 6.75012C36.6436 6.29442 35.9519 6.3107 35.96 6.75826L35.9844 8.14164C35.9926 8.60548 36.6843 8.5892 36.6761 8.1335Z" fill="#5D5D5D"/>
</svg>
