<svg width="100" height="116" viewBox="0 0 100 116" fill="none" xmlns="http://www.w3.org/2000/svg">
<mask id="path-1-inside-1_705_676" fill="white">
<path d="M50.3919 0.226276L75 14.4338L74.9993 14.4351L100 28.8693V86.5964L74.9993 101.031L75 101.032L50 115.466L25 101.032L25.0007 101.031L0 86.5964V28.8693L25.0007 14.4351L25 14.4338L50 0L50.3919 0.226276ZM2.34627 29.317L50 56.8299L97.6537 29.317L74.2192 15.7871H74.2162L50 1.80586L25.7838 15.7871H25.7808L2.34627 29.317ZM98.4323 30.6733L50.7838 58.1832V113.207L74.2162 99.6786H74.2192L98.4323 85.6992V30.6733ZM49.2162 113.207V58.1832L1.56768 30.6733V85.6992L25.7808 99.6786H25.7838L49.2162 113.207ZM60.5064 83.2588L67.2911 79.4251L60.4559 75.3188L60.5064 83.2588ZM60.4443 73.4888L70.3919 79.465L60.5177 85.0444L60.5813 95.0646L86.7653 79.9537L60.3853 64.2019L60.4443 73.4888ZM39.9259 75.5495L33.2645 79.3135L39.8768 83.2859L39.9259 75.5495ZM39.8652 85.1021L30.1637 79.2736L39.9373 73.7511L39.9994 63.9749L13.6195 79.7267L39.8034 94.8376L39.8652 85.1021ZM67.0602 35.7184L60.1051 31.6175L60.14 39.8976L67.0602 35.7184ZM58.5823 40.8383L58.532 28.8734L68.5822 34.7992L76.6645 29.9181L50.7838 14.7183V45.548L58.5823 40.8383ZM70.9032 57.2886L77.5379 61.3254L77.6002 53.4798L70.9032 57.2886ZM79.169 52.5876L79.0775 64.0927L69.3482 58.173L61.1476 62.837L87.5193 78.5839L87.3514 47.934L79.169 52.5876ZM31.4124 58.1598L20.9535 64.3266L21.0043 52.2403L13.0334 47.707L12.8654 78.3569L39.2372 62.61L31.4124 58.1598ZM22.5622 53.1263L22.5266 61.5824L29.8442 57.2678L22.5622 53.1263ZM31.3495 35.1001L41.5393 29.1087L41.2909 40.9344L49.2162 45.5855V15.0739L22.8992 30.1408L31.3495 35.1001ZM39.7477 40.0288L39.919 31.8731L32.8916 36.0051L39.7477 40.0288ZM88.9056 46.5919L89.0909 80.4137C79.0732 86.1958 69.0549 91.9767 59.0368 97.7581L58.8121 62.3669C68.841 56.6636 78.8695 50.9595 88.8982 45.256L88.9056 46.5919ZM11.2963 79.7346L11.4865 45.0289C21.5153 50.7325 31.5438 56.4366 41.5727 62.1399L41.3479 97.5311C31.3298 91.7497 21.3115 85.9688 11.2938 80.1867L11.2963 79.7346ZM49.2162 13.2691V13.2635H49.226L50.322 12.636C60.1217 18.391 69.9211 24.1464 79.7206 29.9018L49.9952 47.8535L19.7807 30.1215L20.9511 29.4514L49.2162 13.2691Z"/>
</mask>
<path d="M50.3919 0.226276L75 14.4338L74.9993 14.4351L100 28.8693V86.5964L74.9993 101.031L75 101.032L50 115.466L25 101.032L25.0007 101.031L0 86.5964V28.8693L25.0007 14.4351L25 14.4338L50 0L50.3919 0.226276ZM2.34627 29.317L50 56.8299L97.6537 29.317L74.2192 15.7871H74.2162L50 1.80586L25.7838 15.7871H25.7808L2.34627 29.317ZM98.4323 30.6733L50.7838 58.1832V113.207L74.2162 99.6786H74.2192L98.4323 85.6992V30.6733ZM49.2162 113.207V58.1832L1.56768 30.6733V85.6992L25.7808 99.6786H25.7838L49.2162 113.207ZM60.5064 83.2588L67.2911 79.4251L60.4559 75.3188L60.5064 83.2588ZM60.4443 73.4888L70.3919 79.465L60.5177 85.0444L60.5813 95.0646L86.7653 79.9537L60.3853 64.2019L60.4443 73.4888ZM39.9259 75.5495L33.2645 79.3135L39.8768 83.2859L39.9259 75.5495ZM39.8652 85.1021L30.1637 79.2736L39.9373 73.7511L39.9994 63.9749L13.6195 79.7267L39.8034 94.8376L39.8652 85.1021ZM67.0602 35.7184L60.1051 31.6175L60.14 39.8976L67.0602 35.7184ZM58.5823 40.8383L58.532 28.8734L68.5822 34.7992L76.6645 29.9181L50.7838 14.7183V45.548L58.5823 40.8383ZM70.9032 57.2886L77.5379 61.3254L77.6002 53.4798L70.9032 57.2886ZM79.169 52.5876L79.0775 64.0927L69.3482 58.173L61.1476 62.837L87.5193 78.5839L87.3514 47.934L79.169 52.5876ZM31.4124 58.1598L20.9535 64.3266L21.0043 52.2403L13.0334 47.707L12.8654 78.3569L39.2372 62.61L31.4124 58.1598ZM22.5622 53.1263L22.5266 61.5824L29.8442 57.2678L22.5622 53.1263ZM31.3495 35.1001L41.5393 29.1087L41.2909 40.9344L49.2162 45.5855V15.0739L22.8992 30.1408L31.3495 35.1001ZM39.7477 40.0288L39.919 31.8731L32.8916 36.0051L39.7477 40.0288ZM88.9056 46.5919L89.0909 80.4137C79.0732 86.1958 69.0549 91.9767 59.0368 97.7581L58.8121 62.3669C68.841 56.6636 78.8695 50.9595 88.8982 45.256L88.9056 46.5919ZM11.2963 79.7346L11.4865 45.0289C21.5153 50.7325 31.5438 56.4366 41.5727 62.1399L41.3479 97.5311C31.3298 91.7497 21.3115 85.9688 11.2938 80.1867L11.2963 79.7346ZM49.2162 13.2691V13.2635H49.226L50.322 12.636C60.1217 18.391 69.9211 24.1464 79.7206 29.9018L49.9952 47.8535L19.7807 30.1215L20.9511 29.4514L49.2162 13.2691Z" fill="#5D5D5D" stroke="#161519" stroke-width="0.4" mask="url(#path-1-inside-1_705_676)"/>
</svg>
