<svg width="101" height="101" viewBox="0 0 101 101" fill="none" xmlns="http://www.w3.org/2000/svg">
<path d="M64.5 42.0018L50.5 32.5018L36.5 42.0018M64.5 42.0018V57.5018L50.5 66.5018M64.5 42.0018L50.5 51.0018M50.5 66.5018L36.5 57.5018V42.0018M50.5 66.5018V51.0018M36.5 42.0018L50.5 51.0018" stroke="#5D5D5D" stroke-width="1.2"/>
<path d="M1.34853 50.0018L50.5018 0.848525L99.6551 50.0018L50.5018 99.1551L1.34853 50.0018Z" stroke="#5D5D5D" stroke-width="1.2"/>
<path d="M1.34853 50.0018L36.784 14.5664C44.3601 6.99022 56.6435 6.99023 64.2197 14.5664L99.6551 50.0018L64.2197 85.4373C56.6435 93.0134 44.3601 93.0134 36.784 85.4373L1.34853 50.0018Z" stroke="#5D5D5D" stroke-width="1.2"/>
<path d="M25.9377 75.0913L1.34857 50.0103L26.4243 25.4361C39.7999 12.328 61.2038 12.328 74.5794 25.4361L99.6551 50.0103L75.066 75.0912C61.579 88.848 39.4247 88.848 25.9377 75.0913Z" stroke="#5D5D5D" stroke-width="1.2"/>
<path d="M1.34853 50.0018L14.1565 37.1938C34.2295 17.1209 66.7742 17.1209 86.8471 37.1938L99.6551 50.0018L86.8471 62.8098C66.7742 82.8828 34.2295 82.8828 14.1565 62.8098L1.34853 50.0018Z" stroke="#5D5D5D" stroke-width="1.2"/>
</svg>
